{"glyphs":{"0":{"ha":843,"x_min":88,"x_max":756,"o":"m 422 -14 q 174 108 260 -14 q 88 458 88 229 q 174 809 88 688 q 422 931 260 931 q 669 809 583 931 q 756 458 756 688 q 669 108 756 229 q 422 -14 583 -14 m 422 49 q 617 154 550 49 q 685 458 685 260 q 617 763 685 657 q 422 868 550 868 q 226 763 294 868 q 158 458 158 657 q 226 154 158 260 q 422 49 294 49 z "},"1":{"ha":507,"x_min":46,"x_max":372,"o":"m 372 917 l 372 0 l 303 0 l 303 694 q 306 821 303 735 q 196 728 260 768 q 64 671 132 689 l 46 733 q 194 804 113 750 q 310 917 275 858 l 372 917 z "},"2":{"ha":778,"x_min":69,"x_max":703,"o":"m 90 57 q 390 304 286 210 q 548 482 494 399 q 601 651 601 565 q 541 808 601 750 q 376 867 481 867 q 204 799 269 867 q 131 617 139 732 l 69 651 q 163 855 82 779 q 378 931 244 931 q 594 855 514 931 q 674 651 674 779 q 622 473 674 560 q 469 290 571 386 q 192 64 367 194 l 192 63 l 283 64 l 703 64 l 703 0 l 90 0 l 90 57 z "},"3":{"ha":769,"x_min":67,"x_max":679,"o":"m 382 931 q 584 864 511 931 q 657 692 657 797 q 608 535 657 600 q 482 464 558 471 l 482 463 q 624 397 569 460 q 679 242 679 333 q 640 109 679 167 q 533 19 601 51 q 376 -14 464 -14 q 178 42 257 -14 q 67 201 100 97 l 131 236 q 381 50 179 50 q 544 104 482 50 q 607 247 607 158 q 551 383 607 336 q 385 431 494 431 l 333 431 l 333 494 l 385 494 q 533 544 482 494 q 585 681 585 594 q 531 818 585 769 q 382 867 478 867 q 241 824 297 867 q 164 707 185 782 l 99 739 q 206 879 131 828 q 382 931 282 931 z "},"4":{"ha":808,"x_min":57,"x_max":758,"o":"m 758 261 l 582 261 l 582 0 l 513 0 l 513 261 l 57 261 l 57 314 l 493 917 l 582 917 l 582 321 l 758 321 l 758 261 m 132 321 l 513 321 l 513 740 l 515 858 l 513 858 q 436 738 486 813 l 132 321 z "},"5":{"ha":778,"x_min":79,"x_max":700,"o":"m 411 572 q 562 536 496 572 q 664 434 628 500 q 700 282 700 368 q 617 67 700 147 q 396 -14 535 -14 q 79 201 142 -14 l 146 235 q 393 50 186 50 q 563 113 499 50 q 628 279 628 176 q 565 447 626 385 q 401 508 504 508 q 165 406 239 508 l 104 406 l 154 917 l 661 917 l 661 853 l 213 853 l 176 497 l 174 479 l 175 479 q 411 572 256 572 z "},"6":{"ha":807,"x_min":89,"x_max":728,"o":"m 440 931 q 608 885 543 931 q 707 750 672 840 l 643 719 q 571 827 622 788 q 436 867 519 867 q 281 808 344 867 q 185 653 217 750 q 153 439 153 556 q 160 346 153 401 l 164 346 q 210 464 169 414 q 309 540 250 514 q 431 565 368 565 q 648 487 568 565 q 728 275 728 408 q 646 65 728 143 q 425 -14 564 -14 q 176 112 263 -14 q 89 458 89 238 q 134 716 89 610 q 259 876 179 822 q 440 931 339 931 m 426 500 q 306 469 358 500 q 225 388 254 439 q 196 278 196 338 q 259 115 196 178 q 424 51 322 51 q 594 113 532 51 q 656 278 656 174 q 594 440 656 379 q 426 500 532 500 z "},"7":{"ha":736,"x_min":44,"x_max":704,"o":"m 704 917 l 704 853 q 451 465 535 674 q 356 0 367 256 l 283 0 q 628 853 306 504 l 44 853 l 44 917 l 704 917 z "},"8":{"ha":821,"x_min":86,"x_max":735,"o":"m 410 929 q 617 866 539 929 q 694 697 694 803 q 651 563 694 618 q 532 483 608 507 l 532 482 q 680 394 625 458 q 735 242 735 331 q 694 108 735 165 q 580 18 654 50 q 410 -14 506 -14 q 242 18 315 -14 q 127 108 168 50 q 86 242 86 165 q 141 394 86 331 q 289 482 196 458 l 289 483 q 169 563 213 507 q 126 697 126 618 q 203 866 126 803 q 410 929 281 929 m 410 865 q 256 818 313 865 q 199 690 199 771 q 256 562 199 610 q 410 514 314 514 q 564 562 506 514 q 622 690 622 610 q 565 818 622 771 q 410 865 507 865 m 410 50 q 593 104 524 50 q 663 247 663 158 q 593 393 663 338 q 410 449 524 449 q 228 393 297 449 q 158 247 158 338 q 227 104 158 158 q 410 50 296 50 z "},"9":{"ha":828,"x_min":89,"x_max":736,"o":"m 396 931 q 648 804 560 931 q 736 458 736 678 q 647 107 736 228 q 397 -14 557 -14 q 200 39 278 -14 q 92 188 122 92 l 161 224 q 237 96 181 142 q 396 50 293 50 q 608 168 543 50 q 674 481 674 286 q 665 576 674 515 l 661 576 q 615 452 656 503 q 514 376 575 401 q 389 351 453 351 q 171 430 253 351 q 89 642 89 508 q 172 852 89 774 q 396 931 256 931 m 397 865 q 224 804 288 865 q 161 639 161 743 q 224 477 161 538 q 394 417 286 417 q 516 447 463 417 q 599 528 569 478 q 629 639 629 579 q 565 802 629 739 q 397 865 500 865 z "}," ":{"ha":435,"x_min":0,"x_max":0,"o":""},"A":{"ha":868,"x_min":26,"x_max":842,"o":"m 653 288 l 214 288 l 100 0 l 26 0 l 393 917 l 475 917 l 842 0 l 768 0 l 653 288 m 628 351 l 468 751 l 435 849 l 433 849 l 400 754 l 240 351 l 628 351 z "},"Á":{"ha":868,"x_min":26,"x_max":842,"o":"m 460 1032 l 403 1032 l 493 1238 l 575 1238 l 460 1032 m 653 288 l 214 288 l 100 0 l 26 0 l 393 917 l 475 917 l 842 0 l 768 0 l 653 288 m 628 351 l 468 751 l 435 849 l 433 849 l 400 754 l 240 351 l 628 351 z "},"Ă":{"ha":868,"x_min":26,"x_max":842,"o":"m 653 288 l 214 288 l 100 0 l 26 0 l 393 917 l 475 917 l 842 0 l 768 0 l 653 288 m 628 351 l 468 751 l 435 849 l 433 849 l 400 754 l 240 351 l 628 351 m 622 1214 q 571 1077 622 1128 q 433 1026 519 1026 q 297 1078 349 1026 q 246 1214 246 1129 l 304 1214 q 340 1117 304 1156 q 433 1079 376 1079 q 528 1117 492 1079 q 564 1214 564 1156 l 622 1214 z "},"Â":{"ha":868,"x_min":26,"x_max":842,"o":"m 306 1026 l 240 1026 l 394 1243 l 475 1243 l 629 1026 l 565 1026 l 435 1196 l 306 1026 m 653 288 l 214 288 l 100 0 l 26 0 l 393 917 l 475 917 l 842 0 l 768 0 l 653 288 m 628 351 l 468 751 l 435 849 l 433 849 l 400 754 l 240 351 l 628 351 z "},"Ä":{"ha":868,"x_min":26,"x_max":842,"o":"m 653 288 l 214 288 l 100 0 l 26 0 l 393 917 l 475 917 l 842 0 l 768 0 l 653 288 m 628 351 l 468 751 l 435 849 l 433 849 l 400 754 l 240 351 l 628 351 m 303 1154 q 343 1138 328 1154 q 358 1097 358 1122 q 343 1057 358 1072 q 303 1042 328 1042 q 262 1057 278 1042 q 246 1097 246 1072 q 262 1138 246 1122 q 303 1154 278 1154 m 565 1154 q 606 1138 590 1154 q 622 1097 622 1122 q 606 1057 622 1072 q 565 1042 590 1042 q 524 1057 540 1042 q 508 1097 508 1072 q 524 1138 508 1122 q 565 1154 540 1154 z "},"À":{"ha":868,"x_min":26,"x_max":842,"o":"m 400 1032 l 285 1238 l 367 1238 l 457 1032 l 400 1032 m 653 288 l 214 288 l 100 0 l 26 0 l 393 917 l 475 917 l 842 0 l 768 0 l 653 288 m 628 351 l 468 751 l 435 849 l 433 849 l 400 754 l 240 351 l 628 351 z "},"Ā":{"ha":868,"x_min":26,"x_max":842,"o":"m 653 288 l 214 288 l 100 0 l 26 0 l 393 917 l 475 917 l 842 0 l 768 0 l 653 288 m 628 351 l 468 751 l 435 849 l 433 849 l 400 754 l 240 351 l 628 351 m 657 1056 l 213 1056 l 213 1114 l 657 1114 l 657 1056 z "},"Ą":{"ha":868,"x_min":26,"x_max":858,"o":"m 858 -262 q 751 -290 819 -290 q 647 -257 686 -290 q 607 -162 607 -224 q 644 -62 607 -106 q 763 14 681 -19 l 653 288 l 214 288 l 100 0 l 26 0 l 393 917 l 475 917 l 842 0 q 703 -72 743 -35 q 664 -158 664 -110 q 690 -218 664 -197 q 758 -239 717 -239 q 843 -217 813 -239 l 858 -262 m 628 351 l 468 751 l 435 849 l 433 849 l 400 754 l 240 351 l 628 351 z "},"Å":{"ha":868,"x_min":26,"x_max":842,"o":"m 653 288 l 214 288 l 100 0 l 26 0 l 381 883 q 318 930 340 897 q 296 1008 296 963 q 334 1103 296 1067 q 435 1140 372 1140 q 535 1103 497 1140 q 574 1008 574 1067 q 551 930 574 963 q 489 883 529 897 l 842 0 l 768 0 l 653 288 m 346 1008 q 370 945 346 969 q 435 921 394 921 q 499 945 474 921 q 524 1008 524 969 q 499 1071 524 1047 q 435 1094 474 1094 q 370 1071 394 1094 q 346 1008 346 1047 m 628 351 l 468 751 l 435 849 l 433 849 l 400 754 l 240 351 l 628 351 z "},"Ã":{"ha":868,"x_min":26,"x_max":842,"o":"m 653 288 l 214 288 l 100 0 l 26 0 l 393 917 l 475 917 l 842 0 l 768 0 l 653 288 m 628 351 l 468 751 l 435 849 l 433 849 l 400 754 l 240 351 l 628 351 m 671 1196 q 628 1081 661 1118 q 533 1043 594 1043 q 470 1056 494 1043 q 417 1096 446 1069 q 377 1127 394 1117 q 336 1138 360 1138 q 281 1115 299 1138 q 254 1042 264 1092 l 199 1042 q 241 1157 208 1119 q 338 1194 274 1194 q 399 1181 375 1194 q 453 1142 424 1168 q 492 1110 475 1121 q 532 1100 510 1100 q 588 1123 569 1100 q 615 1196 606 1146 l 671 1196 z "},"Æ":{"ha":1281,"x_min":-1,"x_max":1222,"o":"m 1222 64 l 1222 0 l 618 0 l 618 322 l 272 322 l 78 0 l -1 0 l 557 917 l 1201 917 l 1201 853 l 688 853 l 688 497 l 1088 497 l 1088 433 l 688 433 l 688 64 l 1222 64 m 618 388 l 618 853 l 590 853 l 311 388 l 618 388 z "},"B":{"ha":878,"x_min":144,"x_max":792,"o":"m 144 917 l 468 917 q 692 854 618 917 q 767 674 767 792 q 723 538 767 593 q 599 465 679 482 l 599 464 q 740 392 688 450 q 792 247 792 333 q 708 65 792 129 q 468 0 624 0 l 144 0 l 144 917 m 469 494 q 693 674 693 494 q 469 853 693 853 l 214 853 l 214 494 l 469 494 m 482 64 q 658 111 599 64 q 718 247 718 158 q 658 384 718 338 q 482 431 599 431 l 214 431 l 214 64 l 482 64 z "},"C":{"ha":929,"x_min":86,"x_max":869,"o":"m 869 232 q 734 51 831 115 q 503 -14 638 -14 q 283 44 378 -14 q 138 208 189 101 q 86 458 86 315 q 138 708 86 601 q 283 873 189 815 q 501 931 378 931 q 857 704 776 931 l 789 672 q 687 818 757 769 q 506 867 617 867 q 324 817 403 867 q 203 676 246 768 q 160 458 160 583 q 202 241 160 333 q 322 99 244 149 q 503 50 399 50 q 692 104 614 50 q 800 258 769 158 l 869 232 z "},"Ć":{"ha":929,"x_min":86,"x_max":869,"o":"m 636 1238 l 521 1032 l 464 1032 l 554 1238 l 636 1238 m 869 232 q 734 51 831 115 q 503 -14 638 -14 q 283 44 378 -14 q 138 208 189 101 q 86 458 86 315 q 138 708 86 601 q 283 873 189 815 q 501 931 378 931 q 857 704 776 931 l 789 672 q 687 818 757 769 q 506 867 617 867 q 324 817 403 867 q 203 676 246 768 q 160 458 160 583 q 202 241 160 333 q 322 99 244 149 q 503 50 399 50 q 692 104 614 50 q 800 258 769 158 l 869 232 z "},"Č":{"ha":929,"x_min":86,"x_max":869,"o":"m 536 1028 l 456 1028 l 301 1244 l 367 1244 l 496 1075 l 626 1244 l 690 1244 l 536 1028 m 869 232 q 734 51 831 115 q 503 -14 638 -14 q 283 44 378 -14 q 138 208 189 101 q 86 458 86 315 q 138 708 86 601 q 283 873 189 815 q 501 931 378 931 q 857 704 776 931 l 789 672 q 687 818 757 769 q 506 867 617 867 q 324 817 403 867 q 203 676 246 768 q 160 458 160 583 q 202 241 160 333 q 322 99 244 149 q 503 50 399 50 q 692 104 614 50 q 800 258 769 158 l 869 232 z "},"Ç":{"ha":929,"x_min":86,"x_max":869,"o":"m 869 232 q 751 63 835 126 q 551 -11 668 0 q 642 -157 642 -71 q 603 -252 642 -214 q 499 -290 564 -290 q 417 -278 451 -290 q 356 -237 383 -265 l 383 -189 q 490 -237 424 -237 q 555 -213 529 -237 q 581 -149 581 -189 q 556 -78 581 -108 q 467 -12 532 -49 q 265 56 351 -4 q 133 219 179 115 q 86 458 86 322 q 138 708 86 601 q 283 873 189 815 q 501 931 378 931 q 857 704 776 931 l 789 672 q 687 818 757 769 q 506 867 617 867 q 324 817 403 867 q 203 676 246 768 q 160 458 160 583 q 202 241 160 333 q 322 99 244 149 q 503 50 399 50 q 692 104 614 50 q 800 258 769 158 l 869 232 z "},"D":{"ha":978,"x_min":144,"x_max":890,"o":"m 433 917 q 772 801 653 917 q 890 465 890 685 q 772 120 890 240 q 433 0 653 0 l 144 0 l 144 917 l 433 917 m 439 64 q 720 167 622 64 q 818 465 818 271 q 720 752 818 651 q 439 853 622 853 l 214 853 l 214 64 l 439 64 z "},"Ð":{"ha":993,"x_min":22,"x_max":907,"o":"m 450 917 q 789 801 671 917 q 907 465 907 685 q 789 120 907 240 q 450 0 671 0 l 161 0 l 161 436 l 22 436 l 22 490 l 161 490 l 161 917 l 450 917 m 457 64 q 737 168 639 64 q 835 465 835 272 q 737 752 835 651 q 457 853 639 853 l 231 853 l 231 490 l 511 490 l 511 436 l 231 436 l 231 64 l 457 64 z "},"Ď":{"ha":978,"x_min":144,"x_max":890,"o":"m 401 1028 l 247 1244 l 313 1244 l 442 1075 l 572 1244 l 636 1244 l 482 1028 l 401 1028 m 433 917 q 772 801 653 917 q 890 465 890 685 q 772 120 890 240 q 433 0 653 0 l 144 0 l 144 917 l 433 917 m 439 64 q 720 167 622 64 q 818 465 818 271 q 720 752 818 651 q 439 853 622 853 l 214 853 l 214 64 l 439 64 z "},"Đ":{"ha":993,"x_min":22,"x_max":907,"o":"m 450 917 q 789 801 671 917 q 907 465 907 685 q 789 120 907 240 q 450 0 671 0 l 161 0 l 161 436 l 22 436 l 22 490 l 161 490 l 161 917 l 450 917 m 457 64 q 737 168 639 64 q 835 465 835 272 q 737 752 835 651 q 457 853 639 853 l 231 853 l 231 490 l 511 490 l 511 436 l 231 436 l 231 64 l 457 64 z "},"E":{"ha":850,"x_min":144,"x_max":793,"o":"m 793 64 l 793 0 l 144 0 l 144 917 l 771 917 l 771 853 l 214 853 l 214 499 l 654 499 l 654 433 l 214 433 l 214 64 l 793 64 z "},"É":{"ha":850,"x_min":144,"x_max":793,"o":"m 476 1032 l 418 1032 l 510 1238 l 590 1238 l 476 1032 m 793 64 l 793 0 l 144 0 l 144 917 l 771 917 l 771 853 l 214 853 l 214 499 l 654 499 l 654 433 l 214 433 l 214 64 l 793 64 z "},"Ě":{"ha":850,"x_min":144,"x_max":793,"o":"m 417 1028 l 263 1244 l 328 1244 l 457 1075 l 588 1244 l 651 1244 l 497 1028 l 417 1028 m 793 64 l 793 0 l 144 0 l 144 917 l 771 917 l 771 853 l 214 853 l 214 499 l 654 499 l 654 433 l 214 433 l 214 64 l 793 64 z "},"Ê":{"ha":850,"x_min":144,"x_max":793,"o":"m 328 1026 l 263 1026 l 417 1243 l 497 1243 l 651 1026 l 588 1026 l 457 1196 l 328 1026 m 793 64 l 793 0 l 144 0 l 144 917 l 771 917 l 771 853 l 214 853 l 214 499 l 654 499 l 654 433 l 214 433 l 214 64 l 793 64 z "},"Ë":{"ha":850,"x_min":144,"x_max":793,"o":"m 793 64 l 793 0 l 144 0 l 144 917 l 771 917 l 771 853 l 214 853 l 214 499 l 654 499 l 654 433 l 214 433 l 214 64 l 793 64 m 325 1154 q 365 1138 350 1154 q 381 1097 381 1122 q 365 1057 381 1072 q 325 1042 350 1042 q 284 1057 300 1042 q 268 1097 268 1072 q 284 1138 268 1122 q 325 1154 300 1154 m 588 1154 q 628 1138 613 1154 q 644 1097 644 1122 q 628 1057 644 1072 q 588 1042 613 1042 q 547 1057 563 1042 q 531 1097 531 1072 q 547 1138 531 1122 q 588 1154 563 1154 z "},"Ė":{"ha":850,"x_min":144,"x_max":793,"o":"m 793 64 l 793 0 l 144 0 l 144 917 l 771 917 l 771 853 l 214 853 l 214 499 l 654 499 l 654 433 l 214 433 l 214 64 l 793 64 m 457 1168 q 499 1152 483 1168 q 515 1110 515 1136 q 499 1067 515 1083 q 457 1051 483 1051 q 415 1067 431 1051 q 399 1110 399 1083 q 415 1152 399 1136 q 457 1168 431 1168 z "},"È":{"ha":850,"x_min":144,"x_max":793,"o":"m 446 1032 l 331 1238 l 413 1238 l 503 1032 l 446 1032 m 793 64 l 793 0 l 144 0 l 144 917 l 771 917 l 771 853 l 214 853 l 214 499 l 654 499 l 654 433 l 214 433 l 214 64 l 793 64 z "},"Ē":{"ha":850,"x_min":144,"x_max":793,"o":"m 793 64 l 793 0 l 144 0 l 144 917 l 771 917 l 771 853 l 214 853 l 214 499 l 654 499 l 654 433 l 214 433 l 214 64 l 793 64 m 679 1056 l 235 1056 l 235 1114 l 679 1114 l 679 1056 z "},"Ę":{"ha":850,"x_min":144,"x_max":810,"o":"m 810 -262 q 701 -290 768 -290 q 597 -258 636 -290 q 557 -167 557 -225 q 591 -70 557 -110 q 700 0 625 -31 l 144 0 l 144 917 l 771 917 l 771 853 l 214 853 l 214 499 l 654 499 l 654 433 l 214 433 l 214 64 l 793 64 l 793 0 l 792 0 q 653 -74 692 -36 q 614 -158 614 -111 q 640 -218 614 -197 q 710 -239 667 -239 q 793 -217 763 -239 l 810 -262 z "},"F":{"ha":811,"x_min":144,"x_max":769,"o":"m 214 853 l 214 499 l 654 499 l 654 433 l 214 433 l 214 0 l 144 0 l 144 917 l 769 917 l 769 853 l 214 853 z "},"G":{"ha":975,"x_min":86,"x_max":874,"o":"m 874 449 l 874 0 l 818 0 l 815 160 q 698 31 778 76 q 500 -14 618 -14 q 281 44 375 -14 q 137 208 188 101 q 86 458 86 315 q 138 708 86 601 q 285 873 190 815 q 504 931 379 931 q 733 875 644 931 q 867 706 822 819 l 803 672 q 695 817 771 768 q 504 867 619 867 q 324 817 401 867 q 203 676 246 768 q 160 458 160 583 q 251 159 160 268 q 503 50 342 50 q 672 90 603 50 q 775 194 742 129 q 808 332 808 258 l 808 383 l 497 383 l 497 449 l 874 449 z "},"Ğ":{"ha":975,"x_min":86,"x_max":874,"o":"m 874 449 l 874 0 l 818 0 l 815 160 q 698 31 778 76 q 500 -14 618 -14 q 281 44 375 -14 q 137 208 188 101 q 86 458 86 315 q 138 708 86 601 q 285 873 190 815 q 504 931 379 931 q 733 875 644 931 q 867 706 822 819 l 803 672 q 695 817 771 768 q 504 867 619 867 q 324 817 401 867 q 203 676 246 768 q 160 458 160 583 q 251 159 160 268 q 503 50 342 50 q 672 90 603 50 q 775 194 742 129 q 808 332 808 258 l 808 383 l 497 383 l 497 449 l 874 449 m 688 1214 q 636 1077 688 1128 q 499 1026 585 1026 q 363 1078 414 1026 q 311 1214 311 1129 l 369 1214 q 406 1117 369 1156 q 499 1079 442 1079 q 593 1117 557 1079 q 629 1214 629 1156 l 688 1214 z "},"H":{"ha":994,"x_min":144,"x_max":850,"o":"m 850 917 l 850 0 l 781 0 l 781 433 l 214 433 l 214 0 l 144 0 l 144 917 l 214 917 l 214 499 l 781 499 l 781 917 l 850 917 z "},"I":{"ha":358,"x_min":144,"x_max":214,"o":"m 214 0 l 144 0 l 144 917 l 214 917 l 214 0 z "},"Ĳ":{"ha":1100,"x_min":144,"x_max":965,"o":"m 214 0 l 144 0 l 144 917 l 214 917 l 214 0 m 965 303 q 889 70 965 154 q 674 -14 813 -14 q 478 51 547 -14 q 408 226 408 115 q 414 292 408 263 l 479 307 q 475 243 475 274 q 672 50 475 50 q 842 118 789 50 q 896 318 896 186 l 896 917 l 965 917 l 965 303 z "},"Í":{"ha":358,"x_min":144,"x_max":319,"o":"m 319 1238 l 204 1032 l 147 1032 l 238 1238 l 319 1238 m 214 0 l 144 0 l 144 917 l 214 917 l 214 0 z "},"Î":{"ha":358,"x_min":-15,"x_max":374,"o":"m 310 1026 l 179 1196 l 50 1026 l -15 1026 l 139 1243 l 219 1243 l 374 1026 l 310 1026 m 214 0 l 144 0 l 144 917 l 214 917 l 214 0 z "},"Ï":{"ha":358,"x_min":21,"x_max":338,"o":"m 76 1154 q 118 1138 103 1154 q 133 1097 133 1122 q 118 1057 133 1072 q 76 1042 103 1042 q 36 1057 51 1042 q 21 1097 21 1072 q 36 1138 21 1122 q 76 1154 51 1154 m 281 1154 q 322 1138 306 1154 q 338 1097 338 1122 q 322 1057 338 1072 q 281 1042 306 1042 q 240 1057 256 1042 q 225 1097 225 1072 q 240 1138 225 1122 q 281 1154 256 1154 m 214 0 l 144 0 l 144 917 l 214 917 l 214 0 z "},"İ":{"ha":358,"x_min":121,"x_max":238,"o":"m 214 0 l 144 0 l 144 917 l 214 917 l 214 0 m 179 1168 q 222 1152 206 1168 q 238 1110 238 1136 q 222 1067 238 1083 q 179 1051 206 1051 q 137 1067 153 1051 q 121 1110 121 1083 q 137 1152 121 1136 q 179 1168 153 1168 z "},"Ì":{"ha":358,"x_min":29,"x_max":214,"o":"m 201 1032 l 144 1032 l 29 1238 l 111 1238 l 201 1032 m 214 0 l 144 0 l 144 917 l 214 917 l 214 0 z "},"Ī":{"ha":358,"x_min":28,"x_max":329,"o":"m 329 1056 l 28 1056 l 28 1114 l 329 1114 l 329 1056 m 214 0 l 144 0 l 144 917 l 214 917 l 214 0 z "},"Į":{"ha":358,"x_min":14,"x_max":258,"o":"m 258 -260 q 154 -290 215 -290 q 53 -256 93 -290 q 14 -164 14 -222 q 144 6 14 -64 l 144 917 l 214 917 l 214 0 l 213 0 q 101 -81 132 -46 q 71 -154 71 -115 q 95 -217 71 -194 q 160 -239 119 -239 q 204 -233 186 -239 q 240 -214 222 -228 l 258 -260 z "},"J":{"ha":742,"x_min":50,"x_max":607,"o":"m 607 303 q 531 70 607 154 q 315 -14 454 -14 q 119 51 189 -14 q 50 226 50 115 q 56 292 50 263 l 121 307 q 117 243 117 274 q 314 50 117 50 q 484 118 431 50 q 538 318 538 186 l 538 917 l 607 917 l 607 303 z "},"K":{"ha":847,"x_min":144,"x_max":818,"o":"m 397 494 l 214 308 l 214 0 l 144 0 l 144 917 l 214 917 l 214 403 l 717 917 l 808 917 l 446 546 l 818 0 l 733 0 l 397 494 z "},"L":{"ha":794,"x_min":144,"x_max":764,"o":"m 764 64 l 764 0 l 144 0 l 144 917 l 214 917 l 214 64 l 764 64 z "},"Ĺ":{"ha":794,"x_min":144,"x_max":764,"o":"m 204 1032 l 147 1032 l 238 1238 l 319 1238 l 204 1032 m 764 64 l 764 0 l 144 0 l 144 917 l 214 917 l 214 64 l 764 64 z "},"Ľ":{"ha":794,"x_min":144,"x_max":764,"o":"m 408 699 l 360 699 l 390 972 l 458 972 l 408 699 m 764 64 l 764 0 l 144 0 l 144 917 l 214 917 l 214 64 l 764 64 z "},"Ŀ":{"ha":822,"x_min":144,"x_max":769,"o":"m 764 64 l 764 0 l 144 0 l 144 917 l 214 917 l 214 64 l 764 64 m 707 533 q 752 516 735 533 q 769 471 769 499 q 752 426 769 443 q 707 408 735 408 q 662 426 679 408 q 644 471 644 443 q 662 516 644 499 q 707 533 679 533 z "},"Ł":{"ha":824,"x_min":31,"x_max":793,"o":"m 793 64 l 793 0 l 174 0 l 174 368 l 31 283 l 31 357 l 174 442 l 174 917 l 243 917 l 243 483 l 508 640 l 508 567 l 243 408 l 243 64 l 793 64 z "},"M":{"ha":1142,"x_min":144,"x_max":997,"o":"m 997 0 l 931 0 l 931 683 l 939 850 l 938 850 l 603 0 l 539 0 l 204 850 l 203 850 l 211 683 l 211 0 l 144 0 l 144 917 l 249 917 l 525 222 l 571 82 l 572 82 l 617 221 l 893 917 l 997 917 l 997 0 z "},"N":{"ha":993,"x_min":144,"x_max":849,"o":"m 849 0 l 763 0 l 276 719 l 208 842 l 207 842 l 211 726 l 211 0 l 144 0 l 144 917 l 232 917 l 717 199 l 786 75 l 783 190 l 783 917 l 849 917 l 849 0 z "},"Ń":{"ha":993,"x_min":144,"x_max":849,"o":"m 644 1238 l 529 1032 l 472 1032 l 563 1238 l 644 1238 m 849 0 l 763 0 l 276 719 l 208 842 l 207 842 l 211 726 l 211 0 l 144 0 l 144 917 l 232 917 l 717 199 l 786 75 l 783 190 l 783 917 l 849 917 l 849 0 z "},"Ň":{"ha":993,"x_min":144,"x_max":849,"o":"m 544 1028 l 464 1028 l 310 1244 l 375 1244 l 504 1075 l 635 1244 l 699 1244 l 544 1028 m 849 0 l 763 0 l 276 719 l 208 842 l 207 842 l 211 726 l 211 0 l 144 0 l 144 917 l 232 917 l 717 199 l 786 75 l 783 190 l 783 917 l 849 917 l 849 0 z "},"Ñ":{"ha":993,"x_min":144,"x_max":849,"o":"m 849 0 l 763 0 l 276 719 l 208 842 l 207 842 l 211 726 l 211 0 l 144 0 l 144 917 l 232 917 l 717 199 l 786 75 l 783 190 l 783 917 l 849 917 l 849 0 m 740 1196 q 697 1081 731 1118 q 603 1043 664 1043 q 540 1056 564 1043 q 486 1096 515 1069 q 447 1127 464 1117 q 406 1138 429 1138 q 351 1115 368 1138 q 324 1042 333 1092 l 268 1042 q 310 1157 278 1119 q 407 1194 343 1194 q 469 1181 444 1194 q 522 1142 493 1168 q 562 1110 544 1121 q 601 1100 579 1100 q 657 1123 639 1100 q 685 1196 675 1146 l 740 1196 z "},"O":{"ha":1017,"x_min":86,"x_max":931,"o":"m 508 931 q 733 873 638 931 q 879 709 828 815 q 931 458 931 603 q 879 208 931 314 q 733 44 828 101 q 508 -14 638 -14 q 284 44 379 -14 q 138 208 189 101 q 86 458 86 314 q 138 709 86 603 q 284 873 189 815 q 508 931 379 931 m 508 867 q 323 817 401 867 q 202 676 244 768 q 160 458 160 583 q 202 241 160 333 q 323 99 244 149 q 508 50 401 50 q 694 99 615 50 q 816 241 774 149 q 858 458 858 333 q 816 676 858 583 q 694 817 774 768 q 508 867 615 867 z "},"Ó":{"ha":1017,"x_min":86,"x_max":931,"o":"m 649 1238 l 533 1032 l 476 1032 l 567 1238 l 649 1238 m 508 931 q 733 873 638 931 q 879 709 828 815 q 931 458 931 603 q 879 208 931 314 q 733 44 828 101 q 508 -14 638 -14 q 284 44 379 -14 q 138 208 189 101 q 86 458 86 314 q 138 709 86 603 q 284 873 189 815 q 508 931 379 931 m 508 867 q 323 817 401 867 q 202 676 244 768 q 160 458 160 583 q 202 241 160 333 q 323 99 244 149 q 508 50 401 50 q 694 99 615 50 q 816 241 774 149 q 858 458 858 333 q 816 676 858 583 q 694 817 774 768 q 508 867 615 867 z "},"Ô":{"ha":1017,"x_min":86,"x_max":931,"o":"m 639 1026 l 508 1196 l 379 1026 l 314 1026 l 468 1243 l 549 1243 l 703 1026 l 639 1026 m 508 931 q 733 873 638 931 q 879 709 828 815 q 931 458 931 603 q 879 208 931 314 q 733 44 828 101 q 508 -14 638 -14 q 284 44 379 -14 q 138 208 189 101 q 86 458 86 314 q 138 709 86 603 q 284 873 189 815 q 508 931 379 931 m 508 867 q 323 817 401 867 q 202 676 244 768 q 160 458 160 583 q 202 241 160 333 q 323 99 244 149 q 508 50 401 50 q 694 99 615 50 q 816 241 774 149 q 858 458 858 333 q 816 676 858 583 q 694 817 774 768 q 508 867 615 867 z "},"Ö":{"ha":1017,"x_min":86,"x_max":931,"o":"m 508 931 q 733 873 638 931 q 879 709 828 815 q 931 458 931 603 q 879 208 931 314 q 733 44 828 101 q 508 -14 638 -14 q 284 44 379 -14 q 138 208 189 101 q 86 458 86 314 q 138 709 86 603 q 284 873 189 815 q 508 931 379 931 m 508 867 q 323 817 401 867 q 202 676 244 768 q 160 458 160 583 q 202 241 160 333 q 323 99 244 149 q 508 50 401 50 q 694 99 615 50 q 816 241 774 149 q 858 458 858 333 q 816 676 858 583 q 694 817 774 768 q 508 867 615 867 m 376 1154 q 417 1138 401 1154 q 432 1097 432 1122 q 417 1057 432 1072 q 376 1042 401 1042 q 335 1057 351 1042 q 319 1097 319 1072 q 335 1138 319 1122 q 376 1154 351 1154 m 639 1154 q 680 1138 664 1154 q 696 1097 696 1122 q 680 1057 696 1072 q 639 1042 664 1042 q 598 1057 614 1042 q 582 1097 582 1072 q 598 1138 582 1122 q 639 1154 614 1154 z "},"Ò":{"ha":1017,"x_min":86,"x_max":931,"o":"m 531 1032 l 474 1032 l 358 1238 l 440 1238 l 531 1032 m 508 931 q 733 873 638 931 q 879 709 828 815 q 931 458 931 603 q 879 208 931 314 q 733 44 828 101 q 508 -14 638 -14 q 284 44 379 -14 q 138 208 189 101 q 86 458 86 314 q 138 709 86 603 q 284 873 189 815 q 508 931 379 931 m 508 867 q 323 817 401 867 q 202 676 244 768 q 160 458 160 583 q 202 241 160 333 q 323 99 244 149 q 508 50 401 50 q 694 99 615 50 q 816 241 774 149 q 858 458 858 333 q 816 676 858 583 q 694 817 774 768 q 508 867 615 867 z "},"Ő":{"ha":1017,"x_min":86,"x_max":931,"o":"m 546 1238 l 432 1032 l 374 1032 l 465 1238 l 546 1238 m 753 1238 l 639 1032 l 581 1032 l 672 1238 l 753 1238 m 508 931 q 733 873 638 931 q 879 709 828 815 q 931 458 931 603 q 879 208 931 314 q 733 44 828 101 q 508 -14 638 -14 q 284 44 379 -14 q 138 208 189 101 q 86 458 86 314 q 138 709 86 603 q 284 873 189 815 q 508 931 379 931 m 508 867 q 323 817 401 867 q 202 676 244 768 q 160 458 160 583 q 202 241 160 333 q 323 99 244 149 q 508 50 401 50 q 694 99 615 50 q 816 241 774 149 q 858 458 858 333 q 816 676 858 583 q 694 817 774 768 q 508 867 615 867 z "},"Ō":{"ha":1017,"x_min":86,"x_max":931,"o":"m 508 931 q 733 873 638 931 q 879 709 828 815 q 931 458 931 603 q 879 208 931 314 q 733 44 828 101 q 508 -14 638 -14 q 284 44 379 -14 q 138 208 189 101 q 86 458 86 314 q 138 709 86 603 q 284 873 189 815 q 508 931 379 931 m 508 867 q 323 817 401 867 q 202 676 244 768 q 160 458 160 583 q 202 241 160 333 q 323 99 244 149 q 508 50 401 50 q 694 99 615 50 q 816 241 774 149 q 858 458 858 333 q 816 676 858 583 q 694 817 774 768 q 508 867 615 867 m 731 1056 l 286 1056 l 286 1114 l 731 1114 l 731 1056 z "},"Ø":{"ha":1017,"x_min":86,"x_max":931,"o":"m 801 819 q 897 665 864 757 q 931 458 931 572 q 879 208 931 314 q 733 44 828 101 q 508 -14 638 -14 q 261 58 363 -14 l 186 -47 l 121 -47 l 219 93 q 121 249 156 156 q 86 458 86 342 q 138 709 86 603 q 284 873 189 815 q 508 931 379 931 q 761 854 657 931 l 831 953 l 897 953 l 801 819 m 160 458 q 185 282 160 360 q 261 151 211 204 l 721 799 q 508 867 633 867 q 323 817 401 867 q 202 676 244 768 q 160 458 160 583 m 508 50 q 694 99 615 50 q 816 241 774 149 q 858 458 858 333 q 833 631 858 554 q 760 761 807 707 l 301 115 q 508 50 389 50 z "},"Õ":{"ha":1017,"x_min":86,"x_max":931,"o":"m 508 931 q 733 873 638 931 q 879 709 828 815 q 931 458 931 603 q 879 208 931 314 q 733 44 828 101 q 508 -14 638 -14 q 284 44 379 -14 q 138 208 189 101 q 86 458 86 314 q 138 709 86 603 q 284 873 189 815 q 508 931 379 931 m 508 867 q 323 817 401 867 q 202 676 244 768 q 160 458 160 583 q 202 241 160 333 q 323 99 244 149 q 508 50 401 50 q 694 99 615 50 q 816 241 774 149 q 858 458 858 333 q 816 676 858 583 q 694 817 774 768 q 508 867 615 867 m 744 1196 q 701 1081 735 1118 q 607 1043 668 1043 q 544 1056 568 1043 q 490 1096 519 1069 q 451 1127 468 1117 q 410 1138 433 1138 q 355 1115 372 1138 q 328 1042 338 1092 l 272 1042 q 315 1157 282 1119 q 411 1194 347 1194 q 473 1181 449 1194 q 526 1142 497 1168 q 566 1110 549 1121 q 606 1100 583 1100 q 661 1123 643 1100 q 689 1196 679 1146 l 744 1196 z "},"Œ":{"ha":1481,"x_min":86,"x_max":1422,"o":"m 1422 64 l 1422 0 l 818 0 l 818 175 q 690 34 772 82 q 494 -14 608 -14 q 278 44 371 -14 q 136 208 186 101 q 86 458 86 314 q 136 709 86 603 q 278 873 186 815 q 497 931 371 931 q 691 883 610 931 q 818 743 772 835 l 818 917 l 1400 917 l 1400 853 l 882 853 l 882 499 l 1290 499 l 1290 433 l 882 433 l 882 64 l 1422 64 m 497 50 q 736 155 654 50 q 818 458 818 260 q 736 762 818 657 q 497 867 654 867 q 317 817 393 867 q 201 676 242 768 q 160 458 160 583 q 201 241 160 333 q 317 99 242 149 q 497 50 393 50 z "},"P":{"ha":815,"x_min":144,"x_max":760,"o":"m 449 917 q 676 845 592 917 q 760 649 760 774 q 676 451 760 524 q 449 379 592 379 l 214 379 l 214 0 l 144 0 l 144 917 l 449 917 m 440 444 q 623 497 560 444 q 686 649 686 550 q 623 799 686 746 q 440 853 560 853 l 214 853 l 214 444 l 440 444 z "},"Þ":{"ha":832,"x_min":144,"x_max":765,"o":"m 433 742 q 682 672 599 742 q 765 469 765 603 q 681 268 765 338 q 433 199 597 199 l 214 199 l 214 0 l 144 0 l 144 917 l 214 917 l 214 742 l 433 742 m 444 263 q 693 469 693 263 q 444 678 693 678 l 214 678 l 214 263 l 444 263 z "},"Q":{"ha":1017,"x_min":86,"x_max":931,"o":"m 744 -201 q 833 -188 792 -201 q 899 -150 874 -175 l 924 -214 q 845 -256 894 -240 q 743 -271 796 -271 q 561 -207 633 -271 q 481 -12 489 -143 q 271 52 360 -7 q 134 215 182 111 q 86 458 86 319 q 138 709 86 603 q 284 873 189 815 q 508 931 379 931 q 733 873 638 931 q 879 709 828 815 q 931 458 931 603 q 883 217 931 321 q 749 54 836 114 q 543 -12 663 -6 q 744 -201 558 -201 m 160 458 q 202 241 160 333 q 323 99 244 149 q 508 50 401 50 q 694 99 615 50 q 816 241 774 149 q 858 458 858 333 q 816 676 858 583 q 694 817 774 768 q 508 867 615 867 q 323 817 401 867 q 202 676 244 768 q 160 458 160 583 z "},"R":{"ha":889,"x_min":144,"x_max":833,"o":"m 751 0 l 489 397 l 485 397 l 214 397 l 214 0 l 144 0 l 144 917 l 485 917 q 703 847 622 917 q 785 657 785 778 q 726 491 785 557 q 567 406 668 425 l 833 0 l 751 0 m 214 463 l 483 463 q 653 513 594 463 q 713 657 713 563 q 653 802 713 751 q 483 853 594 853 l 214 853 l 214 463 z "},"Ŕ":{"ha":889,"x_min":144,"x_max":833,"o":"m 454 1032 l 397 1032 l 488 1238 l 569 1238 l 454 1032 m 751 0 l 489 397 l 485 397 l 214 397 l 214 0 l 144 0 l 144 917 l 485 917 q 703 847 622 917 q 785 657 785 778 q 726 491 785 557 q 567 406 668 425 l 833 0 l 751 0 m 214 463 l 483 463 q 653 513 594 463 q 713 657 713 563 q 653 802 713 751 q 483 853 594 853 l 214 853 l 214 463 z "},"Ř":{"ha":889,"x_min":144,"x_max":833,"o":"m 388 1028 l 233 1244 l 299 1244 l 428 1075 l 558 1244 l 622 1244 l 468 1028 l 388 1028 m 751 0 l 489 397 l 485 397 l 214 397 l 214 0 l 144 0 l 144 917 l 485 917 q 703 847 622 917 q 785 657 785 778 q 726 491 785 557 q 567 406 668 425 l 833 0 l 751 0 m 214 463 l 483 463 q 653 513 594 463 q 713 657 713 563 q 653 802 713 751 q 483 853 594 853 l 214 853 l 214 463 z "},"S":{"ha":860,"x_min":63,"x_max":786,"o":"m 428 931 q 774 728 686 931 l 714 679 q 610 822 679 778 q 429 867 542 867 q 289 842 349 867 q 198 774 229 817 q 167 676 167 731 q 193 589 167 624 q 283 530 219 554 q 457 486 346 506 q 711 397 636 456 q 786 236 786 339 q 743 106 786 163 q 622 17 700 49 q 442 -14 543 -14 q 198 44 297 -14 q 63 206 99 101 l 124 253 q 235 102 151 154 q 443 50 319 50 q 638 99 563 50 q 714 232 714 147 q 652 349 714 306 q 438 418 590 392 q 233 472 308 440 q 126 551 158 504 q 93 669 93 599 q 134 800 93 740 q 251 895 175 860 q 428 931 326 931 z "},"Ś":{"ha":860,"x_min":63,"x_max":786,"o":"m 571 1238 l 456 1032 l 399 1032 l 489 1238 l 571 1238 m 428 931 q 774 728 686 931 l 714 679 q 610 822 679 778 q 429 867 542 867 q 289 842 349 867 q 198 774 229 817 q 167 676 167 731 q 193 589 167 624 q 283 530 219 554 q 457 486 346 506 q 711 397 636 456 q 786 236 786 339 q 743 106 786 163 q 622 17 700 49 q 442 -14 543 -14 q 198 44 297 -14 q 63 206 99 101 l 124 253 q 235 102 151 154 q 443 50 319 50 q 638 99 563 50 q 714 232 714 147 q 652 349 714 306 q 438 418 590 392 q 233 472 308 440 q 126 551 158 504 q 93 669 93 599 q 134 800 93 740 q 251 895 175 860 q 428 931 326 931 z "},"Š":{"ha":860,"x_min":63,"x_max":786,"o":"m 469 1028 l 389 1028 l 235 1244 l 300 1244 l 429 1075 l 560 1244 l 624 1244 l 469 1028 m 428 931 q 774 728 686 931 l 714 679 q 610 822 679 778 q 429 867 542 867 q 289 842 349 867 q 198 774 229 817 q 167 676 167 731 q 193 589 167 624 q 283 530 219 554 q 457 486 346 506 q 711 397 636 456 q 786 236 786 339 q 743 106 786 163 q 622 17 700 49 q 442 -14 543 -14 q 198 44 297 -14 q 63 206 99 101 l 124 253 q 235 102 151 154 q 443 50 319 50 q 638 99 563 50 q 714 232 714 147 q 652 349 714 306 q 438 418 590 392 q 233 472 308 440 q 126 551 158 504 q 93 669 93 599 q 134 800 93 740 q 251 895 175 860 q 428 931 326 931 z "},"ẞ":{"ha":926,"x_min":144,"x_max":868,"o":"m 585 497 q 794 435 721 497 q 868 254 868 374 q 833 117 868 176 q 736 26 799 58 q 593 -7 674 -7 q 454 18 515 -7 q 369 79 393 43 l 401 131 q 476 76 426 97 q 588 56 525 56 q 738 110 681 56 q 796 254 796 165 q 736 391 796 344 q 561 438 676 438 l 444 438 l 444 497 l 732 853 l 446 853 q 278 786 343 853 q 214 614 214 719 l 214 0 l 144 0 l 144 615 q 182 773 144 704 q 288 879 219 842 q 446 917 357 917 l 814 917 l 814 851 l 519 497 l 585 497 z "},"T":{"ha":800,"x_min":31,"x_max":769,"o":"m 769 853 l 435 853 l 435 0 l 365 0 l 365 853 l 31 853 l 31 917 l 769 917 l 769 853 z "},"Ť":{"ha":800,"x_min":31,"x_max":769,"o":"m 360 1028 l 206 1244 l 271 1244 l 400 1075 l 531 1244 l 594 1244 l 440 1028 l 360 1028 m 769 853 l 435 853 l 435 0 l 365 0 l 365 853 l 31 853 l 31 917 l 769 917 l 769 853 z "},"U":{"ha":974,"x_min":133,"x_max":840,"o":"m 840 335 q 749 76 840 165 q 488 -14 657 -14 q 226 76 318 -14 q 133 335 133 165 l 133 917 l 203 917 l 203 349 q 275 126 203 201 q 488 50 347 50 q 699 126 626 50 q 771 349 771 201 l 771 917 l 840 917 l 840 335 z "},"Ú":{"ha":974,"x_min":133,"x_max":840,"o":"m 628 1238 l 513 1032 l 456 1032 l 546 1238 l 628 1238 m 840 335 q 749 76 840 165 q 488 -14 657 -14 q 226 76 318 -14 q 133 335 133 165 l 133 917 l 203 917 l 203 349 q 275 126 203 201 q 488 50 347 50 q 699 126 626 50 q 771 349 771 201 l 771 917 l 840 917 l 840 335 z "},"Û":{"ha":974,"x_min":133,"x_max":840,"o":"m 618 1026 l 488 1196 l 358 1026 l 293 1026 l 447 1243 l 528 1243 l 682 1026 l 618 1026 m 840 335 q 749 76 840 165 q 488 -14 657 -14 q 226 76 318 -14 q 133 335 133 165 l 133 917 l 203 917 l 203 349 q 275 126 203 201 q 488 50 347 50 q 699 126 626 50 q 771 349 771 201 l 771 917 l 840 917 l 840 335 z "},"Ü":{"ha":974,"x_min":133,"x_max":840,"o":"m 840 335 q 749 76 840 165 q 488 -14 657 -14 q 226 76 318 -14 q 133 335 133 165 l 133 917 l 203 917 l 203 349 q 275 126 203 201 q 488 50 347 50 q 699 126 626 50 q 771 349 771 201 l 771 917 l 840 917 l 840 335 m 356 1154 q 396 1138 381 1154 q 411 1097 411 1122 q 396 1057 411 1072 q 356 1042 381 1042 q 315 1057 331 1042 q 299 1097 299 1072 q 315 1138 299 1122 q 356 1154 331 1154 m 618 1154 q 659 1138 643 1154 q 675 1097 675 1122 q 659 1057 675 1072 q 618 1042 643 1042 q 577 1057 593 1042 q 561 1097 561 1072 q 577 1138 561 1122 q 618 1154 593 1154 z "},"Ù":{"ha":974,"x_min":133,"x_max":840,"o":"m 522 1032 l 465 1032 l 350 1238 l 432 1238 l 522 1032 m 840 335 q 749 76 840 165 q 488 -14 657 -14 q 226 76 318 -14 q 133 335 133 165 l 133 917 l 203 917 l 203 349 q 275 126 203 201 q 488 50 347 50 q 699 126 626 50 q 771 349 771 201 l 771 917 l 840 917 l 840 335 z "},"Ű":{"ha":974,"x_min":133,"x_max":840,"o":"m 517 1239 l 403 1033 l 344 1033 l 436 1239 l 517 1239 m 721 1238 l 607 1032 l 549 1032 l 640 1238 l 721 1238 m 840 335 q 749 76 840 165 q 488 -14 657 -14 q 226 76 318 -14 q 133 335 133 165 l 133 917 l 203 917 l 203 349 q 275 126 203 201 q 488 50 347 50 q 699 126 626 50 q 771 349 771 201 l 771 917 l 840 917 l 840 335 z "},"Ū":{"ha":974,"x_min":133,"x_max":840,"o":"m 840 335 q 749 76 840 165 q 488 -14 657 -14 q 226 76 318 -14 q 133 335 133 165 l 133 917 l 203 917 l 203 349 q 275 126 203 201 q 488 50 347 50 q 699 126 626 50 q 771 349 771 201 l 771 917 l 840 917 l 840 335 m 710 1056 l 265 1056 l 265 1114 l 710 1114 l 710 1056 z "},"Ų":{"ha":974,"x_min":133,"x_max":840,"o":"m 840 917 l 840 335 q 778 110 840 196 q 597 -3 715 24 q 483 -79 517 -42 q 449 -158 449 -117 q 475 -218 449 -197 q 543 -239 501 -239 q 629 -217 599 -239 l 646 -264 q 536 -290 603 -290 q 431 -257 472 -290 q 390 -167 390 -224 q 415 -83 390 -119 q 490 -14 439 -47 l 488 -14 q 226 76 318 -14 q 133 335 133 165 l 133 917 l 203 917 l 203 349 q 275 126 203 201 q 488 50 347 50 q 699 126 626 50 q 771 349 771 201 l 771 917 l 840 917 z "},"Ů":{"ha":974,"x_min":133,"x_max":840,"o":"m 840 335 q 749 76 840 165 q 488 -14 657 -14 q 226 76 318 -14 q 133 335 133 165 l 133 917 l 203 917 l 203 349 q 275 126 203 201 q 488 50 347 50 q 699 126 626 50 q 771 349 771 201 l 771 917 l 840 917 l 840 335 m 488 1183 q 592 1144 551 1183 q 633 1044 633 1106 q 592 944 633 983 q 488 904 551 904 q 383 944 424 904 q 342 1044 342 983 q 383 1144 342 1106 q 488 1183 424 1183 m 488 1138 q 420 1111 447 1138 q 393 1044 393 1085 q 420 977 393 1004 q 488 950 447 950 q 556 977 529 950 q 583 1044 583 1004 q 556 1111 583 1085 q 488 1138 529 1138 z "},"V":{"ha":853,"x_min":32,"x_max":821,"o":"m 468 0 l 386 0 l 32 917 l 107 917 l 378 207 l 426 65 l 475 207 l 747 917 l 821 917 l 468 0 z "},"W":{"ha":1301,"x_min":42,"x_max":1260,"o":"m 414 0 l 328 0 l 42 917 l 117 917 l 371 57 l 611 917 l 692 917 l 932 56 l 1189 917 l 1260 917 l 974 0 l 888 0 l 703 643 l 651 842 l 650 842 l 599 643 l 414 0 z "},"X":{"ha":786,"x_min":26,"x_max":751,"o":"m 669 0 l 390 415 l 108 0 l 26 0 l 354 471 l 54 917 l 138 917 l 399 528 l 663 917 l 740 917 l 436 472 l 751 0 l 669 0 z "},"Y":{"ha":756,"x_min":18,"x_max":738,"o":"m 413 357 l 413 0 l 343 0 l 343 357 l 18 917 l 100 917 l 378 429 l 656 917 l 738 917 l 413 357 z "},"Ý":{"ha":756,"x_min":18,"x_max":738,"o":"m 518 1238 l 403 1032 l 346 1032 l 436 1238 l 518 1238 m 413 357 l 413 0 l 343 0 l 343 357 l 18 917 l 100 917 l 378 429 l 656 917 l 738 917 l 413 357 z "},"Ÿ":{"ha":756,"x_min":18,"x_max":738,"o":"m 413 357 l 413 0 l 343 0 l 343 357 l 18 917 l 100 917 l 378 429 l 656 917 l 738 917 l 413 357 m 246 1154 q 286 1138 271 1154 q 301 1097 301 1122 q 286 1057 301 1072 q 246 1042 271 1042 q 205 1057 221 1042 q 189 1097 189 1072 q 205 1138 189 1122 q 246 1154 221 1154 m 508 1154 q 549 1138 533 1154 q 565 1097 565 1122 q 549 1057 565 1072 q 508 1042 533 1042 q 467 1057 483 1042 q 451 1097 451 1072 q 467 1138 451 1122 q 508 1154 483 1154 z "},"Z":{"ha":824,"x_min":60,"x_max":768,"o":"m 768 64 l 768 0 l 60 0 l 60 61 l 664 853 l 72 853 l 72 917 l 746 917 l 746 856 l 142 64 l 768 64 z "},"Ź":{"ha":824,"x_min":60,"x_max":768,"o":"m 432 1032 l 375 1032 l 465 1238 l 547 1238 l 432 1032 m 768 64 l 768 0 l 60 0 l 60 61 l 664 853 l 72 853 l 72 917 l 746 917 l 746 856 l 142 64 l 768 64 z "},"Ž":{"ha":824,"x_min":60,"x_max":768,"o":"m 365 1028 l 211 1244 l 276 1244 l 406 1075 l 536 1244 l 600 1244 l 446 1028 l 365 1028 m 768 64 l 768 0 l 60 0 l 60 61 l 664 853 l 72 853 l 72 917 l 746 917 l 746 856 l 142 64 l 768 64 z "},"Ż":{"ha":824,"x_min":60,"x_max":768,"o":"m 768 64 l 768 0 l 60 0 l 60 61 l 664 853 l 72 853 l 72 917 l 746 917 l 746 856 l 142 64 l 768 64 m 407 1168 q 449 1152 433 1168 q 465 1110 465 1136 q 449 1067 465 1083 q 407 1051 433 1051 q 365 1067 381 1051 q 349 1110 349 1083 q 365 1152 349 1136 q 407 1168 381 1168 z "},"Ģ":{"ha":975,"x_min":86,"x_max":874,"o":"m 874 449 l 874 0 l 818 0 l 815 160 q 698 31 778 76 q 500 -14 618 -14 q 281 44 375 -14 q 137 208 188 101 q 86 458 86 315 q 138 708 86 601 q 285 873 190 815 q 504 931 379 931 q 733 875 644 931 q 867 706 822 819 l 803 672 q 695 817 771 768 q 504 867 619 867 q 324 817 401 867 q 203 676 246 768 q 160 458 160 583 q 251 159 160 268 q 503 50 342 50 q 672 90 603 50 q 775 194 742 129 q 808 332 808 258 l 808 383 l 497 383 l 497 449 l 874 449 m 471 -324 l 415 -324 l 481 -100 l 554 -100 l 471 -324 z "},"Ķ":{"ha":847,"x_min":144,"x_max":818,"o":"m 397 494 l 214 308 l 214 0 l 144 0 l 144 917 l 214 917 l 214 403 l 717 917 l 808 917 l 446 546 l 818 0 l 733 0 l 397 494 m 426 -324 l 371 -324 l 436 -100 l 510 -100 l 426 -324 z "},"Ļ":{"ha":794,"x_min":144,"x_max":764,"o":"m 764 64 l 764 0 l 144 0 l 144 917 l 214 917 l 214 64 l 764 64 m 426 -324 l 371 -324 l 436 -100 l 510 -100 l 426 -324 z "},"Ņ":{"ha":993,"x_min":144,"x_max":849,"o":"m 849 0 l 763 0 l 276 719 l 208 842 l 207 842 l 211 726 l 211 0 l 144 0 l 144 917 l 232 917 l 717 199 l 786 75 l 783 190 l 783 917 l 849 917 l 849 0 m 463 -324 l 407 -324 l 472 -100 l 546 -100 l 463 -324 z "},"Ŗ":{"ha":889,"x_min":144,"x_max":833,"o":"m 751 0 l 489 397 l 485 397 l 214 397 l 214 0 l 144 0 l 144 917 l 485 917 q 703 847 622 917 q 785 657 785 778 q 726 491 785 557 q 567 406 668 425 l 833 0 l 751 0 m 214 463 l 483 463 q 653 513 594 463 q 713 657 713 563 q 653 802 713 751 q 483 853 594 853 l 214 853 l 214 463 m 438 -324 l 382 -324 l 447 -100 l 521 -100 l 438 -324 z "},"Ş":{"ha":860,"x_min":63,"x_max":786,"o":"m 786 236 q 703 65 786 132 q 483 -12 621 -3 q 572 -157 572 -69 q 533 -252 572 -214 q 429 -290 494 -290 q 348 -278 382 -290 q 286 -237 314 -265 l 314 -189 q 421 -237 354 -237 q 485 -213 460 -237 q 511 -149 511 -189 q 487 -78 511 -108 q 396 -12 463 -49 q 182 53 268 -3 q 63 206 96 110 l 124 253 q 235 102 151 154 q 443 50 319 50 q 638 99 563 50 q 714 232 714 147 q 652 349 714 306 q 438 418 590 392 q 233 472 308 440 q 126 551 158 504 q 93 669 93 599 q 134 800 93 740 q 251 895 175 860 q 428 931 326 931 q 774 728 686 931 l 714 679 q 610 822 679 778 q 429 867 542 867 q 289 842 349 867 q 198 774 229 817 q 167 676 167 731 q 193 589 167 624 q 283 530 219 554 q 457 486 346 506 q 711 397 636 456 q 786 236 786 339 z "},"Ţ":{"ha":800,"x_min":31,"x_max":769,"o":"m 435 853 l 435 8 q 516 -67 490 -28 q 542 -157 542 -107 q 501 -252 542 -214 q 397 -290 461 -290 q 256 -236 307 -290 l 283 -189 q 389 -237 325 -237 q 454 -212 429 -237 q 479 -147 479 -187 q 453 -73 479 -104 q 365 0 428 -42 l 365 853 l 31 853 l 31 917 l 769 917 l 769 853 l 435 853 z "},"Ș":{"ha":860,"x_min":63,"x_max":786,"o":"m 428 931 q 774 728 686 931 l 714 679 q 610 822 679 778 q 429 867 542 867 q 289 842 349 867 q 198 774 229 817 q 167 676 167 731 q 193 589 167 624 q 283 530 219 554 q 457 486 346 506 q 711 397 636 456 q 786 236 786 339 q 743 106 786 163 q 622 17 700 49 q 442 -14 543 -14 q 198 44 297 -14 q 63 206 99 101 l 124 253 q 235 102 151 154 q 443 50 319 50 q 638 99 563 50 q 714 232 714 147 q 652 349 714 306 q 438 418 590 392 q 233 472 308 440 q 126 551 158 504 q 93 669 93 599 q 134 800 93 740 q 251 895 175 860 q 428 931 326 931 m 411 -324 l 356 -324 l 421 -100 l 494 -100 l 411 -324 z "},"Ț":{"ha":800,"x_min":31,"x_max":769,"o":"m 769 853 l 435 853 l 435 0 l 365 0 l 365 853 l 31 853 l 31 917 l 769 917 l 769 853 m 358 -324 l 303 -324 l 368 -100 l 442 -100 l 358 -324 z "},"a":{"ha":754,"x_min":72,"x_max":736,"o":"m 682 46 q 736 56 717 46 l 732 0 q 664 -14 707 -14 q 585 13 615 -14 q 550 104 554 39 q 447 17 518 49 q 299 -14 376 -14 q 134 32 196 -14 q 72 163 72 78 q 336 371 72 324 l 549 408 l 549 469 q 499 600 549 553 q 360 647 450 647 q 138 500 194 647 l 85 539 q 186 665 115 621 q 360 708 257 708 q 549 649 481 708 q 618 478 618 590 l 618 119 q 682 46 618 46 m 306 47 q 419 67 364 47 q 512 127 475 88 q 549 222 549 167 l 549 351 l 358 317 q 194 258 246 296 q 143 163 143 221 q 186 77 143 107 q 306 47 229 47 z "},"á":{"ha":754,"x_min":72,"x_max":736,"o":"m 682 46 q 736 56 717 46 l 732 0 q 664 -14 707 -14 q 585 13 615 -14 q 550 104 554 39 q 447 17 518 49 q 299 -14 376 -14 q 134 32 196 -14 q 72 163 72 78 q 336 371 72 324 l 549 408 l 549 469 q 499 600 549 553 q 360 647 450 647 q 138 500 194 647 l 85 539 q 186 665 115 621 q 360 708 257 708 q 549 649 481 708 q 618 478 618 590 l 618 119 q 682 46 618 46 m 306 47 q 419 67 364 47 q 512 127 475 88 q 549 222 549 167 l 549 351 l 358 317 q 194 258 246 296 q 143 163 143 221 q 186 77 143 107 q 306 47 229 47 m 508 1029 l 378 810 l 321 810 l 432 1029 l 508 1029 z "},"ă":{"ha":754,"x_min":72,"x_max":736,"o":"m 682 46 q 736 56 717 46 l 732 0 q 664 -14 707 -14 q 585 13 615 -14 q 550 104 554 39 q 447 17 518 49 q 299 -14 376 -14 q 134 32 196 -14 q 72 163 72 78 q 336 371 72 324 l 549 408 l 549 469 q 499 600 549 553 q 360 647 450 647 q 138 500 194 647 l 85 539 q 186 665 115 621 q 360 708 257 708 q 549 649 481 708 q 618 478 618 590 l 618 119 q 682 46 618 46 m 306 47 q 419 67 364 47 q 512 127 475 88 q 549 222 549 167 l 549 351 l 358 317 q 194 258 246 296 q 143 163 143 221 q 186 77 143 107 q 306 47 229 47 m 550 992 q 499 855 550 906 q 361 804 447 804 q 225 856 276 804 q 174 992 174 907 l 232 992 q 268 895 232 933 q 361 857 304 857 q 456 895 419 857 q 492 992 492 933 l 550 992 z "},"â":{"ha":754,"x_min":72,"x_max":736,"o":"m 682 46 q 736 56 717 46 l 732 0 q 664 -14 707 -14 q 585 13 615 -14 q 550 104 554 39 q 447 17 518 49 q 299 -14 376 -14 q 134 32 196 -14 q 72 163 72 78 q 336 371 72 324 l 549 408 l 549 469 q 499 600 549 553 q 360 647 450 647 q 138 500 194 647 l 85 539 q 186 665 115 621 q 360 708 257 708 q 549 649 481 708 q 618 478 618 590 l 618 119 q 682 46 618 46 m 306 47 q 419 67 364 47 q 512 127 475 88 q 549 222 549 167 l 549 351 l 358 317 q 194 258 246 296 q 143 163 143 221 q 186 77 143 107 q 306 47 229 47 m 489 804 l 361 971 l 233 804 l 168 804 l 321 1021 l 400 1021 l 554 804 l 489 804 z "},"ä":{"ha":754,"x_min":72,"x_max":736,"o":"m 682 46 q 736 56 717 46 l 732 0 q 664 -14 707 -14 q 585 13 615 -14 q 550 104 554 39 q 447 17 518 49 q 299 -14 376 -14 q 134 32 196 -14 q 72 163 72 78 q 336 371 72 324 l 549 408 l 549 469 q 499 600 549 553 q 360 647 450 647 q 138 500 194 647 l 85 539 q 186 665 115 621 q 360 708 257 708 q 549 649 481 708 q 618 478 618 590 l 618 119 q 682 46 618 46 m 306 47 q 419 67 364 47 q 512 127 475 88 q 549 222 549 167 l 549 351 l 358 317 q 194 258 246 296 q 143 163 143 221 q 186 77 143 107 q 306 47 229 47 m 229 932 q 269 916 254 932 q 285 875 285 900 q 269 835 285 850 q 229 819 254 819 q 188 835 204 819 q 172 875 172 850 q 188 916 172 900 q 229 932 204 932 m 492 932 q 533 916 517 932 q 549 875 549 900 q 533 835 549 850 q 492 819 517 819 q 451 835 467 819 q 435 875 435 850 q 451 916 435 900 q 492 932 467 932 z "},"à":{"ha":754,"x_min":72,"x_max":736,"o":"m 682 46 q 736 56 717 46 l 732 0 q 664 -14 707 -14 q 585 13 615 -14 q 550 104 554 39 q 447 17 518 49 q 299 -14 376 -14 q 134 32 196 -14 q 72 163 72 78 q 336 371 72 324 l 549 408 l 549 469 q 499 600 549 553 q 360 647 450 647 q 138 500 194 647 l 85 539 q 186 665 115 621 q 360 708 257 708 q 549 649 481 708 q 618 478 618 590 l 618 119 q 682 46 618 46 m 306 47 q 419 67 364 47 q 512 127 475 88 q 549 222 549 167 l 549 351 l 358 317 q 194 258 246 296 q 143 163 143 221 q 186 77 143 107 q 306 47 229 47 m 400 810 l 342 810 l 213 1029 l 288 1029 l 400 810 z "},"ā":{"ha":754,"x_min":72,"x_max":736,"o":"m 682 46 q 736 56 717 46 l 732 0 q 664 -14 707 -14 q 585 13 615 -14 q 550 104 554 39 q 447 17 518 49 q 299 -14 376 -14 q 134 32 196 -14 q 72 163 72 78 q 336 371 72 324 l 549 408 l 549 469 q 499 600 549 553 q 360 647 450 647 q 138 500 194 647 l 85 539 q 186 665 115 621 q 360 708 257 708 q 549 649 481 708 q 618 478 618 590 l 618 119 q 682 46 618 46 m 306 47 q 419 67 364 47 q 512 127 475 88 q 549 222 549 167 l 549 351 l 358 317 q 194 258 246 296 q 143 163 143 221 q 186 77 143 107 q 306 47 229 47 m 583 833 l 139 833 l 139 892 l 583 892 l 583 833 z "},"ą":{"ha":754,"x_min":72,"x_max":736,"o":"m 639 -239 q 721 -219 694 -239 l 736 -265 q 635 -290 699 -290 q 531 -258 571 -290 q 490 -169 490 -225 q 524 -77 490 -117 q 625 -6 557 -37 q 550 106 561 21 q 449 18 519 50 q 299 -14 378 -14 q 134 32 196 -14 q 72 163 72 78 q 336 371 72 324 l 549 408 l 549 469 q 499 600 549 553 q 360 647 450 647 q 138 500 197 647 l 85 539 q 186 665 115 621 q 360 708 257 708 q 549 649 481 708 q 618 478 618 590 l 618 119 q 682 46 618 46 q 736 56 717 46 l 732 0 q 590 -74 632 -37 q 549 -160 549 -111 q 573 -218 549 -197 q 639 -239 597 -239 m 306 47 q 419 67 364 47 q 512 127 475 88 q 549 222 549 167 l 549 351 l 358 317 q 194 258 246 294 q 143 163 143 221 q 186 77 143 107 q 306 47 229 47 z "},"å":{"ha":754,"x_min":72,"x_max":736,"o":"m 682 46 q 736 56 717 46 l 732 0 q 664 -14 707 -14 q 585 13 615 -14 q 550 104 554 39 q 447 17 518 49 q 299 -14 376 -14 q 134 32 196 -14 q 72 163 72 78 q 336 371 72 324 l 549 408 l 549 469 q 499 600 549 553 q 360 647 450 647 q 138 500 194 647 l 85 539 q 186 665 115 621 q 360 708 257 708 q 549 649 481 708 q 618 478 618 590 l 618 119 q 682 46 618 46 m 306 47 q 419 67 364 47 q 512 127 475 88 q 549 222 549 167 l 549 351 l 358 317 q 194 258 246 296 q 143 163 143 221 q 186 77 143 107 q 306 47 229 47 m 357 1078 q 462 1039 421 1078 q 503 939 503 1000 q 462 838 503 878 q 357 799 421 799 q 252 838 293 799 q 211 939 211 878 q 252 1039 211 1000 q 357 1078 293 1078 m 357 1032 q 290 1006 317 1032 q 263 939 263 979 q 290 872 263 899 q 357 844 317 844 q 426 872 399 844 q 453 939 453 899 q 426 1006 453 979 q 357 1032 399 1032 z "},"ã":{"ha":754,"x_min":72,"x_max":736,"o":"m 682 46 q 736 56 717 46 l 732 0 q 664 -14 707 -14 q 585 13 615 -14 q 550 104 554 39 q 447 17 518 49 q 299 -14 376 -14 q 134 32 196 -14 q 72 163 72 78 q 336 371 72 324 l 549 408 l 549 469 q 499 600 549 553 q 360 647 450 647 q 138 500 194 647 l 85 539 q 186 665 115 621 q 360 708 257 708 q 549 649 481 708 q 618 478 618 590 l 618 119 q 682 46 618 46 m 306 47 q 419 67 364 47 q 512 127 475 88 q 549 222 549 167 l 549 351 l 358 317 q 194 258 246 296 q 143 163 143 221 q 186 77 143 107 q 306 47 229 47 m 597 974 q 554 858 588 896 q 460 821 521 821 q 397 834 421 821 q 343 874 372 847 q 303 905 321 894 q 263 915 286 915 q 208 892 225 915 q 181 819 190 869 l 125 819 q 167 935 135 897 q 264 972 200 972 q 326 959 301 972 q 379 919 350 946 q 419 888 401 899 q 458 878 436 878 q 514 901 496 878 q 542 974 532 924 l 597 974 z "},"æ":{"ha":1217,"x_min":72,"x_max":1142,"o":"m 1142 375 q 1139 329 1142 354 l 617 329 q 686 123 621 199 q 857 47 751 47 q 993 79 942 47 q 1071 175 1044 111 l 1128 144 q 1025 26 1089 67 q 857 -14 961 -14 q 687 35 757 -14 q 585 181 617 85 q 481 35 563 83 q 294 -14 400 -14 q 133 33 193 -14 q 72 163 72 79 q 136 298 72 244 q 329 367 200 351 l 554 392 l 554 468 q 503 600 554 553 q 360 647 453 647 q 138 500 197 647 l 85 539 q 187 665 115 622 q 361 708 258 708 q 516 667 454 708 q 601 547 578 626 q 701 666 638 624 q 851 708 765 708 q 1067 619 993 708 q 1142 375 1142 531 m 851 647 q 690 580 753 647 q 618 392 628 513 l 1076 392 q 851 647 1061 647 m 307 47 q 424 71 367 47 q 517 144 481 94 q 554 268 554 194 l 554 338 l 351 311 q 192 261 242 299 q 143 163 143 224 q 188 76 143 106 q 307 47 232 47 z "},"b":{"ha":846,"x_min":124,"x_max":767,"o":"m 449 708 q 681 613 596 708 q 767 347 767 517 q 681 82 767 178 q 449 -14 596 -14 q 288 31 356 -14 q 190 156 219 76 l 186 0 l 124 0 l 124 1014 l 193 1014 l 193 547 q 292 665 225 622 q 449 708 360 708 m 440 47 q 629 127 561 47 q 697 347 697 207 q 629 567 697 488 q 440 647 561 647 q 265 574 332 647 q 193 372 199 500 l 193 322 q 265 121 199 194 q 440 47 332 47 z "},"c":{"ha":757,"x_min":79,"x_max":694,"o":"m 407 708 q 584 659 511 708 q 689 521 657 610 l 624 490 q 544 607 600 567 q 406 647 489 647 q 217 567 285 647 q 149 347 149 488 q 216 126 149 206 q 404 47 283 47 q 555 91 493 47 q 631 213 617 135 l 694 190 q 590 41 667 96 q 406 -14 513 -14 q 165 82 251 -14 q 79 347 79 178 q 166 613 79 517 q 407 708 253 708 z "},"ć":{"ha":757,"x_min":79,"x_max":694,"o":"m 407 708 q 584 659 511 708 q 689 521 657 610 l 624 490 q 544 607 600 567 q 406 647 489 647 q 217 567 285 647 q 149 347 149 488 q 216 126 149 206 q 404 47 283 47 q 555 91 493 47 q 631 213 617 135 l 694 190 q 590 41 667 96 q 406 -14 513 -14 q 165 82 251 -14 q 79 347 79 178 q 166 613 79 517 q 407 708 253 708 m 544 1029 l 414 810 l 357 810 l 468 1029 l 544 1029 z "},"č":{"ha":757,"x_min":79,"x_max":694,"o":"m 407 708 q 584 659 511 708 q 689 521 657 610 l 624 490 q 544 607 600 567 q 406 647 489 647 q 217 567 285 647 q 149 347 149 488 q 216 126 149 206 q 404 47 283 47 q 555 91 493 47 q 631 213 617 135 l 694 190 q 590 41 667 96 q 406 -14 513 -14 q 165 82 251 -14 q 79 347 79 178 q 166 613 79 517 q 407 708 253 708 m 438 810 l 357 810 l 204 1025 l 269 1025 l 397 860 l 525 1025 l 590 1025 l 438 810 z "},"ç":{"ha":757,"x_min":79,"x_max":694,"o":"m 694 190 q 603 51 669 104 q 443 -12 538 -3 q 533 -157 533 -71 q 494 -252 533 -214 q 390 -290 456 -290 q 309 -278 343 -290 q 247 -237 275 -265 l 275 -189 q 382 -237 315 -237 q 447 -213 421 -237 q 472 -149 472 -189 q 447 -77 472 -108 q 356 -11 422 -46 q 152 99 225 4 q 79 347 79 193 q 166 613 79 517 q 407 708 253 708 q 584 659 511 708 q 689 521 657 610 l 624 490 q 544 607 600 567 q 406 647 489 647 q 217 567 285 647 q 149 347 149 488 q 216 126 149 206 q 404 47 283 47 q 555 91 493 47 q 631 213 617 135 l 694 190 z "},"d":{"ha":846,"x_min":79,"x_max":722,"o":"m 722 1014 l 722 0 l 660 0 l 656 156 q 558 31 626 76 q 397 -14 490 -14 q 165 82 250 -14 q 79 347 79 178 q 165 613 79 517 q 397 708 250 708 q 554 665 488 708 q 653 547 621 622 l 653 1014 l 722 1014 m 406 47 q 581 120 514 47 q 653 318 647 193 l 653 376 q 580 574 646 501 q 406 647 514 647 q 217 567 285 647 q 149 347 149 488 q 217 127 149 207 q 406 47 285 47 z "},"ð":{"ha":833,"x_min":79,"x_max":747,"o":"m 606 849 q 736 397 736 676 q 651 94 736 201 q 407 -14 567 -14 q 167 78 256 -14 q 79 331 79 171 q 120 513 79 435 q 234 632 161 590 q 400 674 307 674 q 563 637 496 674 q 667 532 631 600 q 544 835 640 717 l 294 776 l 285 821 l 514 869 q 307 1014 436 954 l 408 1014 q 576 885 511 958 l 735 924 l 747 879 l 606 849 m 410 47 q 598 128 529 47 q 669 343 667 210 q 600 537 669 461 q 408 613 531 613 q 219 537 289 613 q 150 331 150 461 q 219 123 150 199 q 410 47 289 47 z "},"ď":{"ha":861,"x_min":79,"x_max":918,"o":"m 653 1014 l 722 1014 l 722 0 l 660 0 l 656 156 q 558 31 626 76 q 397 -14 490 -14 q 165 82 250 -14 q 79 347 79 178 q 165 613 79 517 q 397 708 250 708 q 554 665 488 708 q 653 547 621 622 l 653 1014 m 918 1014 l 868 740 l 819 740 l 850 1014 l 918 1014 m 406 47 q 581 120 514 47 q 653 318 647 193 l 653 376 q 580 574 646 501 q 406 647 514 647 q 217 567 285 647 q 149 347 149 488 q 217 127 149 207 q 406 47 285 47 z "},"đ":{"ha":844,"x_min":79,"x_max":842,"o":"m 842 804 l 722 804 l 722 0 l 660 0 l 656 156 q 558 31 626 76 q 397 -14 490 -14 q 165 82 250 -14 q 79 347 79 178 q 165 613 79 517 q 397 708 250 708 q 554 665 488 708 q 653 547 621 622 l 653 804 l 418 804 l 418 857 l 653 857 l 653 1014 l 722 1014 l 722 857 l 842 857 l 842 804 m 406 47 q 581 120 514 47 q 653 318 647 193 l 653 376 q 580 574 646 501 q 406 647 514 647 q 217 567 285 647 q 149 347 149 488 q 217 127 149 207 q 406 47 285 47 z "},"e":{"ha":776,"x_min":79,"x_max":701,"o":"m 701 364 q 699 318 701 340 l 147 318 q 223 119 154 190 q 407 47 292 47 q 548 81 489 47 q 633 175 607 114 l 692 144 q 581 27 653 68 q 407 -14 508 -14 q 166 82 253 -14 q 79 347 79 178 q 163 613 79 517 q 399 708 247 708 q 621 614 540 708 q 701 364 701 519 m 399 647 q 221 577 286 647 q 147 381 156 507 l 636 381 q 567 576 629 506 q 399 647 506 647 z "},"é":{"ha":776,"x_min":79,"x_max":701,"o":"m 701 364 q 699 318 701 340 l 147 318 q 223 119 154 190 q 407 47 292 47 q 548 81 489 47 q 633 175 607 114 l 692 144 q 581 27 653 68 q 407 -14 508 -14 q 166 82 253 -14 q 79 347 79 178 q 163 613 79 517 q 399 708 247 708 q 621 614 540 708 q 701 364 701 519 m 399 647 q 221 577 286 647 q 147 381 156 507 l 636 381 q 567 576 629 506 q 399 647 506 647 m 542 1029 l 411 810 l 354 810 l 465 1029 l 542 1029 z "},"ě":{"ha":776,"x_min":79,"x_max":701,"o":"m 701 364 q 699 318 701 340 l 147 318 q 223 119 154 190 q 407 47 292 47 q 548 81 489 47 q 633 175 607 114 l 692 144 q 581 27 653 68 q 407 -14 508 -14 q 166 82 253 -14 q 79 347 79 178 q 163 613 79 517 q 399 708 247 708 q 621 614 540 708 q 701 364 701 519 m 399 647 q 221 577 286 647 q 147 381 156 507 l 636 381 q 567 576 629 506 q 399 647 506 647 m 435 810 l 354 810 l 201 1025 l 267 1025 l 394 860 l 522 1025 l 588 1025 l 435 810 z "},"ê":{"ha":776,"x_min":79,"x_max":701,"o":"m 701 364 q 699 318 701 340 l 147 318 q 223 119 154 190 q 407 47 292 47 q 548 81 489 47 q 633 175 607 114 l 692 144 q 581 27 653 68 q 407 -14 508 -14 q 166 82 253 -14 q 79 347 79 178 q 163 613 79 517 q 399 708 247 708 q 621 614 540 708 q 701 364 701 519 m 399 647 q 221 577 286 647 q 147 381 156 507 l 636 381 q 567 576 629 506 q 399 647 506 647 m 522 804 l 394 971 l 267 804 l 201 804 l 354 1021 l 433 1021 l 588 804 l 522 804 z "},"ë":{"ha":776,"x_min":79,"x_max":701,"o":"m 701 364 q 699 318 701 340 l 147 318 q 223 119 154 190 q 407 47 292 47 q 548 81 489 47 q 633 175 607 114 l 692 144 q 581 27 653 68 q 407 -14 508 -14 q 166 82 253 -14 q 79 347 79 178 q 163 613 79 517 q 399 708 247 708 q 621 614 540 708 q 701 364 701 519 m 399 647 q 221 577 286 647 q 147 381 156 507 l 636 381 q 567 576 629 506 q 399 647 506 647 m 263 932 q 303 916 288 932 q 318 875 318 900 q 303 835 318 850 q 263 819 288 819 q 222 835 238 819 q 206 875 206 850 q 222 916 206 900 q 263 932 238 932 m 525 932 q 566 916 550 932 q 582 875 582 900 q 566 835 582 850 q 525 819 550 819 q 484 835 500 819 q 468 875 468 850 q 484 916 468 900 q 525 932 500 932 z "},"ė":{"ha":776,"x_min":79,"x_max":701,"o":"m 701 364 q 699 318 701 340 l 147 318 q 223 119 154 190 q 407 47 292 47 q 548 81 489 47 q 633 175 607 114 l 692 144 q 581 27 653 68 q 407 -14 508 -14 q 166 82 253 -14 q 79 347 79 178 q 163 613 79 517 q 399 708 247 708 q 621 614 540 708 q 701 364 701 519 m 399 647 q 221 577 286 647 q 147 381 156 507 l 636 381 q 567 576 629 506 q 399 647 506 647 m 394 946 q 437 930 421 946 q 453 888 453 914 q 437 845 453 861 q 394 829 421 829 q 352 845 368 829 q 336 888 336 861 q 352 930 336 914 q 394 946 368 946 z "},"è":{"ha":776,"x_min":79,"x_max":701,"o":"m 701 364 q 699 318 701 340 l 147 318 q 223 119 154 190 q 407 47 292 47 q 548 81 489 47 q 633 175 607 114 l 692 144 q 581 27 653 68 q 407 -14 508 -14 q 166 82 253 -14 q 79 347 79 178 q 163 613 79 517 q 399 708 247 708 q 621 614 540 708 q 701 364 701 519 m 399 647 q 221 577 286 647 q 147 381 156 507 l 636 381 q 567 576 629 506 q 399 647 506 647 m 433 810 l 375 810 l 246 1029 l 321 1029 l 433 810 z "},"ē":{"ha":776,"x_min":79,"x_max":701,"o":"m 701 364 q 699 318 701 340 l 147 318 q 223 119 154 190 q 407 47 292 47 q 548 81 489 47 q 633 175 607 114 l 692 144 q 581 27 653 68 q 407 -14 508 -14 q 166 82 253 -14 q 79 347 79 178 q 163 613 79 517 q 399 708 247 708 q 621 614 540 708 q 701 364 701 519 m 399 647 q 221 577 286 647 q 147 381 156 507 l 636 381 q 567 576 629 506 q 399 647 506 647 m 617 833 l 172 833 l 172 892 l 617 892 l 617 833 z "},"ę":{"ha":776,"x_min":79,"x_max":701,"o":"m 701 364 q 699 318 701 340 l 147 318 q 223 119 154 190 q 407 47 292 47 q 548 81 489 47 q 633 175 607 114 l 692 144 q 528 4 638 40 q 417 -77 450 -40 q 383 -156 383 -114 q 410 -217 383 -194 q 478 -239 436 -239 q 561 -217 531 -239 l 576 -264 q 471 -290 536 -290 q 366 -256 407 -290 q 325 -164 325 -221 q 348 -83 325 -119 q 421 -14 371 -47 l 407 -14 q 166 82 253 -14 q 79 347 79 178 q 163 613 79 517 q 399 708 247 708 q 621 614 540 708 q 701 364 701 519 m 399 647 q 221 577 286 647 q 147 381 156 507 l 636 381 q 567 576 629 506 q 399 647 506 647 z "},"f":{"ha":499,"x_min":32,"x_max":490,"o":"m 240 694 l 485 694 l 485 635 l 240 635 l 240 0 l 171 0 l 171 635 l 32 635 l 32 694 l 171 694 l 171 811 q 225 965 171 908 q 378 1021 279 1021 q 490 983 453 1021 l 471 928 q 383 958 436 958 q 278 919 315 958 q 240 804 240 879 l 240 694 z "},"g":{"ha":715,"x_min":49,"x_max":715,"o":"m 479 71 q 643 28 583 71 q 703 -87 703 -15 q 660 -198 703 -150 q 543 -272 618 -246 q 372 -299 468 -299 q 132 -248 215 -299 q 49 -114 49 -197 q 82 -21 49 -60 q 174 35 115 18 q 108 85 132 53 q 83 156 83 117 q 116 240 83 206 q 204 290 149 275 q 117 369 147 319 q 86 482 86 418 q 163 647 86 585 q 368 708 240 708 q 525 676 457 708 q 581 783 533 743 q 699 822 628 822 l 715 761 q 613 732 650 761 q 569 649 575 703 q 649 482 649 585 q 572 317 649 379 q 368 254 494 254 q 274 264 325 254 q 183 230 215 257 q 150 165 150 203 q 188 96 150 121 q 300 71 225 71 l 479 71 m 156 482 q 213 358 156 404 q 368 313 269 313 q 522 358 465 313 q 579 482 579 404 q 522 605 579 560 q 368 650 465 650 q 213 605 271 650 q 156 482 156 560 m 379 -240 q 569 -199 497 -240 q 640 -96 640 -158 q 595 -17 640 -46 q 464 11 550 11 l 285 11 q 159 -20 206 11 q 113 -103 113 -51 q 182 -203 113 -167 q 379 -240 251 -240 z "},"ğ":{"ha":715,"x_min":49,"x_max":715,"o":"m 375 804 q 238 855 289 804 q 186 992 186 906 l 244 992 q 281 895 244 933 q 375 857 317 857 q 468 895 432 857 q 504 992 504 933 l 563 992 q 512 856 563 907 q 375 804 461 804 m 479 71 q 643 28 583 71 q 703 -87 703 -15 q 660 -198 703 -150 q 543 -272 618 -246 q 372 -299 468 -299 q 132 -248 215 -299 q 49 -114 49 -197 q 82 -21 49 -60 q 174 35 115 18 q 108 85 132 53 q 83 156 83 117 q 116 240 83 206 q 204 290 149 275 q 117 369 147 319 q 86 482 86 418 q 163 647 86 585 q 368 708 240 708 q 525 676 457 708 q 581 783 533 743 q 699 822 628 822 l 715 761 q 613 732 650 761 q 569 649 575 703 q 649 482 649 585 q 572 317 649 379 q 368 254 494 254 q 274 264 325 254 q 183 230 215 257 q 150 165 150 203 q 188 96 150 121 q 300 71 225 71 l 479 71 m 156 482 q 213 358 156 404 q 368 313 269 313 q 522 358 465 313 q 579 482 579 404 q 522 605 579 560 q 368 650 465 650 q 213 605 271 650 q 156 482 156 560 m 379 -240 q 569 -199 497 -240 q 640 -96 640 -158 q 595 -17 640 -46 q 464 11 550 11 l 285 11 q 159 -20 206 11 q 113 -103 113 -51 q 182 -203 113 -167 q 379 -240 251 -240 z "},"h":{"ha":831,"x_min":124,"x_max":714,"o":"m 449 708 q 641 642 568 708 q 714 451 714 575 l 714 0 l 644 0 l 644 429 q 590 594 644 539 q 442 649 535 649 q 318 617 375 649 q 227 528 261 586 q 193 392 193 469 l 193 0 l 124 0 l 124 1014 l 193 1014 l 193 557 q 294 669 226 631 q 449 708 361 708 z "},"i":{"ha":318,"x_min":100,"x_max":217,"o":"m 158 829 q 116 845 132 829 q 100 888 100 861 q 116 930 100 914 q 158 946 132 946 q 201 930 185 946 q 217 888 217 914 q 201 845 217 861 q 158 829 185 829 m 193 0 l 124 0 l 124 694 l 193 694 l 193 0 z "},"ı":{"ha":318,"x_min":124,"x_max":193,"o":"m 193 0 l 124 0 l 124 694 l 193 694 l 193 0 z "},"í":{"ha":318,"x_min":118,"x_max":306,"o":"m 193 0 l 124 0 l 124 694 l 193 694 l 193 0 m 306 1029 l 175 810 l 118 810 l 229 1029 l 306 1029 z "},"î":{"ha":318,"x_min":-33,"x_max":353,"o":"m 193 0 l 124 0 l 124 694 l 193 694 l 193 0 m 288 804 l 160 971 l 32 804 l -33 804 l 119 1021 l 199 1021 l 353 804 l 288 804 z "},"ï":{"ha":318,"x_min":11,"x_max":307,"o":"m 67 819 q 26 835 42 819 q 11 875 11 850 q 26 916 11 900 q 67 932 42 932 q 108 916 93 932 q 124 875 124 900 q 108 835 124 850 q 67 819 93 819 m 250 819 q 209 835 225 819 q 193 875 193 850 q 209 916 193 900 q 250 932 225 932 q 291 916 275 932 q 307 875 307 900 q 291 835 307 850 q 250 819 275 819 m 193 0 l 124 0 l 124 694 l 193 694 l 193 0 z "},"ì":{"ha":318,"x_min":10,"x_max":197,"o":"m 193 0 l 124 0 l 124 694 l 193 694 l 193 0 m 197 810 l 139 810 l 10 1029 l 85 1029 l 197 810 z "},"ĳ":{"ha":635,"x_min":100,"x_max":535,"o":"m 158 829 q 116 845 132 829 q 100 888 100 861 q 116 930 100 914 q 158 946 132 946 q 201 930 185 946 q 217 888 217 914 q 201 845 217 861 q 158 829 185 829 m 193 0 l 124 0 l 124 694 l 193 694 l 193 0 m 476 946 q 518 929 501 946 q 535 888 535 913 q 518 847 535 864 q 476 829 501 829 q 435 847 453 829 q 418 888 418 864 q 435 929 418 913 q 476 946 453 946 m 511 -79 q 454 -243 511 -187 q 314 -299 397 -299 q 246 -288 278 -299 q 193 -260 214 -278 l 210 -194 q 255 -222 228 -211 q 313 -232 282 -232 q 407 -192 372 -232 q 442 -74 442 -151 l 442 694 l 511 694 l 511 -79 z "},"ī":{"ha":318,"x_min":28,"x_max":288,"o":"m 288 833 l 28 833 l 28 892 l 288 892 l 288 833 m 193 0 l 124 0 l 124 694 l 193 694 l 193 0 z "},"į":{"ha":318,"x_min":7,"x_max":253,"o":"m 158 829 q 116 845 132 829 q 100 888 100 861 q 116 930 100 914 q 158 946 132 946 q 201 930 185 946 q 217 888 217 914 q 201 845 217 861 q 158 829 185 829 m 253 -260 q 208 -283 232 -276 q 149 -290 183 -290 q 47 -256 86 -290 q 7 -164 7 -222 q 35 -79 7 -117 q 124 0 64 -42 l 124 694 l 193 694 l 193 0 q 93 -84 121 -50 q 65 -158 65 -118 q 90 -218 65 -196 q 153 -240 115 -240 q 235 -215 201 -240 l 253 -260 z "},"j":{"ha":318,"x_min":-125,"x_max":217,"o":"m 158 946 q 200 929 183 946 q 217 888 217 913 q 200 847 217 864 q 158 829 183 829 q 117 847 135 829 q 100 888 100 864 q 117 929 100 913 q 158 946 135 946 m 193 -79 q 136 -243 193 -187 q -4 -299 79 -299 q -72 -288 -40 -299 q -125 -260 -104 -278 l -108 -194 q -63 -222 -90 -211 q -6 -232 -36 -232 q 89 -192 54 -232 q 124 -74 124 -151 l 124 694 l 193 694 l 193 -79 z "},"k":{"ha":732,"x_min":124,"x_max":707,"o":"m 357 368 l 193 210 l 193 0 l 124 0 l 124 1014 l 193 1014 l 193 297 l 606 694 l 696 694 l 408 417 l 707 0 l 622 0 l 357 368 z "},"l":{"ha":381,"x_min":118,"x_max":367,"o":"m 188 168 q 208 78 188 104 q 275 51 228 51 q 322 56 303 51 q 367 71 342 60 l 357 4 q 265 -14 318 -14 q 154 28 190 -14 q 118 161 118 71 l 118 1014 l 188 1014 l 188 168 z "},"ĺ":{"ha":386,"x_min":118,"x_max":367,"o":"m 254 1292 l 179 1107 l 124 1107 l 178 1292 l 254 1292 m 188 168 q 208 78 188 104 q 275 51 228 51 q 322 56 303 51 q 367 71 342 60 l 357 4 q 265 -14 318 -14 q 154 28 190 -14 q 118 161 118 71 l 118 1014 l 188 1014 l 188 168 z "},"ľ":{"ha":381,"x_min":118,"x_max":386,"o":"m 188 168 q 208 78 188 104 q 275 51 228 51 q 322 56 303 51 q 367 71 342 60 l 357 4 q 265 -14 318 -14 q 154 28 190 -14 q 118 161 118 71 l 118 1014 l 188 1014 l 188 168 m 336 740 l 288 740 l 318 1014 l 386 1014 l 336 740 z "},"ŀ":{"ha":492,"x_min":118,"x_max":464,"o":"m 188 168 q 208 78 188 104 q 275 51 228 51 q 322 56 303 51 q 367 71 342 60 l 357 4 q 265 -14 318 -14 q 154 28 190 -14 q 118 161 118 71 l 118 1014 l 188 1014 l 188 168 m 401 558 q 447 541 429 558 q 464 496 464 524 q 447 451 464 468 q 401 435 429 435 q 356 452 374 435 q 339 496 339 469 q 356 541 339 524 q 401 558 374 558 z "},"ł":{"ha":456,"x_min":38,"x_max":421,"o":"m 329 51 q 376 56 357 51 q 421 71 396 60 l 411 4 q 318 -14 371 -14 q 208 28 244 -14 q 172 161 172 71 l 172 432 l 38 343 l 38 415 l 172 504 l 172 1014 l 242 1014 l 242 551 l 411 665 l 411 593 l 242 479 l 242 168 q 262 78 242 104 q 329 51 282 51 z "},"m":{"ha":1333,"x_min":124,"x_max":1217,"o":"m 956 710 q 1144 643 1071 710 q 1217 451 1217 576 l 1217 1 l 1147 1 l 1147 444 q 1093 597 1147 544 q 947 649 1039 649 q 826 617 881 649 q 738 528 771 585 q 706 400 706 471 l 706 0 l 636 0 l 636 443 q 582 595 636 543 q 436 647 528 647 q 317 617 372 647 q 227 528 261 586 q 193 393 193 469 l 193 0 l 124 0 l 124 694 l 186 694 l 190 556 q 292 668 224 628 q 443 708 360 708 q 599 667 532 708 q 692 546 665 625 q 794 666 719 622 q 956 710 868 710 z "},"n":{"ha":831,"x_min":124,"x_max":714,"o":"m 449 708 q 641 642 568 708 q 714 450 714 575 l 714 0 l 644 0 l 644 428 q 590 593 644 539 q 442 647 536 647 q 318 617 375 647 q 227 528 261 586 q 193 392 193 469 l 193 0 l 124 0 l 124 694 l 186 694 l 189 554 q 291 669 222 629 q 449 708 360 708 z "},"ń":{"ha":831,"x_min":124,"x_max":714,"o":"m 449 708 q 641 642 568 708 q 714 450 714 575 l 714 0 l 644 0 l 644 428 q 590 593 644 539 q 442 647 536 647 q 318 617 375 647 q 227 528 261 586 q 193 392 193 469 l 193 0 l 124 0 l 124 694 l 186 694 l 189 554 q 291 669 222 629 q 449 708 360 708 m 572 1029 l 442 810 l 385 810 l 496 1029 l 572 1029 z "},"ň":{"ha":831,"x_min":124,"x_max":714,"o":"m 449 708 q 641 642 568 708 q 714 450 714 575 l 714 0 l 644 0 l 644 428 q 590 593 644 539 q 442 647 536 647 q 318 617 375 647 q 227 528 261 586 q 193 392 193 469 l 193 0 l 124 0 l 124 694 l 186 694 l 189 554 q 291 669 222 629 q 449 708 360 708 m 465 810 l 385 810 l 232 1025 l 297 1025 l 425 860 l 553 1025 l 618 1025 l 465 810 z "},"ñ":{"ha":831,"x_min":124,"x_max":714,"o":"m 449 708 q 641 642 568 708 q 714 450 714 575 l 714 0 l 644 0 l 644 428 q 590 593 644 539 q 442 647 536 647 q 318 617 375 647 q 227 528 261 586 q 193 392 193 469 l 193 0 l 124 0 l 124 694 l 186 694 l 189 554 q 291 669 222 629 q 449 708 360 708 m 661 974 q 618 858 651 896 q 524 821 585 821 q 460 834 485 821 q 407 874 436 847 q 367 905 385 894 q 326 915 350 915 q 272 892 289 915 q 244 819 254 869 l 189 819 q 231 935 199 897 q 328 972 264 972 q 390 959 365 972 q 443 919 414 946 q 483 888 465 899 q 522 878 500 878 q 578 901 560 878 q 606 974 596 924 l 661 974 z "},"o":{"ha":819,"x_min":79,"x_max":740,"o":"m 410 708 q 652 612 564 708 q 740 347 740 515 q 652 83 740 179 q 410 -14 564 -14 q 167 83 256 -14 q 79 347 79 179 q 167 612 79 515 q 410 708 256 708 m 410 649 q 218 568 288 649 q 149 347 149 488 q 218 126 149 207 q 410 46 288 46 q 601 126 532 46 q 671 347 671 207 q 601 568 671 488 q 410 649 532 649 z "},"ó":{"ha":819,"x_min":79,"x_max":740,"o":"m 410 708 q 652 612 564 708 q 740 347 740 515 q 652 83 740 179 q 410 -14 564 -14 q 167 83 256 -14 q 79 347 79 179 q 167 612 79 515 q 410 708 256 708 m 410 649 q 218 568 288 649 q 149 347 149 488 q 218 126 149 207 q 410 46 288 46 q 601 126 532 46 q 671 347 671 207 q 601 568 671 488 q 410 649 532 649 m 557 1029 l 426 810 l 369 810 l 481 1029 l 557 1029 z "},"ô":{"ha":819,"x_min":79,"x_max":740,"o":"m 410 708 q 652 612 564 708 q 740 347 740 515 q 652 83 740 179 q 410 -14 564 -14 q 167 83 256 -14 q 79 347 79 179 q 167 612 79 515 q 410 708 256 708 m 410 649 q 218 568 288 649 q 149 347 149 488 q 218 126 149 207 q 410 46 288 46 q 601 126 532 46 q 671 347 671 207 q 601 568 671 488 q 410 649 532 649 m 538 804 l 410 971 l 282 804 l 217 804 l 369 1021 l 449 1021 l 603 804 l 538 804 z "},"ö":{"ha":819,"x_min":79,"x_max":740,"o":"m 410 708 q 652 612 564 708 q 740 347 740 515 q 652 83 740 179 q 410 -14 564 -14 q 167 83 256 -14 q 79 347 79 179 q 167 612 79 515 q 410 708 256 708 m 410 649 q 218 568 288 649 q 149 347 149 488 q 218 126 149 207 q 410 46 288 46 q 601 126 532 46 q 671 347 671 207 q 601 568 671 488 q 410 649 532 649 m 278 932 q 318 916 303 932 q 333 875 333 900 q 318 835 333 850 q 278 819 303 819 q 237 835 253 819 q 221 875 221 850 q 237 916 221 900 q 278 932 253 932 m 540 932 q 581 916 565 932 q 597 875 597 900 q 581 835 597 850 q 540 819 565 819 q 499 835 515 819 q 483 875 483 850 q 499 916 483 900 q 540 932 515 932 z "},"ò":{"ha":819,"x_min":79,"x_max":740,"o":"m 410 708 q 652 612 564 708 q 740 347 740 515 q 652 83 740 179 q 410 -14 564 -14 q 167 83 256 -14 q 79 347 79 179 q 167 612 79 515 q 410 708 256 708 m 410 649 q 218 568 288 649 q 149 347 149 488 q 218 126 149 207 q 410 46 288 46 q 601 126 532 46 q 671 347 671 207 q 601 568 671 488 q 410 649 532 649 m 449 810 l 390 810 l 261 1029 l 336 1029 l 449 810 z "},"ő":{"ha":819,"x_min":79,"x_max":740,"o":"m 410 708 q 652 612 564 708 q 740 347 740 515 q 652 83 740 179 q 410 -14 564 -14 q 167 83 256 -14 q 79 347 79 179 q 167 612 79 515 q 410 708 256 708 m 410 649 q 218 568 288 649 q 149 347 149 488 q 218 126 149 207 q 410 46 288 46 q 601 126 532 46 q 671 347 671 207 q 601 568 671 488 q 410 649 532 649 m 308 810 l 251 810 l 363 1029 l 439 1029 l 308 810 m 524 810 l 467 810 l 578 1029 l 654 1029 l 524 810 z "},"ō":{"ha":819,"x_min":79,"x_max":740,"o":"m 410 708 q 652 612 564 708 q 740 347 740 515 q 652 83 740 179 q 410 -14 564 -14 q 167 83 256 -14 q 79 347 79 179 q 167 612 79 515 q 410 708 256 708 m 410 649 q 218 568 288 649 q 149 347 149 488 q 218 126 149 207 q 410 46 288 46 q 601 126 532 46 q 671 347 671 207 q 601 568 671 488 q 410 649 532 649 m 632 833 l 188 833 l 188 892 l 632 892 l 632 833 z "},"ø":{"ha":821,"x_min":79,"x_max":744,"o":"m 410 708 q 615 646 531 708 l 682 731 l 744 731 l 653 613 q 740 347 740 517 q 652 83 740 179 q 410 -14 564 -14 q 214 43 292 -14 l 144 -47 l 81 -47 l 174 75 q 79 347 79 172 q 167 612 79 515 q 410 708 256 708 m 218 129 l 260 188 l 576 593 q 410 649 508 649 q 218 568 288 649 q 149 347 149 488 q 217 129 149 208 l 218 129 m 410 46 q 601 126 532 46 q 671 347 671 207 q 610 557 671 476 l 608 557 l 572 508 l 253 94 q 410 46 314 46 z "},"õ":{"ha":819,"x_min":79,"x_max":740,"o":"m 410 708 q 652 612 564 708 q 740 347 740 515 q 652 83 740 179 q 410 -14 564 -14 q 167 83 256 -14 q 79 347 79 179 q 167 612 79 515 q 410 708 256 708 m 410 649 q 218 568 288 649 q 149 347 149 488 q 218 126 149 207 q 410 46 288 46 q 601 126 532 46 q 671 347 671 207 q 601 568 671 488 q 410 649 532 649 m 646 974 q 603 858 636 896 q 508 821 569 821 q 445 834 469 821 q 392 874 421 847 q 352 905 369 894 q 311 915 335 915 q 256 892 274 915 q 229 819 239 869 l 174 819 q 216 935 183 897 q 313 972 249 972 q 374 959 350 972 q 428 919 399 946 q 467 888 450 899 q 507 878 485 878 q 563 901 544 878 q 590 974 581 924 l 646 974 z "},"œ":{"ha":1372,"x_min":79,"x_max":1296,"o":"m 1296 364 q 1293 318 1296 340 l 742 318 q 817 119 749 190 q 1001 47 886 47 q 1142 81 1083 47 q 1228 175 1201 114 l 1286 144 q 1175 27 1247 68 q 1001 -14 1103 -14 q 819 35 894 -14 q 708 178 744 85 q 597 35 672 85 q 413 -14 521 -14 q 168 82 257 -14 q 79 347 79 178 q 168 613 79 517 q 413 708 257 708 q 596 659 519 708 q 708 518 672 610 q 815 659 742 610 q 993 708 888 708 q 1215 614 1135 708 q 1296 364 1296 519 m 413 47 q 603 127 535 47 q 672 347 672 207 q 603 567 672 488 q 413 647 535 647 q 220 567 290 647 q 150 347 150 488 q 220 127 150 207 q 413 47 290 47 m 993 647 q 815 577 881 647 q 743 381 750 507 l 1231 381 q 1162 576 1224 506 q 993 647 1100 647 z "},"p":{"ha":846,"x_min":124,"x_max":767,"o":"m 449 708 q 681 613 596 708 q 767 347 767 517 q 681 82 767 178 q 449 -14 596 -14 q 292 29 360 -14 q 193 147 225 72 l 193 -292 l 124 -292 l 124 694 l 186 694 l 190 538 q 287 663 219 618 q 449 708 354 708 m 440 47 q 629 127 561 47 q 697 347 697 207 q 629 567 697 488 q 440 647 561 647 q 265 574 332 647 q 193 372 199 500 l 193 322 q 265 121 199 194 q 440 47 332 47 z "},"þ":{"ha":846,"x_min":124,"x_max":767,"o":"m 449 708 q 681 613 596 708 q 767 347 767 517 q 681 82 767 178 q 449 -14 596 -14 q 293 26 360 -14 q 193 138 226 67 l 193 -292 l 124 -292 l 124 1014 l 193 1014 l 193 557 q 293 668 226 628 q 449 708 360 708 m 440 47 q 629 127 561 47 q 697 347 697 207 q 629 567 697 488 q 440 647 561 647 q 260 568 328 647 q 193 354 193 489 l 193 340 q 260 126 193 204 q 440 47 328 47 z "},"q":{"ha":847,"x_min":81,"x_max":724,"o":"m 724 694 l 724 -292 l 654 -292 l 654 147 q 556 29 622 72 q 399 -14 489 -14 q 166 82 251 -14 q 81 347 81 178 q 166 613 81 517 q 399 708 251 708 q 560 663 492 708 q 657 539 628 618 l 661 694 l 724 694 m 407 47 q 581 120 515 47 q 654 318 647 193 l 654 376 q 582 574 649 501 q 407 647 515 647 q 218 567 286 647 q 150 347 150 488 q 218 127 150 207 q 407 47 286 47 z "},"r":{"ha":525,"x_min":124,"x_max":503,"o":"m 415 708 q 503 685 471 708 l 485 619 q 396 644 453 644 q 297 612 343 644 q 222 520 250 579 q 193 389 193 461 l 193 0 l 124 0 l 124 694 l 182 694 l 190 553 q 277 667 219 626 q 415 708 335 708 z "},"ŕ":{"ha":525,"x_min":124,"x_max":503,"o":"m 415 708 q 503 685 471 708 l 485 619 q 396 644 453 644 q 297 612 343 644 q 222 520 250 579 q 193 389 193 461 l 193 0 l 124 0 l 124 694 l 182 694 l 190 553 q 277 667 219 626 q 415 708 335 708 m 436 1029 l 306 810 l 249 810 l 360 1029 l 436 1029 z "},"ř":{"ha":525,"x_min":96,"x_max":503,"o":"m 415 708 q 503 685 471 708 l 485 619 q 396 644 453 644 q 297 612 343 644 q 222 520 250 579 q 193 389 193 461 l 193 0 l 124 0 l 124 694 l 182 694 l 190 553 q 277 667 219 626 q 415 708 335 708 m 329 810 l 249 810 l 96 1025 l 161 1025 l 289 860 l 417 1025 l 482 1025 l 329 810 z "},"s":{"ha":701,"x_min":60,"x_max":629,"o":"m 350 -14 q 167 28 244 -14 q 60 149 89 69 l 117 186 q 201 82 138 117 q 358 47 265 47 q 506 83 453 47 q 560 179 560 119 q 514 261 560 231 q 353 313 468 292 q 147 383 207 339 q 88 510 88 428 q 121 610 88 564 q 215 682 154 656 q 354 708 276 708 q 530 667 464 708 q 621 539 596 625 l 561 504 q 354 647 522 647 q 253 629 299 647 q 183 581 208 611 q 157 517 157 551 q 204 428 157 460 q 371 375 251 396 q 571 307 513 351 q 629 182 629 263 q 553 40 629 93 q 350 -14 478 -14 z "},"ś":{"ha":701,"x_min":60,"x_max":629,"o":"m 350 -14 q 167 28 244 -14 q 60 149 89 69 l 117 186 q 201 82 138 117 q 358 47 265 47 q 506 83 453 47 q 560 179 560 119 q 514 261 560 231 q 353 313 468 292 q 147 383 207 339 q 88 510 88 428 q 121 610 88 564 q 215 682 154 656 q 354 708 276 708 q 530 667 464 708 q 621 539 596 625 l 561 504 q 354 647 522 647 q 253 629 299 647 q 183 581 208 611 q 157 517 157 551 q 204 428 157 460 q 371 375 251 396 q 571 307 513 351 q 629 182 629 263 q 553 40 629 93 q 350 -14 478 -14 m 497 1029 l 367 810 l 310 810 l 421 1029 l 497 1029 z "},"š":{"ha":701,"x_min":60,"x_max":629,"o":"m 350 -14 q 167 28 244 -14 q 60 149 89 69 l 117 186 q 201 82 138 117 q 358 47 265 47 q 506 83 453 47 q 560 179 560 119 q 514 261 560 231 q 353 313 468 292 q 147 383 207 339 q 88 510 88 428 q 121 610 88 564 q 215 682 154 656 q 354 708 276 708 q 530 667 464 708 q 621 539 596 625 l 561 504 q 354 647 522 647 q 253 629 299 647 q 183 581 208 611 q 157 517 157 551 q 204 428 157 460 q 371 375 251 396 q 571 307 513 351 q 629 182 629 263 q 553 40 629 93 q 350 -14 478 -14 m 390 810 l 310 810 l 157 1025 l 222 1025 l 350 860 l 478 1025 l 543 1025 l 390 810 z "},"ß":{"ha":819,"x_min":124,"x_max":743,"o":"m 486 533 q 678 455 613 532 q 743 264 743 378 q 709 123 743 186 q 611 23 675 60 q 458 -14 547 -14 q 374 1 414 -14 q 313 39 333 15 l 336 93 q 461 49 381 49 q 617 110 560 49 q 675 271 675 171 q 607 440 675 382 q 418 497 539 497 l 361 497 l 361 561 l 418 561 q 575 617 517 561 q 633 768 633 674 q 579 908 633 860 q 425 957 525 957 q 249 888 304 957 q 193 678 193 818 l 193 0 l 124 0 l 124 703 q 432 1021 124 1021 q 583 987 522 1021 q 674 896 644 953 q 704 771 704 839 q 678 656 704 710 q 603 570 653 603 q 486 536 554 538 l 486 533 z "},"ſ":{"ha":328,"x_min":118,"x_max":388,"o":"m 118 817 q 160 968 118 915 q 289 1021 203 1021 q 388 988 357 1021 l 372 932 q 340 952 356 946 q 301 958 325 958 q 188 811 188 958 l 188 0 l 118 0 l 118 817 z "},"t":{"ha":524,"x_min":31,"x_max":507,"o":"m 507 44 q 439 1 479 17 q 350 -14 399 -14 q 217 33 265 -14 q 169 174 169 79 l 169 635 l 31 635 l 31 694 l 169 694 l 169 868 l 239 888 l 239 694 l 500 694 l 500 635 l 239 635 l 239 183 q 270 84 239 118 q 361 50 301 50 q 482 101 431 50 l 507 44 z "},"ť":{"ha":524,"x_min":31,"x_max":507,"o":"m 393 792 l 344 792 l 375 1065 l 443 1065 l 393 792 m 507 44 q 439 1 479 17 q 350 -14 399 -14 q 217 33 265 -14 q 169 174 169 79 l 169 635 l 31 635 l 31 694 l 169 694 l 169 868 l 239 888 l 239 694 l 500 694 l 500 635 l 239 635 l 239 183 q 270 84 239 118 q 361 50 301 50 q 482 101 431 50 l 507 44 z "},"u":{"ha":824,"x_min":117,"x_max":700,"o":"m 700 694 l 700 0 l 638 0 l 635 138 q 531 25 600 64 q 367 -14 461 -14 q 185 49 253 -14 q 117 236 117 113 l 117 694 l 186 694 l 186 253 q 378 47 186 47 q 512 81 454 47 q 600 171 569 114 q 631 296 631 228 l 631 694 l 700 694 z "},"ú":{"ha":824,"x_min":117,"x_max":700,"o":"m 700 694 l 700 0 l 638 0 l 635 138 q 531 25 600 64 q 367 -14 461 -14 q 185 49 253 -14 q 117 236 117 113 l 117 694 l 186 694 l 186 253 q 378 47 186 47 q 512 81 454 47 q 600 171 569 114 q 631 296 631 228 l 631 694 l 700 694 m 557 1029 l 426 810 l 369 810 l 481 1029 l 557 1029 z "},"û":{"ha":824,"x_min":117,"x_max":700,"o":"m 700 694 l 700 0 l 638 0 l 635 138 q 531 25 600 64 q 367 -14 461 -14 q 185 49 253 -14 q 117 236 117 113 l 117 694 l 186 694 l 186 253 q 378 47 186 47 q 512 81 454 47 q 600 171 569 114 q 631 296 631 228 l 631 694 l 700 694 m 538 804 l 410 971 l 282 804 l 217 804 l 369 1021 l 449 1021 l 603 804 l 538 804 z "},"ü":{"ha":824,"x_min":117,"x_max":700,"o":"m 700 694 l 700 0 l 638 0 l 635 138 q 531 25 600 64 q 367 -14 461 -14 q 185 49 253 -14 q 117 236 117 113 l 117 694 l 186 694 l 186 253 q 378 47 186 47 q 512 81 454 47 q 600 171 569 114 q 631 296 631 228 l 631 694 l 700 694 m 278 932 q 318 916 303 932 q 333 875 333 900 q 318 835 333 850 q 278 819 303 819 q 237 835 253 819 q 221 875 221 850 q 237 916 221 900 q 278 932 253 932 m 540 932 q 581 916 565 932 q 597 875 597 900 q 581 835 597 850 q 540 819 565 819 q 499 835 515 819 q 483 875 483 850 q 499 916 483 900 q 540 932 515 932 z "},"ù":{"ha":824,"x_min":117,"x_max":700,"o":"m 700 694 l 700 0 l 638 0 l 635 138 q 531 25 600 64 q 367 -14 461 -14 q 185 49 253 -14 q 117 236 117 113 l 117 694 l 186 694 l 186 253 q 378 47 186 47 q 512 81 454 47 q 600 171 569 114 q 631 296 631 228 l 631 694 l 700 694 m 449 810 l 390 810 l 261 1029 l 336 1029 l 449 810 z "},"ű":{"ha":824,"x_min":117,"x_max":700,"o":"m 700 694 l 700 0 l 638 0 l 635 138 q 531 25 600 64 q 367 -14 461 -14 q 185 49 253 -14 q 117 236 117 113 l 117 694 l 186 694 l 186 253 q 378 47 186 47 q 512 81 454 47 q 600 171 569 114 q 631 296 631 228 l 631 694 l 700 694 m 308 810 l 251 810 l 363 1029 l 439 1029 l 308 810 m 524 810 l 467 810 l 578 1029 l 654 1029 l 524 810 z "},"ū":{"ha":824,"x_min":117,"x_max":700,"o":"m 700 694 l 700 0 l 638 0 l 635 138 q 531 25 600 64 q 367 -14 461 -14 q 185 49 253 -14 q 117 236 117 113 l 117 694 l 186 694 l 186 253 q 378 47 186 47 q 512 81 454 47 q 600 171 569 114 q 631 296 631 228 l 631 694 l 700 694 m 632 833 l 188 833 l 188 892 l 632 892 l 632 833 z "},"ģ":{"ha":715,"x_min":49,"x_max":715,"o":"m 410 815 l 333 815 l 424 1081 l 476 1081 l 410 815 m 479 71 q 643 28 583 71 q 703 -87 703 -15 q 660 -198 703 -150 q 543 -272 618 -246 q 372 -299 468 -299 q 132 -248 215 -299 q 49 -114 49 -197 q 82 -21 49 -60 q 174 35 115 18 q 108 85 132 53 q 83 156 83 117 q 116 240 83 206 q 204 290 149 275 q 117 369 147 319 q 86 482 86 418 q 163 647 86 585 q 368 708 240 708 q 525 676 457 708 q 581 783 533 743 q 699 822 628 822 l 715 761 q 613 732 650 761 q 569 649 575 703 q 649 482 649 585 q 572 317 649 379 q 368 254 494 254 q 274 264 325 254 q 183 230 215 257 q 150 165 150 203 q 188 96 150 121 q 300 71 225 71 l 479 71 m 156 482 q 213 358 156 404 q 368 313 269 313 q 522 358 465 313 q 579 482 579 404 q 522 605 579 560 q 368 650 465 650 q 213 605 271 650 q 156 482 156 560 m 379 -240 q 569 -199 497 -240 q 640 -96 640 -158 q 595 -17 640 -46 q 464 11 550 11 l 285 11 q 159 -20 206 11 q 113 -103 113 -51 q 182 -203 113 -167 q 379 -240 251 -240 z "},"ķ":{"ha":732,"x_min":124,"x_max":707,"o":"m 357 368 l 193 210 l 193 0 l 124 0 l 124 1014 l 193 1014 l 193 297 l 606 694 l 696 694 l 408 417 l 707 0 l 622 0 l 357 368 m 378 -324 l 322 -324 l 388 -100 l 461 -100 l 378 -324 z "},"ļ":{"ha":381,"x_min":118,"x_max":367,"o":"m 188 168 q 208 78 188 104 q 275 51 228 51 q 322 56 303 51 q 367 71 342 60 l 357 4 q 265 -14 318 -14 q 154 28 190 -14 q 118 161 118 71 l 118 1014 l 188 1014 l 188 168 m 218 -324 l 163 -324 l 228 -100 l 301 -100 l 218 -324 z "},"ņ":{"ha":831,"x_min":124,"x_max":714,"o":"m 449 708 q 641 642 568 708 q 714 450 714 575 l 714 0 l 644 0 l 644 428 q 590 593 644 539 q 442 647 536 647 q 318 617 375 647 q 227 528 261 586 q 193 392 193 469 l 193 0 l 124 0 l 124 694 l 186 694 l 189 554 q 291 669 222 629 q 449 708 360 708 m 406 -324 l 350 -324 l 415 -100 l 489 -100 l 406 -324 z "},"ŗ":{"ha":525,"x_min":64,"x_max":503,"o":"m 415 708 q 503 685 471 708 l 485 619 q 396 644 453 644 q 297 612 343 644 q 222 520 250 579 q 193 389 193 461 l 193 0 l 124 0 l 124 694 l 182 694 l 190 553 q 277 667 219 626 q 415 708 335 708 m 119 -324 l 64 -324 l 129 -100 l 203 -100 l 119 -324 z "},"ş":{"ha":701,"x_min":60,"x_max":629,"o":"m 629 182 q 569 52 629 104 q 407 -11 510 0 q 499 -157 499 -69 q 460 -252 499 -214 q 356 -290 421 -290 q 274 -278 308 -290 q 213 -237 240 -265 l 240 -189 q 347 -237 281 -237 q 412 -213 386 -237 q 438 -149 438 -189 q 413 -78 438 -108 q 325 -14 389 -49 q 158 33 228 -8 q 60 149 88 74 l 117 186 q 201 82 138 117 q 358 47 265 47 q 506 83 453 47 q 560 179 560 119 q 514 261 560 231 q 353 313 468 292 q 147 383 207 339 q 88 510 88 428 q 121 610 88 564 q 215 682 154 656 q 354 708 276 708 q 530 667 464 708 q 621 539 596 625 l 561 504 q 354 647 522 647 q 253 629 299 647 q 183 581 208 611 q 157 517 157 551 q 204 428 157 460 q 371 375 251 396 q 571 307 513 351 q 629 182 629 263 z "},"ţ":{"ha":538,"x_min":31,"x_max":507,"o":"m 371 -12 q 458 -157 458 -72 q 420 -252 458 -214 q 317 -290 382 -290 q 234 -278 268 -290 q 174 -237 200 -265 l 201 -189 q 310 -237 243 -237 q 373 -213 349 -237 q 397 -149 397 -189 q 371 -75 397 -107 q 274 -1 344 -43 q 197 60 224 15 q 169 174 169 104 l 169 635 l 31 635 l 31 694 l 169 694 l 169 868 l 239 888 l 239 694 l 500 694 l 500 635 l 239 635 l 239 183 q 270 84 239 118 q 361 50 301 50 q 482 101 431 50 l 507 44 q 371 -12 454 -7 z "},"ș":{"ha":701,"x_min":60,"x_max":629,"o":"m 350 -14 q 167 28 244 -14 q 60 149 89 69 l 117 186 q 201 82 138 117 q 358 47 265 47 q 506 83 453 47 q 560 179 560 119 q 514 261 560 231 q 353 313 468 292 q 147 383 207 339 q 88 510 88 428 q 121 610 88 564 q 215 682 154 656 q 354 708 276 708 q 530 667 464 708 q 621 539 596 625 l 561 504 q 354 647 522 647 q 253 629 299 647 q 183 581 208 611 q 157 517 157 551 q 204 428 157 460 q 371 375 251 396 q 571 307 513 351 q 629 182 629 263 q 553 40 629 93 q 350 -14 478 -14 m 314 -324 l 258 -324 l 324 -100 l 397 -100 l 314 -324 z "},"ț":{"ha":524,"x_min":31,"x_max":507,"o":"m 507 44 q 439 1 479 17 q 350 -14 399 -14 q 217 33 265 -14 q 169 174 169 79 l 169 635 l 31 635 l 31 694 l 169 694 l 169 868 l 239 888 l 239 694 l 500 694 l 500 635 l 239 635 l 239 183 q 270 84 239 118 q 361 50 301 50 q 482 101 431 50 l 507 44 m 275 -324 l 219 -324 l 285 -100 l 358 -100 l 275 -324 z "},"ų":{"ha":824,"x_min":117,"x_max":724,"o":"m 724 -260 q 617 -290 682 -290 q 517 -259 553 -290 q 481 -174 481 -228 q 517 -76 481 -117 q 640 11 554 -35 l 633 147 q 525 30 597 74 q 367 -14 453 -14 q 185 49 253 -14 q 117 236 117 113 l 117 694 l 186 694 l 186 253 q 235 97 186 147 q 375 47 285 47 q 508 83 450 47 q 599 178 567 119 q 631 301 631 236 l 631 694 l 700 694 l 700 0 q 572 -87 607 -53 q 536 -164 536 -121 q 560 -219 536 -200 q 624 -239 583 -239 q 707 -217 676 -239 l 724 -260 z "},"ů":{"ha":824,"x_min":117,"x_max":700,"o":"m 700 694 l 700 0 l 638 0 l 635 138 q 531 25 600 64 q 367 -14 461 -14 q 185 49 253 -14 q 117 236 117 113 l 117 694 l 186 694 l 186 253 q 378 47 186 47 q 512 81 454 47 q 600 171 569 114 q 631 296 631 228 l 631 694 l 700 694 m 406 1078 q 510 1039 469 1078 q 551 939 551 1000 q 510 838 551 878 q 406 799 469 799 q 301 838 342 799 q 260 939 260 878 q 301 1039 260 1000 q 406 1078 342 1078 m 406 1032 q 338 1006 365 1032 q 311 939 311 979 q 338 872 311 899 q 406 844 365 844 q 474 872 447 844 q 501 939 501 899 q 474 1006 501 979 q 406 1032 447 1032 z "},"v":{"ha":697,"x_min":24,"x_max":674,"o":"m 674 694 l 383 0 l 314 0 l 24 694 l 101 694 l 350 71 l 600 694 l 674 694 z "},"w":{"ha":1139,"x_min":46,"x_max":1093,"o":"m 1093 694 l 856 0 l 786 0 l 567 607 l 353 0 l 283 0 l 46 694 l 124 694 l 318 82 l 535 694 l 604 694 l 819 82 l 1015 694 l 1093 694 z "},"x":{"ha":700,"x_min":33,"x_max":669,"o":"m 582 0 l 347 304 l 117 0 l 33 0 l 308 356 l 47 694 l 136 694 l 354 411 l 565 694 l 649 694 l 393 360 l 669 0 l 582 0 z "},"y":{"ha":708,"x_min":8,"x_max":681,"o":"m 346 -128 q 260 -260 307 -222 q 140 -299 213 -299 q 8 -247 54 -299 l 35 -187 q 140 -237 68 -237 q 223 -210 189 -237 q 286 -111 257 -183 l 331 0 l 258 172 l 38 694 l 117 694 l 329 168 l 364 75 l 401 175 l 606 694 l 681 694 l 346 -128 z "},"ý":{"ha":708,"x_min":8,"x_max":681,"o":"m 346 -128 q 260 -260 307 -222 q 140 -299 213 -299 q 8 -247 54 -299 l 35 -187 q 140 -237 68 -237 q 223 -210 189 -237 q 286 -111 257 -183 l 331 0 l 258 172 l 38 694 l 117 694 l 329 168 l 364 75 l 401 175 l 606 694 l 681 694 l 346 -128 m 507 1029 l 376 810 l 319 810 l 431 1029 l 507 1029 z "},"ÿ":{"ha":708,"x_min":8,"x_max":681,"o":"m 346 -128 q 260 -260 307 -222 q 140 -299 213 -299 q 8 -247 54 -299 l 35 -187 q 140 -237 68 -237 q 223 -210 189 -237 q 286 -111 257 -183 l 331 0 l 258 172 l 38 694 l 117 694 l 329 168 l 364 75 l 401 175 l 606 694 l 681 694 l 346 -128 m 229 932 q 269 916 254 932 q 285 875 285 900 q 269 835 285 850 q 229 819 254 819 q 188 835 204 819 q 172 875 172 850 q 188 916 172 900 q 229 932 204 932 m 492 932 q 533 916 517 932 q 549 875 549 900 q 533 835 549 850 q 492 819 517 819 q 451 835 467 819 q 435 875 435 850 q 451 916 435 900 q 492 932 467 932 z "},"z":{"ha":701,"x_min":64,"x_max":643,"o":"m 68 54 l 476 556 l 549 636 l 439 635 l 64 635 l 64 694 l 626 694 l 626 640 l 231 151 l 147 58 l 272 60 l 643 60 l 643 0 l 68 0 l 68 54 z "},"ź":{"ha":701,"x_min":64,"x_max":643,"o":"m 68 54 l 476 556 l 549 636 l 439 635 l 64 635 l 64 694 l 626 694 l 626 640 l 231 151 l 147 58 l 272 60 l 643 60 l 643 0 l 68 0 l 68 54 m 488 1029 l 357 810 l 300 810 l 411 1029 l 488 1029 z "},"ž":{"ha":701,"x_min":64,"x_max":643,"o":"m 68 54 l 476 556 l 549 636 l 439 635 l 64 635 l 64 694 l 626 694 l 626 640 l 231 151 l 147 58 l 272 60 l 643 60 l 643 0 l 68 0 l 68 54 m 381 810 l 300 810 l 147 1025 l 213 1025 l 340 860 l 468 1025 l 533 1025 l 381 810 z "},"ż":{"ha":701,"x_min":64,"x_max":643,"o":"m 68 54 l 476 556 l 549 636 l 439 635 l 64 635 l 64 694 l 626 694 l 626 640 l 231 151 l 147 58 l 272 60 l 643 60 l 643 0 l 68 0 l 68 54 m 340 946 q 383 930 367 946 q 399 888 399 914 q 383 845 399 861 q 340 829 367 829 q 298 845 314 829 q 282 888 282 861 q 298 930 282 914 q 340 946 314 946 z "},"ﬁ":{"ha":815,"x_min":32,"x_max":715,"o":"m 240 694 l 485 694 l 485 635 l 240 635 l 240 0 l 171 0 l 171 635 l 32 635 l 32 694 l 171 694 l 171 811 q 225 965 171 908 q 378 1021 279 1021 q 490 983 453 1021 l 471 928 q 383 958 436 958 q 278 919 315 958 q 240 804 240 879 l 240 694 m 657 829 q 615 845 631 829 q 599 888 599 861 q 615 930 599 914 q 657 946 631 946 q 699 930 683 946 q 715 888 715 914 q 699 845 715 861 q 657 829 683 829 m 692 0 l 622 0 l 622 694 l 692 694 l 692 0 z "},"ﬂ":{"ha":878,"x_min":32,"x_max":865,"o":"m 240 694 l 485 694 l 485 635 l 240 635 l 240 0 l 171 0 l 171 635 l 32 635 l 32 694 l 171 694 l 171 811 q 225 965 171 908 q 378 1021 279 1021 q 490 983 453 1021 l 471 928 q 383 958 436 958 q 278 919 315 958 q 240 804 240 879 l 240 694 m 686 168 q 706 78 686 104 q 774 51 726 51 q 821 56 801 51 q 865 71 840 60 l 856 4 q 764 -14 817 -14 q 653 28 689 -14 q 617 161 617 71 l 617 1014 l 686 1014 l 686 168 z "},"ª":{"ha":511,"x_min":36,"x_max":496,"o":"m 461 499 q 496 506 482 499 l 492 464 q 446 454 469 454 q 364 531 372 454 q 294 474 342 494 q 188 454 246 454 q 77 484 118 454 q 36 568 36 514 q 79 658 36 624 q 214 708 122 692 l 357 733 l 357 764 q 325 846 357 817 q 233 875 293 875 q 142 853 178 875 q 89 783 107 832 l 44 807 q 110 893 61 863 q 236 924 160 924 q 369 883 322 924 q 417 767 417 843 l 417 550 q 461 499 417 499 m 200 503 q 307 533 257 503 q 357 614 357 563 l 357 692 l 235 668 q 130 632 163 654 q 97 572 97 610 q 200 503 97 503 m 44 342 l 474 342 l 474 293 l 44 293 l 44 342 z "},"º":{"ha":496,"x_min":42,"x_max":454,"o":"m 249 454 q 42 689 42 454 q 249 924 42 924 q 454 689 454 924 q 249 454 454 454 m 249 504 q 357 550 322 504 q 392 689 392 596 q 357 828 392 782 q 249 875 322 875 q 140 828 175 875 q 104 689 104 782 q 140 550 104 596 q 249 504 175 504 m 56 342 l 440 342 l 440 293 l 56 293 l 56 342 z "},"π":{"ha":985,"x_min":26,"x_max":944,"o":"m 724 636 l 724 161 q 763 81 724 104 q 878 58 801 58 l 864 0 q 706 35 757 0 q 654 153 654 69 l 654 636 l 304 636 l 304 0 l 235 0 l 235 636 l 26 636 l 26 694 l 944 694 l 944 636 l 724 636 z "},"⁄":{"ha":314,"x_min":-206,"x_max":519,"o":"m 449 917 l 519 917 l -135 0 l -206 0 l 449 917 z "},"½":{"ha":1103,"x_min":14,"x_max":1061,"o":"m 228 924 l 228 372 l 165 372 l 165 760 q 168 854 165 788 q 97 798 138 822 q 14 763 56 774 l 14 815 q 104 858 56 826 q 174 924 153 889 l 228 924 m 754 917 l 825 917 l 171 0 l 100 0 l 754 917 m 672 40 q 814 153 743 94 q 941 274 901 222 q 981 379 981 326 q 947 468 981 435 q 854 501 913 501 q 755 463 792 501 q 715 360 718 425 l 660 378 q 717 506 665 458 q 856 553 769 553 q 994 505 944 553 q 1044 382 1044 457 q 858 126 1044 267 l 754 44 l 754 43 q 818 46 782 46 l 1061 46 l 1061 -6 l 672 -6 l 672 40 z "},"¼":{"ha":994,"x_min":14,"x_max":968,"o":"m 228 924 l 228 372 l 165 372 l 165 760 q 168 854 165 788 q 97 798 138 822 q 14 763 56 774 l 14 815 q 104 858 56 826 q 174 924 153 889 l 228 924 m 754 917 l 825 917 l 171 0 l 100 0 l 754 917 m 968 146 l 863 146 l 863 -6 l 808 -6 l 808 146 l 533 146 l 533 182 l 793 546 l 863 546 l 863 192 l 968 192 l 968 146 m 808 192 l 808 410 q 811 493 808 438 l 808 493 l 792 465 q 779 446 786 457 q 764 424 772 435 l 594 192 l 808 192 z "},"¾":{"ha":1157,"x_min":26,"x_max":1129,"o":"m 226 931 q 356 890 310 931 q 403 782 403 849 q 372 694 403 729 q 297 650 342 658 l 297 649 q 381 610 346 646 q 415 519 415 575 q 362 407 415 450 q 224 364 308 364 q 96 397 146 364 q 26 494 46 431 l 85 521 q 225 415 107 415 q 317 445 282 415 q 351 526 351 475 q 320 599 351 574 q 228 625 289 625 l 193 625 l 193 672 l 225 672 q 308 701 279 672 q 338 775 338 729 q 308 851 338 824 q 224 879 278 879 q 142 855 174 879 q 100 788 110 831 l 43 808 q 108 899 60 867 q 226 931 157 931 m 915 917 l 986 917 l 332 0 l 261 0 l 915 917 m 1129 146 l 1024 146 l 1024 -6 l 969 -6 l 969 146 l 694 146 l 694 182 l 954 546 l 1024 546 l 1024 192 l 1129 192 l 1129 146 m 969 192 l 969 410 q 972 493 969 438 l 969 493 l 953 465 q 940 446 947 457 q 925 424 933 435 l 756 192 l 969 192 z "},"➀":{"ha":1264,"x_min":119,"x_max":1144,"o":"m 632 -56 q 365 10 482 -56 q 184 192 249 75 q 119 458 119 308 q 184 725 119 608 q 365 907 249 842 q 632 972 482 972 q 899 907 782 972 q 1080 725 1015 842 q 1144 458 1144 608 q 1080 192 1144 308 q 899 10 1015 75 q 632 -56 782 -56 m 632 -3 q 867 56 764 -3 q 1028 220 971 115 q 1086 458 1086 325 q 1028 697 1086 592 q 867 860 971 801 q 632 919 764 919 q 397 860 500 919 q 235 697 293 801 q 178 458 178 592 q 235 220 178 325 q 397 56 293 115 q 632 -3 500 -3 m 688 740 l 688 189 l 625 189 l 625 576 q 629 671 625 621 q 558 615 599 639 q 474 579 517 590 l 474 632 q 564 674 515 643 q 633 740 613 706 l 688 740 z "},"➁":{"ha":1264,"x_min":119,"x_max":1144,"o":"m 632 -56 q 365 10 482 -56 q 184 192 249 75 q 119 458 119 308 q 184 725 119 608 q 365 907 249 842 q 632 972 482 972 q 899 907 782 972 q 1080 725 1015 842 q 1144 458 1144 608 q 1080 192 1144 308 q 899 10 1015 75 q 632 -56 782 -56 m 632 -3 q 867 56 764 -3 q 1028 220 971 115 q 1086 458 1086 325 q 1028 697 1086 592 q 867 860 971 801 q 632 919 764 919 q 397 860 500 919 q 235 697 293 801 q 178 458 178 592 q 235 220 178 325 q 397 56 293 115 q 632 -3 500 -3 m 444 249 q 586 361 515 303 q 713 483 674 431 q 753 588 753 535 q 719 676 753 643 q 626 710 685 710 q 527 672 564 710 q 488 568 490 633 l 432 586 q 490 714 438 667 q 628 761 542 761 q 767 713 717 761 q 817 590 817 665 q 631 335 817 475 l 526 253 l 526 251 q 590 254 554 254 l 833 254 l 833 203 l 444 203 l 444 249 z "},"➂":{"ha":1264,"x_min":119,"x_max":1144,"o":"m 632 -56 q 365 10 482 -56 q 184 192 249 75 q 119 458 119 308 q 184 725 119 608 q 365 907 249 842 q 632 972 482 972 q 899 907 782 972 q 1080 725 1015 842 q 1144 458 1144 608 q 1080 192 1144 308 q 899 10 1015 75 q 632 -56 782 -56 m 632 -3 q 867 56 764 -3 q 1028 220 971 115 q 1086 458 1086 325 q 1028 697 1086 592 q 867 860 971 801 q 632 919 764 919 q 397 860 500 919 q 235 697 293 801 q 178 458 178 592 q 235 220 178 325 q 397 56 293 115 q 632 -3 500 -3 m 638 743 q 767 702 721 743 q 814 594 814 661 q 783 506 814 542 q 708 463 753 471 l 708 461 q 792 423 757 458 q 826 332 826 388 q 773 219 826 263 q 635 176 719 176 q 507 210 557 176 q 438 307 457 243 l 496 333 q 636 228 518 228 q 728 258 693 228 q 763 339 763 288 q 731 412 763 386 q 639 438 700 438 l 604 438 l 604 485 l 636 485 q 719 513 690 485 q 749 588 749 542 q 719 664 749 636 q 635 692 689 692 q 553 667 585 692 q 511 600 521 643 l 454 621 q 519 711 471 679 q 638 743 568 743 z "},"➃":{"ha":1264,"x_min":119,"x_max":1144,"o":"m 632 -56 q 365 10 482 -56 q 184 192 249 75 q 119 458 119 308 q 184 725 119 608 q 365 907 249 842 q 632 972 482 972 q 899 907 782 972 q 1080 725 1015 842 q 1144 458 1144 608 q 1080 192 1144 308 q 899 10 1015 75 q 632 -56 782 -56 m 632 -3 q 867 56 764 -3 q 1028 220 971 115 q 1086 458 1086 325 q 1028 697 1086 592 q 867 860 971 801 q 632 919 764 919 q 397 860 500 919 q 235 697 293 801 q 178 458 178 592 q 235 220 178 325 q 397 56 293 115 q 632 -3 500 -3 m 818 340 l 713 340 l 713 189 l 658 189 l 658 340 l 383 340 l 383 376 l 643 740 l 713 740 l 713 386 l 818 386 l 818 340 m 658 386 l 658 604 q 661 688 658 632 l 658 688 l 642 660 q 629 640 636 651 q 614 618 622 629 l 444 386 l 658 386 z "},"➄":{"ha":1264,"x_min":119,"x_max":1144,"o":"m 632 -56 q 365 10 482 -56 q 184 192 249 75 q 119 458 119 308 q 184 725 119 608 q 365 907 249 842 q 632 972 482 972 q 899 907 782 972 q 1080 725 1015 842 q 1144 458 1144 608 q 1080 192 1144 308 q 899 10 1015 75 q 632 -56 782 -56 m 632 -3 q 867 56 764 -3 q 1028 220 971 115 q 1086 458 1086 325 q 1028 697 1086 592 q 867 860 971 801 q 632 919 764 919 q 397 860 500 919 q 235 697 293 801 q 178 458 178 592 q 235 220 178 325 q 397 56 293 115 q 632 -3 500 -3 m 650 526 q 778 478 729 526 q 828 353 828 429 q 774 219 828 268 q 632 171 719 171 q 433 297 476 171 l 489 326 q 631 222 511 222 q 728 258 690 222 q 765 351 765 294 q 731 445 765 411 q 635 479 697 479 q 553 464 585 479 q 501 418 521 449 l 451 418 l 478 729 l 801 729 l 801 678 l 526 678 l 511 513 q 504 474 507 482 l 506 474 q 562 513 528 499 q 650 526 596 526 z "},"➅":{"ha":1264,"x_min":119,"x_max":1144,"o":"m 632 -56 q 365 10 482 -56 q 184 192 249 75 q 119 458 119 308 q 184 725 119 608 q 365 907 249 842 q 632 972 482 972 q 899 907 782 972 q 1080 725 1015 842 q 1144 458 1144 608 q 1080 192 1144 308 q 899 10 1015 75 q 632 -56 782 -56 m 632 -3 q 867 56 764 -3 q 1028 220 971 115 q 1086 458 1086 325 q 1028 697 1086 592 q 867 860 971 801 q 632 919 764 919 q 397 860 500 919 q 235 697 293 801 q 178 458 178 592 q 235 220 178 325 q 397 56 293 115 q 632 -3 500 -3 m 629 176 q 472 249 526 176 q 417 460 417 322 q 478 670 417 597 q 639 743 540 743 q 808 633 767 743 l 757 608 q 714 669 743 647 q 638 692 685 692 q 516 624 557 692 q 475 457 475 556 q 476 415 475 428 l 478 415 q 537 497 496 468 q 636 525 578 525 q 770 478 721 525 q 819 351 819 431 q 769 223 819 269 q 629 176 718 176 m 629 226 q 725 260 690 226 q 760 351 760 293 q 725 442 760 408 q 631 475 690 475 q 534 438 572 475 q 496 351 496 400 q 533 262 496 297 q 629 226 571 226 z "},"➆":{"ha":1264,"x_min":119,"x_max":1144,"o":"m 632 -56 q 365 10 482 -56 q 184 192 249 75 q 119 458 119 308 q 184 725 119 608 q 365 907 249 842 q 632 972 482 972 q 899 907 782 972 q 1080 725 1015 842 q 1144 458 1144 608 q 1080 192 1144 308 q 899 10 1015 75 q 632 -56 782 -56 m 632 -3 q 867 56 764 -3 q 1028 220 971 115 q 1086 458 1086 325 q 1028 697 1086 592 q 867 860 971 801 q 632 919 764 919 q 397 860 500 919 q 235 697 293 801 q 178 458 178 592 q 235 220 178 325 q 397 56 293 115 q 632 -3 500 -3 m 842 718 l 842 667 q 690 436 739 558 q 640 167 640 314 l 579 167 q 629 433 579 307 q 779 667 679 560 l 436 667 l 436 718 l 842 718 z "},"➇":{"ha":1264,"x_min":119,"x_max":1144,"o":"m 632 -56 q 365 10 482 -56 q 184 192 249 75 q 119 458 119 308 q 184 725 119 608 q 365 907 249 842 q 632 972 482 972 q 899 907 782 972 q 1080 725 1015 842 q 1144 458 1144 608 q 1080 192 1144 308 q 899 10 1015 75 q 632 -56 782 -56 m 632 -3 q 867 56 764 -3 q 1028 220 971 115 q 1086 458 1086 325 q 1028 697 1086 592 q 867 860 971 801 q 632 919 764 919 q 397 860 500 919 q 235 697 293 801 q 178 458 178 592 q 235 220 178 325 q 397 56 293 115 q 632 -3 500 -3 m 632 742 q 765 703 715 742 q 814 599 814 664 q 788 519 814 553 q 714 472 761 486 l 714 471 q 804 419 771 456 q 838 331 838 383 q 781 218 838 260 q 632 176 725 176 q 483 218 539 176 q 426 331 426 260 q 460 419 426 382 q 550 471 493 456 l 550 472 q 476 519 503 486 q 449 599 449 553 q 498 703 449 664 q 632 742 547 742 m 632 694 q 544 667 576 694 q 511 596 511 640 q 544 524 511 551 q 632 496 576 496 q 720 524 688 496 q 753 596 753 551 q 720 667 753 640 q 632 694 688 694 m 632 225 q 735 256 696 225 q 775 335 775 286 q 735 415 775 385 q 632 446 696 446 q 528 415 568 446 q 489 335 489 385 q 528 256 489 286 q 632 225 568 225 z "},"➈":{"ha":1264,"x_min":119,"x_max":1144,"o":"m 632 -56 q 365 10 482 -56 q 184 192 249 75 q 119 458 119 308 q 184 725 119 608 q 365 907 249 842 q 632 972 482 972 q 899 907 782 972 q 1080 725 1015 842 q 1144 458 1144 608 q 1080 192 1144 308 q 899 10 1015 75 q 632 -56 782 -56 m 632 -3 q 867 56 764 -3 q 1028 220 971 115 q 1086 458 1086 325 q 1028 697 1086 592 q 867 860 971 801 q 632 919 764 919 q 397 860 500 919 q 235 697 293 801 q 178 458 178 592 q 235 220 178 325 q 397 56 293 115 q 632 -3 500 -3 m 632 743 q 790 668 733 743 q 846 458 846 593 q 788 249 846 322 q 631 176 731 176 q 508 207 557 176 q 439 296 458 238 l 497 321 q 632 226 518 226 q 751 292 713 226 q 789 449 789 357 q 783 511 789 472 l 782 511 q 729 428 776 463 q 628 394 682 394 q 488 442 539 394 q 438 568 438 489 q 490 696 438 649 q 632 743 543 743 m 633 692 q 535 658 571 692 q 499 568 499 625 q 535 478 499 511 q 632 444 571 444 q 728 481 690 444 q 767 567 767 517 q 729 656 767 621 q 633 692 692 692 z "},"₀":{"ha":525,"x_min":50,"x_max":475,"o":"m 263 -271 q 104 -199 158 -271 q 50 13 50 -126 q 104 224 50 151 q 263 296 158 296 q 421 224 367 296 q 475 13 475 151 q 421 -199 475 -126 q 263 -271 367 -271 m 263 -219 q 376 -160 338 -219 q 414 13 414 -101 q 376 185 414 126 q 263 244 338 244 q 151 185 189 244 q 113 13 113 126 q 151 -160 113 -101 q 263 -219 189 -219 z "},"₁":{"ha":306,"x_min":14,"x_max":228,"o":"m 228 289 l 228 -262 l 165 -262 l 165 125 q 169 219 165 169 q 98 163 139 188 q 14 128 57 139 l 14 181 q 104 223 56 192 q 174 289 153 254 l 228 289 z "},"₂":{"ha":483,"x_min":40,"x_max":442,"o":"m 53 -217 q 194 -104 124 -162 q 322 17 282 -35 q 361 122 361 69 q 327 211 361 178 q 235 244 293 244 q 135 206 172 244 q 96 103 99 168 l 40 121 q 98 249 46 201 q 236 296 150 296 q 375 248 325 296 q 425 125 425 200 q 239 -131 425 10 l 135 -212 l 135 -214 q 199 -211 163 -211 l 442 -211 l 442 -262 l 53 -262 l 53 -217 z "},"₃":{"ha":467,"x_min":26,"x_max":415,"o":"m 226 296 q 356 255 310 296 q 403 147 403 214 q 372 59 403 94 q 297 15 342 24 l 297 14 q 381 -24 346 11 q 415 -115 415 -60 q 362 -228 415 -185 q 224 -271 308 -271 q 96 -237 146 -271 q 26 -140 46 -204 l 85 -114 q 225 -219 107 -219 q 317 -190 282 -219 q 351 -108 351 -160 q 320 -35 351 -61 q 228 -10 289 -10 l 193 -10 l 193 38 l 225 38 q 308 66 279 38 q 338 140 338 94 q 308 217 338 189 q 224 244 278 244 q 142 220 174 244 q 100 153 110 196 l 43 174 q 108 264 60 232 q 226 296 157 296 z "},"₄":{"ha":478,"x_min":17,"x_max":451,"o":"m 451 -111 l 346 -111 l 346 -262 l 292 -262 l 292 -111 l 17 -111 l 17 -75 l 276 289 l 346 289 l 346 -65 l 451 -65 l 451 -111 m 292 -65 l 292 153 q 294 236 292 181 l 292 236 l 275 208 q 263 189 269 200 q 247 167 256 178 l 78 -65 l 292 -65 z "},"₅":{"ha":479,"x_min":43,"x_max":438,"o":"m 260 86 q 388 38 339 86 q 438 -87 438 -11 q 383 -221 438 -172 q 242 -269 329 -269 q 43 -143 86 -269 l 99 -114 q 240 -218 121 -218 q 338 -182 300 -218 q 375 -89 375 -146 q 341 5 375 -29 q 244 39 307 39 q 163 24 194 39 q 111 -22 131 8 l 61 -22 l 88 289 l 411 289 l 411 238 l 136 238 l 121 72 q 114 33 117 42 l 115 33 q 172 72 138 58 q 260 86 206 86 z "},"₆":{"ha":497,"x_min":50,"x_max":453,"o":"m 263 -271 q 105 -198 160 -271 q 50 13 50 -125 q 112 223 50 150 q 272 296 174 296 q 442 186 400 296 l 390 161 q 347 222 376 200 q 271 244 318 244 q 149 176 190 244 q 108 10 108 108 q 110 -32 108 -19 l 111 -32 q 170 49 129 21 q 269 78 211 78 q 403 31 354 78 q 453 -96 453 -17 q 402 -224 453 -178 q 263 -271 351 -271 m 263 -221 q 358 -187 324 -221 q 393 -96 393 -154 q 358 -6 393 -39 q 264 28 324 28 q 167 -10 206 28 q 129 -96 129 -47 q 167 -185 129 -150 q 263 -221 204 -221 z "},"₇":{"ha":422,"x_min":6,"x_max":411,"o":"m 411 289 l 411 238 q 259 7 308 129 q 210 -262 210 -115 l 149 -262 q 199 4 149 -122 q 349 238 249 131 l 6 238 l 6 289 l 411 289 z "},"₈":{"ha":508,"x_min":49,"x_max":460,"o":"m 254 294 q 387 256 338 294 q 436 151 436 217 q 410 72 436 106 q 336 25 383 39 l 336 24 q 426 -28 393 8 q 460 -117 460 -64 q 403 -229 460 -187 q 254 -271 347 -271 q 105 -229 161 -271 q 49 -117 49 -187 q 82 -28 49 -65 q 172 24 115 8 l 172 25 q 98 72 125 39 q 71 151 71 106 q 120 256 71 217 q 254 294 169 294 m 254 247 q 166 220 199 247 q 133 149 133 193 q 166 76 133 104 q 254 49 199 49 q 342 76 310 49 q 375 149 375 104 q 342 220 375 193 q 254 247 310 247 m 254 -222 q 358 -192 318 -222 q 397 -112 397 -161 q 358 -32 397 -62 q 254 -1 318 -1 q 151 -32 190 -1 q 111 -112 111 -62 q 151 -192 111 -161 q 254 -222 190 -222 z "},"₉":{"ha":508,"x_min":50,"x_max":458,"o":"m 244 296 q 402 221 346 296 q 458 11 458 146 q 401 -198 458 -125 q 243 -271 343 -271 q 120 -240 169 -271 q 51 -151 71 -210 l 110 -126 q 244 -221 131 -221 q 363 -156 325 -221 q 401 1 401 -90 q 396 64 401 25 l 394 64 q 342 -19 389 15 q 240 -53 294 -53 q 101 -6 151 -53 q 50 121 50 42 q 103 249 50 201 q 244 296 156 296 m 246 244 q 147 211 183 244 q 111 121 111 178 q 147 31 111 64 q 244 -3 183 -3 q 341 33 303 -3 q 379 119 379 69 q 342 209 379 174 q 246 244 304 244 z "},"⁰":{"ha":525,"x_min":50,"x_max":475,"o":"m 263 454 q 104 526 158 454 q 50 738 50 599 q 104 949 50 876 q 263 1021 158 1021 q 421 949 367 1021 q 475 738 475 876 q 421 526 475 599 q 263 454 367 454 m 263 506 q 376 565 338 506 q 414 738 414 624 q 376 910 414 851 q 263 969 338 969 q 151 910 189 969 q 113 738 113 851 q 151 565 113 624 q 263 506 189 506 z "},"¹":{"ha":306,"x_min":14,"x_max":228,"o":"m 228 1014 l 228 463 l 165 463 l 165 850 q 169 944 165 894 q 98 888 139 913 q 14 853 57 864 l 14 906 q 104 948 56 917 q 174 1014 153 979 l 228 1014 z "},"²":{"ha":483,"x_min":40,"x_max":442,"o":"m 53 508 q 194 621 124 563 q 322 742 282 690 q 361 847 361 794 q 327 936 361 903 q 235 969 293 969 q 135 931 172 969 q 96 828 99 893 l 40 846 q 98 974 46 926 q 236 1021 150 1021 q 375 973 325 1021 q 425 850 425 925 q 239 594 425 735 l 135 513 l 135 511 q 199 514 163 514 l 442 514 l 442 463 l 53 463 l 53 508 z "},"³":{"ha":467,"x_min":26,"x_max":415,"o":"m 226 1021 q 356 980 310 1021 q 403 872 403 939 q 372 784 403 819 q 297 740 342 749 l 297 739 q 381 701 346 736 q 415 610 415 665 q 362 497 415 540 q 224 454 308 454 q 96 488 146 454 q 26 585 46 521 l 85 611 q 225 506 107 506 q 317 535 282 506 q 351 617 351 565 q 320 690 351 664 q 228 715 289 715 l 193 715 l 193 763 l 225 763 q 308 791 279 763 q 338 865 338 819 q 308 942 338 914 q 224 969 278 969 q 142 945 174 969 q 100 878 110 921 l 43 899 q 108 989 60 957 q 226 1021 157 1021 z "},"⁴":{"ha":478,"x_min":17,"x_max":451,"o":"m 451 614 l 346 614 l 346 463 l 292 463 l 292 614 l 17 614 l 17 650 l 276 1014 l 346 1014 l 346 660 l 451 660 l 451 614 m 292 660 l 292 878 q 294 961 292 906 l 292 961 l 275 933 q 263 914 269 925 q 247 892 256 903 l 78 660 l 292 660 z "},"⁵":{"ha":479,"x_min":43,"x_max":438,"o":"m 260 811 q 388 763 339 811 q 438 638 438 714 q 383 504 438 553 q 242 456 329 456 q 43 582 86 456 l 99 611 q 240 507 121 507 q 338 543 300 507 q 375 636 375 579 q 341 730 375 696 q 244 764 307 764 q 163 749 194 764 q 111 703 131 733 l 61 703 l 88 1014 l 411 1014 l 411 963 l 136 963 l 121 797 q 114 758 117 767 l 115 758 q 172 797 138 783 q 260 811 206 811 z "},"⁶":{"ha":497,"x_min":50,"x_max":453,"o":"m 263 454 q 105 527 160 454 q 50 738 50 600 q 112 948 50 875 q 272 1021 174 1021 q 442 911 400 1021 l 390 886 q 347 947 376 925 q 271 969 318 969 q 149 901 190 969 q 108 735 108 833 q 110 693 108 706 l 111 693 q 170 774 129 746 q 269 803 211 803 q 403 756 354 803 q 453 629 453 708 q 402 501 453 547 q 263 454 351 454 m 263 504 q 358 538 324 504 q 393 629 393 571 q 358 719 393 686 q 264 753 324 753 q 167 715 206 753 q 129 629 129 678 q 167 540 129 575 q 263 504 204 504 z "},"⁷":{"ha":422,"x_min":6,"x_max":411,"o":"m 411 1014 l 411 963 q 259 732 308 854 q 210 463 210 610 l 149 463 q 199 729 149 603 q 349 963 249 856 l 6 963 l 6 1014 l 411 1014 z "},"⁸":{"ha":508,"x_min":49,"x_max":460,"o":"m 254 1019 q 387 981 338 1019 q 436 876 436 942 q 410 797 436 831 q 336 750 383 764 l 336 749 q 426 697 393 733 q 460 608 460 661 q 403 496 460 538 q 254 454 347 454 q 105 496 161 454 q 49 608 49 538 q 82 697 49 660 q 172 749 115 733 l 172 750 q 98 797 125 764 q 71 876 71 831 q 120 981 71 942 q 254 1019 169 1019 m 254 972 q 166 945 199 972 q 133 874 133 918 q 166 801 133 829 q 254 774 199 774 q 342 801 310 774 q 375 874 375 829 q 342 945 375 918 q 254 972 310 972 m 254 503 q 358 533 318 503 q 397 613 397 564 q 358 693 397 663 q 254 724 318 724 q 151 693 190 724 q 111 613 111 663 q 151 533 111 564 q 254 503 190 503 z "},"⁹":{"ha":508,"x_min":50,"x_max":458,"o":"m 244 1021 q 402 946 346 1021 q 458 736 458 871 q 401 527 458 600 q 243 454 343 454 q 120 485 169 454 q 51 574 71 515 l 110 599 q 244 504 131 504 q 363 569 325 504 q 401 726 401 635 q 396 789 401 750 l 394 789 q 342 706 389 740 q 240 672 294 672 q 101 719 151 672 q 50 846 50 767 q 103 974 50 926 q 244 1021 156 1021 m 246 969 q 147 936 183 969 q 111 846 111 903 q 147 756 111 789 q 244 722 183 722 q 341 758 303 722 q 379 844 379 794 q 342 934 379 899 q 246 969 304 969 z "},"*":{"ha":754,"x_min":69,"x_max":685,"o":"m 482 606 l 585 461 l 539 428 l 433 569 l 376 665 l 321 569 l 215 428 l 169 461 l 272 606 l 344 689 l 236 714 l 69 769 l 86 824 l 254 771 l 357 728 l 347 838 l 347 1014 l 407 1014 l 407 838 l 397 728 l 499 771 l 668 824 l 685 769 l 518 714 l 410 689 l 482 606 z "},"\\":{"ha":550,"x_min":44,"x_max":507,"o":"m 111 1014 l 507 -97 l 440 -97 l 44 1014 l 111 1014 z "},"·":{"ha":292,"x_min":83,"x_max":208,"o":"m 146 558 q 191 541 174 558 q 208 496 208 524 q 191 451 208 468 q 146 435 174 435 q 101 451 118 435 q 83 496 83 468 q 101 541 83 524 q 146 558 118 558 z "},"•":{"ha":597,"x_min":167,"x_max":431,"o":"m 299 597 q 393 561 356 597 q 431 469 431 525 q 393 378 431 414 q 299 342 356 342 q 204 378 242 342 q 167 469 167 414 q 204 561 167 525 q 299 597 242 597 z "},":":{"ha":343,"x_min":110,"x_max":235,"o":"m 172 701 q 217 684 200 701 q 235 639 235 667 q 217 594 235 611 q 172 576 200 576 q 127 594 144 576 q 110 639 110 611 q 127 684 110 667 q 172 701 144 701 m 172 114 q 217 97 200 114 q 235 51 235 79 q 217 6 235 24 q 172 -11 200 -11 q 127 6 144 -11 q 110 51 110 24 q 127 97 110 79 q 172 114 144 114 z "},",":{"ha":306,"x_min":72,"x_max":231,"o":"m 154 114 q 210 86 190 114 q 231 13 231 58 q 200 -97 231 -46 q 111 -178 169 -149 l 72 -143 q 152 -82 121 -125 q 181 1 183 -39 l 176 3 q 144 -11 167 -11 q 107 6 124 -11 q 90 50 90 22 q 109 95 90 76 q 154 114 128 114 z "},"…":{"ha":981,"x_min":100,"x_max":882,"o":"m 819 114 q 865 97 847 114 q 882 51 882 79 q 865 6 882 24 q 819 -11 847 -11 q 774 6 792 -11 q 757 51 757 24 q 774 97 757 79 q 819 114 792 114 m 490 114 q 535 97 518 114 q 553 51 553 79 q 535 6 553 24 q 490 -11 518 -11 q 445 6 463 -11 q 428 51 428 24 q 445 97 428 79 q 490 114 463 114 m 163 114 q 208 97 190 114 q 225 51 225 79 q 208 6 225 24 q 163 -11 190 -11 q 117 6 135 -11 q 100 51 100 24 q 117 97 100 79 q 163 114 135 114 z "},"!":{"ha":319,"x_min":97,"x_max":222,"o":"m 196 472 l 188 264 l 132 264 l 124 472 l 124 917 l 196 917 l 196 472 m 160 114 q 205 97 188 114 q 222 51 222 79 q 205 6 222 24 q 160 -11 188 -11 q 115 6 132 -11 q 97 51 97 24 q 115 97 97 79 q 160 114 132 114 z "},"¡":{"ha":308,"x_min":92,"x_max":217,"o":"m 154 581 q 109 598 126 581 q 92 643 92 615 q 109 688 92 671 q 154 706 126 706 q 199 688 182 706 q 217 643 217 671 q 199 598 217 615 q 154 581 182 581 m 118 222 l 126 431 l 182 431 l 190 222 l 190 -222 l 118 -222 l 118 222 z "},"#":{"ha":883,"x_min":43,"x_max":840,"o":"m 647 596 l 606 331 l 789 331 l 789 276 l 596 276 l 553 0 l 492 0 l 536 276 l 285 276 l 242 0 l 181 0 l 225 276 l 43 276 l 43 331 l 233 331 l 275 596 l 94 596 l 94 650 l 285 650 l 326 917 l 388 917 l 344 650 l 596 650 l 638 917 l 699 917 l 656 650 l 840 650 l 840 596 l 647 596 m 588 596 l 336 596 l 294 331 l 544 331 l 588 596 z "},".":{"ha":306,"x_min":90,"x_max":215,"o":"m 153 114 q 198 97 181 114 q 215 51 215 79 q 198 6 215 24 q 153 -11 181 -11 q 108 6 125 -11 q 90 51 90 24 q 108 97 90 79 q 153 114 125 114 z "},"?":{"ha":708,"x_min":49,"x_max":644,"o":"m 358 931 q 565 867 486 931 q 644 694 644 803 q 376 415 644 471 l 376 251 l 306 251 l 306 453 q 512 540 451 486 q 572 688 572 593 q 514 819 572 771 q 354 867 456 867 q 184 813 246 867 q 110 661 122 760 l 49 694 q 148 868 69 806 q 358 931 226 931 m 340 114 q 385 97 368 114 q 401 51 401 79 q 385 6 401 24 q 340 -11 368 -11 q 295 6 313 -11 q 278 51 278 24 q 295 97 278 79 q 340 114 313 114 z "},"¿":{"ha":701,"x_min":60,"x_max":656,"o":"m 364 578 q 319 595 336 578 q 303 640 303 613 q 319 685 303 668 q 364 703 336 703 q 409 685 392 703 q 426 640 426 668 q 409 595 426 613 q 364 578 392 578 m 346 -239 q 140 -176 219 -239 q 60 -4 60 -112 q 328 276 60 221 l 328 440 l 400 440 l 400 239 q 192 151 253 204 q 132 4 132 99 q 190 -127 132 -79 q 350 -175 249 -175 q 520 -122 458 -175 q 594 31 582 -68 l 656 -4 q 556 -177 635 -115 q 346 -239 478 -239 z "},"\"":{"ha":454,"x_min":104,"x_max":364,"o":"m 344 667 l 289 667 l 289 951 l 364 951 l 344 667 m 160 667 l 104 667 l 104 951 l 179 951 l 160 667 z "},"'":{"ha":269,"x_min":104,"x_max":179,"o":"m 160 667 l 104 667 l 104 951 l 179 951 l 160 667 z "},";":{"ha":343,"x_min":93,"x_max":250,"o":"m 178 578 q 133 594 150 578 q 115 639 115 611 q 133 684 115 667 q 178 701 150 701 q 223 684 206 701 q 240 639 240 667 q 223 594 240 611 q 178 578 206 578 m 174 114 q 230 86 210 114 q 250 13 250 58 q 219 -97 250 -46 q 131 -178 189 -149 l 93 -143 q 172 -82 140 -125 q 200 1 203 -39 l 196 3 q 164 -11 186 -11 q 126 6 143 -11 q 110 50 110 22 q 128 95 110 76 q 174 114 147 114 z "},"/":{"ha":550,"x_min":43,"x_max":506,"o":"m 110 -97 l 43 -97 l 439 1014 l 506 1014 l 110 -97 z "},"_":{"ha":722,"x_min":0,"x_max":722,"o":"m 722 -199 l 0 -199 l 0 -135 l 722 -135 l 722 -199 z "},"₍":{"ha":290,"x_min":97,"x_max":301,"o":"m 301 378 q 192 215 228 301 q 157 13 157 128 q 192 -189 157 -103 q 301 -351 226 -275 l 267 -383 q 141 -208 185 -308 q 97 13 97 -107 q 141 233 97 132 q 267 408 185 333 l 301 378 z "},"₎":{"ha":290,"x_min":-10,"x_max":193,"o":"m 25 408 q 149 233 106 333 q 193 13 193 132 q 149 -208 193 -107 q 25 -383 106 -308 l -10 -351 q 99 -188 64 -275 q 133 13 133 -101 q 99 215 133 128 q -10 378 64 301 l 25 408 z "},"{":{"ha":428,"x_min":26,"x_max":385,"o":"m 249 -90 q 385 -193 249 -193 l 375 -250 q 183 -86 183 -250 l 183 225 q 144 329 183 296 q 26 363 106 363 l 26 424 q 144 458 106 424 q 183 561 183 492 l 183 871 q 231 994 183 951 q 375 1036 278 1036 l 385 979 q 283 953 317 979 q 249 876 249 926 l 249 556 q 214 450 249 492 q 114 393 179 408 q 214 336 179 378 q 249 231 249 294 l 249 -90 z "},"}":{"ha":428,"x_min":43,"x_max":401,"o":"m 244 561 q 283 458 244 492 q 401 424 322 424 l 401 363 q 283 329 322 363 q 244 225 244 296 l 244 -86 q 53 -250 244 -250 l 43 -193 q 179 -90 179 -193 l 179 231 q 214 336 179 294 q 313 393 249 378 q 214 451 249 408 q 179 556 179 493 l 179 876 q 145 953 179 926 q 43 979 111 979 l 53 1036 q 197 994 150 1036 q 244 871 244 951 l 244 561 z "},"[":{"ha":432,"x_min":114,"x_max":400,"o":"m 179 953 l 179 -172 l 400 -172 l 400 -233 l 114 -233 l 114 1014 l 400 1014 l 400 953 l 179 953 z "},"]":{"ha":432,"x_min":32,"x_max":318,"o":"m 318 -233 l 32 -233 l 32 -172 l 253 -172 l 253 953 l 32 953 l 32 1014 l 318 1014 l 318 -233 z "},"(":{"ha":424,"x_min":79,"x_max":396,"o":"m 396 996 q 208 737 265 881 q 150 393 150 593 q 208 49 150 193 q 396 -210 265 -94 l 357 -250 q 148 28 217 -131 q 79 393 79 188 q 148 757 79 597 q 357 1036 217 917 l 396 996 z "},")":{"ha":424,"x_min":28,"x_max":343,"o":"m 67 1036 q 274 757 206 917 q 343 393 343 597 q 274 29 343 189 q 67 -250 206 -131 l 28 -210 q 216 49 158 -94 q 274 393 274 193 q 216 737 274 593 q 28 996 158 881 l 67 1036 z "},"⁽":{"ha":290,"x_min":97,"x_max":301,"o":"m 301 1103 q 192 940 228 1026 q 157 738 157 853 q 192 536 157 622 q 301 374 226 450 l 267 342 q 141 517 185 417 q 97 738 97 618 q 141 958 97 857 q 267 1133 185 1058 l 301 1103 z "},"⁾":{"ha":290,"x_min":-10,"x_max":193,"o":"m 25 1133 q 149 958 106 1058 q 193 738 193 857 q 149 517 193 618 q 25 342 106 417 l -10 374 q 99 537 64 450 q 133 738 133 624 q 99 940 133 853 q -10 1103 64 1026 l 25 1133 z "},"—":{"ha":1360,"x_min":104,"x_max":1254,"o":"m 1254 336 l 104 336 l 104 401 l 1254 401 l 1254 336 z "},"–":{"ha":886,"x_min":104,"x_max":782,"o":"m 782 336 l 104 336 l 104 401 l 782 401 l 782 336 z "},"-":{"ha":647,"x_min":111,"x_max":538,"o":"m 538 333 l 111 333 l 111 404 l 538 404 l 538 333 z "},"­":{"ha":647,"x_min":111,"x_max":538,"o":"m 538 333 l 111 333 l 111 404 l 538 404 l 538 333 z "},"«":{"ha":611,"x_min":68,"x_max":539,"o":"m 143 368 l 332 96 l 254 96 l 68 368 l 254 640 l 332 640 l 143 368 m 350 368 l 539 96 l 461 96 l 275 368 l 461 640 l 539 640 l 350 368 z "},"»":{"ha":607,"x_min":68,"x_max":539,"o":"m 146 640 l 332 368 l 146 96 l 68 96 l 257 368 l 68 640 l 146 640 m 353 640 l 539 368 l 353 96 l 275 96 l 464 368 l 275 640 l 353 640 z "},"‹":{"ha":403,"x_min":68,"x_max":332,"o":"m 143 368 l 332 96 l 254 96 l 68 368 l 254 640 l 332 640 l 143 368 z "},"›":{"ha":403,"x_min":71,"x_max":336,"o":"m 149 640 l 336 368 l 149 96 l 71 96 l 260 368 l 71 640 l 149 640 z "},"„":{"ha":513,"x_min":71,"x_max":432,"o":"m 153 114 q 209 86 189 114 q 229 13 229 58 q 199 -97 229 -46 q 110 -178 168 -149 l 71 -143 q 151 -82 119 -125 q 179 1 182 -39 l 175 3 q 143 -11 165 -11 q 106 6 122 -11 q 89 50 89 22 q 108 95 89 76 q 153 114 126 114 m 356 114 q 412 86 392 114 q 432 13 432 58 q 401 -97 432 -46 q 313 -178 371 -149 l 274 -143 q 353 -82 322 -125 q 382 1 385 -39 l 378 3 q 346 -11 368 -11 q 308 6 325 -11 q 292 50 292 22 q 310 95 292 76 q 356 114 329 114 z "},"“":{"ha":503,"x_min":74,"x_max":435,"o":"m 151 675 q 94 703 115 675 q 74 775 74 731 q 103 885 74 835 q 193 965 133 936 l 232 931 q 152 871 183 914 q 124 788 121 828 l 128 786 q 160 799 136 799 q 197 782 181 799 q 214 738 214 765 q 196 694 214 713 q 151 675 178 675 m 354 675 q 297 703 318 675 q 276 775 276 731 q 306 885 276 835 q 396 965 336 936 l 435 931 q 355 871 386 914 q 326 788 324 828 l 331 786 q 363 799 339 799 q 400 782 383 799 q 417 738 417 765 q 399 694 417 713 q 354 675 381 675 z "},"”":{"ha":503,"x_min":75,"x_max":436,"o":"m 156 964 q 213 936 192 964 q 233 864 233 908 q 203 753 233 804 q 114 674 174 703 l 75 708 q 155 768 124 725 q 183 851 186 811 l 179 853 q 147 840 171 840 q 110 856 126 840 q 93 900 93 872 q 111 945 93 926 q 156 964 129 964 m 358 964 q 415 936 394 964 q 436 864 436 908 q 406 753 436 804 q 317 674 376 703 l 278 708 q 358 768 326 725 q 386 851 389 811 l 382 853 q 350 840 374 840 q 313 856 329 840 q 296 900 296 872 q 314 945 296 926 q 358 964 332 964 z "},"‘":{"ha":301,"x_min":74,"x_max":232,"o":"m 151 675 q 94 703 115 675 q 74 775 74 731 q 103 885 74 835 q 193 965 133 936 l 232 931 q 152 871 183 914 q 124 788 121 828 l 128 786 q 160 799 136 799 q 197 782 181 799 q 214 738 214 765 q 196 694 214 713 q 151 675 178 675 z "},"’":{"ha":300,"x_min":75,"x_max":233,"o":"m 156 964 q 213 936 192 964 q 233 864 233 908 q 203 753 233 804 q 114 674 174 703 l 75 708 q 155 768 124 725 q 183 851 186 811 l 179 853 q 147 840 171 840 q 110 856 126 840 q 93 900 93 872 q 111 945 93 926 q 156 964 129 964 z "},"‚":{"ha":310,"x_min":71,"x_max":229,"o":"m 153 114 q 209 86 189 114 q 229 13 229 58 q 199 -97 229 -46 q 110 -178 168 -149 l 71 -143 q 151 -82 119 -125 q 179 1 182 -39 l 175 3 q 143 -11 165 -11 q 106 6 122 -11 q 89 50 89 22 q 108 95 89 76 q 153 114 126 114 z "}," ":{"ha":435,"x_min":0,"x_max":0,"o":""},"€":{"ha":939,"x_min":68,"x_max":875,"o":"m 875 235 q 753 51 842 117 q 554 -14 665 -14 q 315 74 408 -14 q 192 319 221 161 l 68 319 l 68 378 l 185 378 q 181 458 181 415 q 183 528 181 483 l 68 528 l 68 586 l 190 586 q 312 840 218 750 q 551 931 406 931 q 746 878 665 931 q 861 725 826 825 l 800 693 q 710 824 774 779 q 557 869 646 869 q 364 795 442 869 q 261 586 286 721 l 628 586 l 607 528 l 253 528 q 250 458 250 483 q 254 378 250 415 l 572 378 l 551 319 l 263 319 q 366 118 290 189 q 556 47 442 47 q 715 102 644 47 q 813 260 786 157 l 875 235 z "},"¢":{"ha":768,"x_min":86,"x_max":701,"o":"m 701 192 q 605 47 676 101 q 433 -14 533 -7 l 433 -139 l 375 -139 l 375 -12 q 163 94 239 0 q 86 347 86 189 q 163 599 86 504 q 375 707 239 694 l 375 833 l 433 833 l 433 708 q 597 654 531 703 q 694 521 664 606 l 629 490 q 558 605 608 564 q 433 650 507 646 l 433 44 q 567 94 513 50 q 639 213 622 139 l 701 192 m 153 347 q 210 136 153 215 q 375 44 268 57 l 375 649 q 210 558 268 636 q 153 347 153 479 z "},"¤":{"ha":882,"x_min":92,"x_max":790,"o":"m 711 460 q 657 285 711 356 l 790 153 l 746 108 l 613 239 q 442 183 542 183 q 268 240 340 183 l 138 108 l 92 153 l 224 286 q 171 460 171 358 q 224 631 171 560 l 92 761 l 138 807 l 268 676 q 442 733 340 733 q 617 675 546 733 l 746 807 l 790 761 l 660 629 q 711 460 711 558 m 442 246 q 587 305 532 246 q 642 460 642 364 q 587 613 642 554 q 442 671 532 671 q 296 613 351 671 q 240 460 240 554 q 296 305 240 364 q 442 246 351 246 z "},"$":{"ha":832,"x_min":72,"x_max":750,"o":"m 396 1 q 188 69 272 8 q 72 238 103 131 l 136 271 q 225 126 154 182 q 396 60 296 71 l 396 429 q 241 471 301 449 q 140 539 181 493 q 100 663 100 585 q 135 786 100 729 q 238 878 171 843 q 396 915 306 913 l 396 1056 l 456 1056 l 456 915 q 634 860 564 910 q 743 717 704 811 l 688 672 q 601 805 657 761 q 456 856 544 849 l 456 478 q 610 436 550 458 q 710 368 669 414 q 750 243 750 322 q 670 72 750 138 q 456 1 590 7 l 456 -139 l 396 -139 l 396 1 m 396 857 q 228 801 289 853 q 167 668 167 750 q 197 578 167 613 q 275 525 228 543 q 396 490 322 507 l 396 857 m 456 58 q 622 109 558 63 q 685 238 685 156 q 654 328 685 293 q 576 383 624 364 q 456 417 529 401 l 456 58 z "},"ƒ":{"ha":619,"x_min":-46,"x_max":617,"o":"m 519 958 q 385 811 406 958 l 344 556 l 563 556 l 563 496 l 335 496 l 261 26 q 64 -178 228 -178 q 6 -172 29 -178 q -46 -149 -18 -165 l -33 -89 q 58 -115 6 -115 q 190 32 168 -115 l 264 496 l 57 496 l 57 556 l 272 556 l 314 817 q 378 970 331 919 q 508 1021 426 1021 q 567 1015 544 1021 q 617 994 590 1010 l 607 932 q 519 958 567 958 z "},"£":{"ha":835,"x_min":57,"x_max":785,"o":"m 785 188 q 735 37 785 88 q 600 -14 686 -14 q 496 7 540 -14 q 394 68 451 28 q 310 8 360 31 q 200 -14 260 -14 q 96 15 135 -14 q 57 93 57 44 q 99 172 57 140 q 211 203 140 203 q 305 187 264 203 q 385 143 346 171 q 403 228 403 181 q 387 310 403 271 q 333 403 371 350 l 125 403 l 125 460 l 289 460 q 222 567 242 522 q 203 663 203 613 q 238 801 203 740 q 338 897 274 863 q 483 931 401 931 q 656 876 589 931 q 743 721 722 822 l 682 689 q 615 821 667 774 q 481 868 564 868 q 324 815 382 868 q 267 672 267 761 q 286 583 267 626 q 358 468 306 540 l 365 460 l 640 460 l 640 403 l 403 403 q 444 316 432 356 q 457 232 457 276 q 426 113 457 169 q 508 60 472 78 q 592 43 543 43 q 693 78 660 43 q 728 188 726 114 l 785 188 m 207 35 q 291 51 253 35 q 356 97 329 68 q 285 136 318 122 q 213 150 251 150 q 145 135 169 150 q 121 93 121 119 q 144 50 121 65 q 207 35 168 35 z "},"₺":{"ha":853,"x_min":75,"x_max":794,"o":"m 794 365 q 702 93 790 186 q 450 0 614 0 l 246 0 l 246 376 l 75 326 l 75 379 l 246 429 l 246 572 l 75 521 l 75 574 l 246 624 l 246 917 l 313 917 l 313 643 l 615 732 l 615 679 l 313 590 l 313 447 l 615 536 l 615 483 l 313 396 l 313 60 l 439 60 q 653 138 579 60 q 728 365 728 215 l 794 365 z "},"₽":{"ha":858,"x_min":57,"x_max":808,"o":"m 258 382 l 258 265 l 543 265 l 543 210 l 258 210 l 258 0 l 193 0 l 193 210 l 57 210 l 57 265 l 193 265 l 193 382 l 57 382 l 57 443 l 193 443 l 193 917 l 499 917 q 724 845 640 917 q 808 649 808 774 q 724 453 808 525 q 499 382 640 382 l 258 382 m 258 443 l 489 443 q 673 496 610 443 q 736 649 736 549 q 673 801 736 747 q 489 854 610 854 l 258 854 l 258 443 z "},"¥":{"ha":828,"x_min":54,"x_max":774,"o":"m 504 394 l 722 394 l 722 342 l 444 342 l 444 215 l 722 215 l 722 165 l 444 165 l 444 0 l 382 0 l 382 165 l 107 165 l 107 215 l 382 215 l 382 342 l 107 342 l 107 394 l 325 394 l 364 392 l 54 917 l 135 917 l 368 501 l 413 413 l 415 413 l 460 501 l 693 917 l 774 917 l 463 392 l 504 394 z "},"≈":{"ha":839,"x_min":103,"x_max":736,"o":"m 268 656 q 342 643 307 656 q 429 606 378 631 q 509 572 476 583 q 575 560 542 560 q 655 576 617 560 q 736 636 693 593 l 736 569 q 574 497 663 497 q 503 510 539 497 q 421 546 468 522 q 337 581 371 569 q 268 593 303 593 q 180 575 217 593 q 103 517 143 557 l 103 582 q 182 639 146 622 q 268 656 218 656 m 268 386 q 341 374 307 386 q 429 338 375 363 q 509 303 476 315 q 575 292 542 292 q 656 308 617 292 q 736 368 694 325 l 736 301 q 574 229 663 229 q 504 241 539 229 q 421 276 469 253 q 337 312 371 300 q 268 324 303 324 q 180 306 217 324 q 103 247 143 288 l 103 314 q 182 369 146 353 q 268 386 218 386 z "},"~":{"ha":710,"x_min":60,"x_max":650,"o":"m 650 540 q 493 369 633 369 q 417 383 449 369 q 342 425 386 397 q 280 460 306 449 q 224 472 254 472 q 126 365 144 472 l 60 365 q 218 536 76 536 q 294 522 261 536 q 369 481 326 508 q 431 445 406 457 q 488 433 457 433 q 585 540 565 433 l 650 540 z "},"÷":{"ha":839,"x_min":93,"x_max":746,"o":"m 419 767 q 465 749 447 767 q 482 704 482 732 q 465 659 482 676 q 419 642 447 642 q 374 659 392 642 q 357 704 357 676 q 374 749 357 732 q 419 767 392 767 m 746 407 l 93 407 l 93 471 l 746 471 l 746 407 m 419 236 q 465 219 447 236 q 482 175 482 203 q 465 130 482 147 q 419 113 447 113 q 374 130 392 113 q 357 175 357 147 q 374 219 357 203 q 419 236 392 236 z "},"=":{"ha":839,"x_min":104,"x_max":735,"o":"m 735 536 l 104 536 l 104 600 l 735 600 l 735 536 m 735 256 l 104 256 l 104 319 l 735 319 l 735 256 z "},"₌":{"ha":536,"x_min":81,"x_max":456,"o":"m 81 119 l 456 119 l 456 71 l 81 71 l 81 119 m 81 -46 l 456 -46 l 456 -93 l 81 -93 l 81 -46 z "},"⁼":{"ha":536,"x_min":81,"x_max":456,"o":"m 81 844 l 456 844 l 456 796 l 81 796 l 81 844 m 81 679 l 456 679 l 456 632 l 81 632 l 81 679 z "},">":{"ha":839,"x_min":89,"x_max":728,"o":"m 728 457 l 728 375 l 89 58 l 89 132 l 672 417 l 89 700 l 89 774 l 728 457 z "},"≥":{"ha":839,"x_min":92,"x_max":736,"o":"m 736 565 l 736 479 l 92 167 l 92 242 l 686 522 l 92 796 l 92 871 l 736 565 m 92 64 l 736 64 l 736 0 l 92 0 l 92 64 z "},"∞":{"ha":1218,"x_min":92,"x_max":1126,"o":"m 910 692 q 1019 659 969 692 q 1097 565 1068 626 q 1126 418 1126 503 q 1097 272 1126 333 q 1019 178 1068 211 q 910 146 969 146 q 817 163 856 146 q 733 225 778 181 q 604 368 688 269 q 472 216 515 260 q 395 159 428 172 q 308 146 363 146 q 199 178 249 146 q 121 272 150 211 q 92 418 92 333 q 121 565 92 503 q 199 659 150 626 q 308 692 249 692 q 402 674 363 692 q 487 612 442 657 q 613 469 532 567 q 747 620 700 575 q 826 678 793 665 q 910 692 858 692 m 913 214 q 985 240 951 214 q 1038 315 1018 267 q 1058 425 1058 363 q 1038 538 1058 489 q 983 612 1017 586 q 910 638 949 638 q 842 624 871 638 q 773 566 814 610 q 650 424 732 522 q 769 288 726 331 q 842 230 811 246 q 913 214 874 214 m 308 199 q 374 211 349 199 q 438 265 400 224 q 565 414 476 306 q 445 552 485 511 q 376 608 406 593 q 308 624 347 624 q 235 598 269 624 q 181 524 201 572 q 160 411 160 475 q 181 299 160 347 q 235 224 201 250 q 308 199 269 199 z "},"∫":{"ha":590,"x_min":26,"x_max":565,"o":"m 456 1053 q 518 1046 494 1053 q 565 1024 542 1039 l 553 963 q 461 990 514 990 q 367 956 401 990 q 332 850 332 921 l 332 19 q 281 -126 332 -74 q 140 -178 231 -178 q 76 -170 101 -178 q 26 -147 51 -162 l 39 -86 q 132 -115 82 -115 q 228 -81 193 -115 q 263 25 263 -46 l 263 856 q 314 1001 263 949 q 456 1053 365 1053 z "},"<":{"ha":839,"x_min":111,"x_max":750,"o":"m 750 700 l 167 417 l 750 132 l 750 58 l 111 375 l 111 457 l 750 774 l 750 700 z "},"≤":{"ha":839,"x_min":103,"x_max":747,"o":"m 747 796 l 153 522 l 747 242 l 747 167 l 103 479 l 103 565 l 747 871 l 747 796 m 103 64 l 747 64 l 747 0 l 103 0 l 103 64 z "},"¬":{"ha":839,"x_min":93,"x_max":746,"o":"m 746 471 l 746 211 l 676 211 l 676 407 l 93 407 l 93 471 l 746 471 z "},"−":{"ha":839,"x_min":93,"x_max":746,"o":"m 746 407 l 93 407 l 93 471 l 746 471 l 746 407 z "},"₋":{"ha":467,"x_min":46,"x_max":421,"o":"m 46 35 l 421 35 l 421 -10 l 46 -10 l 46 35 z "},"⁻":{"ha":467,"x_min":46,"x_max":421,"o":"m 46 760 l 421 760 l 421 715 l 46 715 l 46 760 z "},"×":{"ha":839,"x_min":140,"x_max":697,"o":"m 467 438 l 697 207 l 650 158 l 419 390 l 188 158 l 140 207 l 371 438 l 140 668 l 188 717 l 419 485 l 650 717 l 697 668 l 467 438 z "},"≠":{"ha":839,"x_min":104,"x_max":735,"o":"m 511 539 l 401 317 l 735 317 l 735 256 l 372 256 l 293 96 l 224 96 l 301 256 l 104 256 l 104 317 l 332 317 l 442 539 l 104 539 l 104 600 l 471 600 l 547 757 l 617 757 l 540 600 l 735 600 l 735 539 l 511 539 z "},"∂":{"ha":818,"x_min":74,"x_max":722,"o":"m 367 931 q 636 812 550 931 q 722 458 722 693 q 634 108 722 229 q 381 -14 546 -14 q 220 25 290 -14 q 112 133 150 64 q 74 290 74 201 q 113 448 74 379 q 220 555 151 517 q 375 593 289 593 q 543 552 469 593 q 657 438 617 511 l 658 458 q 586 772 658 672 q 365 871 514 871 q 256 850 301 871 q 172 783 210 829 l 133 833 q 367 931 228 931 m 381 49 q 563 123 494 49 q 650 342 631 197 q 551 481 622 432 q 374 531 479 531 q 206 465 268 531 q 143 292 143 400 q 207 115 143 182 q 381 49 271 49 z "},"%":{"ha":1124,"x_min":56,"x_max":1068,"o":"m 263 924 q 415 856 361 924 q 469 681 469 788 q 415 506 469 574 q 263 439 361 439 q 110 507 165 439 q 56 681 56 575 q 110 856 56 788 q 263 924 164 924 m 828 917 l 896 917 l 294 0 l 226 0 l 828 917 m 263 868 q 155 816 192 868 q 118 681 118 764 q 155 546 118 597 q 263 494 192 494 q 370 546 333 494 q 407 681 407 597 q 370 816 407 764 q 263 868 333 868 m 861 478 q 1013 409 958 478 q 1068 235 1068 340 q 1013 61 1068 129 q 861 -7 958 -7 q 708 61 763 -7 q 653 235 653 129 q 708 410 653 342 q 861 478 763 478 m 861 422 q 753 371 790 422 q 715 235 715 319 q 753 100 715 151 q 861 49 790 49 q 969 100 932 49 q 1006 235 1006 151 q 969 371 1006 319 q 861 422 932 422 z "},"‰":{"ha":1640,"x_min":56,"x_max":1585,"o":"m 263 924 q 415 856 361 924 q 469 681 469 788 q 415 506 469 574 q 263 439 361 439 q 110 507 165 439 q 56 681 56 575 q 110 856 56 788 q 263 924 164 924 m 828 917 l 896 917 l 294 0 l 226 0 l 828 917 m 263 868 q 155 816 192 868 q 118 681 118 764 q 155 546 118 597 q 263 494 192 494 q 370 546 333 494 q 407 681 407 597 q 370 816 407 764 q 263 868 333 868 m 861 478 q 1013 409 958 478 q 1068 235 1068 340 q 1013 61 1068 129 q 861 -7 958 -7 q 708 61 763 -7 q 653 235 653 129 q 708 410 653 342 q 861 478 763 478 m 1378 478 q 1531 410 1476 478 q 1585 235 1585 342 q 1531 60 1585 128 q 1378 -7 1476 -7 q 1224 61 1279 -7 q 1169 235 1169 129 q 1224 410 1169 342 q 1378 478 1279 478 m 861 422 q 753 371 790 422 q 715 235 715 319 q 753 100 715 151 q 861 49 790 49 q 969 100 932 49 q 1006 235 1006 151 q 969 371 1006 319 q 861 422 932 422 m 1378 422 q 1269 371 1307 422 q 1232 235 1232 319 q 1269 100 1232 151 q 1378 49 1307 49 q 1485 100 1449 49 q 1522 235 1522 151 q 1485 371 1522 319 q 1378 422 1449 422 z "},"+":{"ha":839,"x_min":89,"x_max":750,"o":"m 750 407 l 453 407 l 453 101 l 388 101 l 388 407 l 89 407 l 89 471 l 388 471 l 388 771 l 453 771 l 453 471 l 750 471 l 750 407 z "},"₊":{"ha":467,"x_min":43,"x_max":425,"o":"m 425 -10 l 260 -10 l 260 -179 l 208 -179 l 208 -10 l 43 -10 l 43 35 l 208 35 l 208 204 l 260 204 l 260 35 l 425 35 l 425 -10 z "},"±":{"ha":839,"x_min":93,"x_max":746,"o":"m 746 564 l 746 499 l 453 499 l 453 183 l 388 183 l 388 499 l 93 499 l 93 564 l 388 564 l 388 878 l 453 878 l 453 564 l 746 564 m 93 64 l 746 64 l 746 0 l 93 0 l 93 64 z "},"⁺":{"ha":467,"x_min":43,"x_max":425,"o":"m 425 715 l 260 715 l 260 546 l 208 546 l 208 715 l 43 715 l 43 760 l 208 760 l 208 929 l 260 929 l 260 760 l 425 760 l 425 715 z "},"∏":{"ha":922,"x_min":118,"x_max":804,"o":"m 804 -178 l 735 -178 l 735 853 l 188 853 l 188 -178 l 118 -178 l 118 917 l 804 917 l 804 -178 z "},"√":{"ha":885,"x_min":28,"x_max":881,"o":"m 881 1136 l 435 0 l 364 0 l 171 481 l 28 481 l 28 544 l 213 544 l 372 149 l 400 64 l 428 150 l 811 1136 l 881 1136 z "},"∑":{"ha":842,"x_min":63,"x_max":767,"o":"m 767 853 l 153 853 l 617 383 l 617 372 l 150 -114 l 767 -114 l 767 -178 l 63 -178 l 63 -114 l 531 378 l 63 853 l 63 917 l 767 917 l 767 853 z "},"µ":{"ha":807,"x_min":113,"x_max":696,"o":"m 696 694 l 696 0 l 638 0 l 632 140 q 529 27 599 68 q 363 -14 460 -14 q 258 10 304 -14 q 182 81 211 33 l 182 -292 l 113 -292 l 113 694 l 182 694 l 182 253 q 233 98 182 149 q 375 47 285 47 q 550 109 481 47 q 626 265 619 171 l 626 694 l 696 694 z "},"Ω":{"ha":1043,"x_min":92,"x_max":951,"o":"m 951 60 l 951 0 l 608 0 l 608 60 q 803 202 732 99 q 874 465 874 306 q 830 678 874 588 q 707 818 786 769 q 522 867 628 867 q 336 818 415 867 q 213 678 257 769 q 169 465 169 588 q 240 202 169 306 q 435 60 311 99 l 435 0 l 92 0 l 92 60 l 328 60 q 160 220 219 117 q 100 465 100 324 q 151 711 100 606 q 299 874 203 817 q 522 931 394 931 q 745 874 650 931 q 892 711 840 817 q 943 465 943 606 q 883 220 943 324 q 714 60 824 117 l 951 60 z "},"∆":{"ha":910,"x_min":47,"x_max":863,"o":"m 863 58 l 863 0 l 47 0 l 47 58 l 413 917 l 499 917 l 863 58 m 114 58 l 796 58 l 454 864 l 114 58 z "},"∕":{"ha":314,"x_min":-206,"x_max":519,"o":"m 449 917 l 519 917 l -135 0 l -206 0 l 449 917 z "},"∙":{"ha":292,"x_min":83,"x_max":208,"o":"m 146 542 q 191 524 174 542 q 208 479 208 507 q 191 434 208 451 q 146 417 174 417 q 101 434 118 417 q 83 479 83 451 q 101 524 83 507 q 146 542 118 542 z "},"↑":{"ha":1042,"x_min":71,"x_max":968,"o":"m 522 926 q 720 697 618 796 q 968 503 822 599 l 922 446 q 699 628 794 535 q 547 810 603 722 q 554 610 554 713 l 554 0 l 485 0 l 485 610 q 492 810 485 713 q 340 628 436 722 q 117 446 244 535 l 71 503 q 319 697 217 599 q 517 926 422 796 l 522 926 z "},"↗":{"ha":1042,"x_min":190,"x_max":858,"o":"m 858 789 q 828 418 828 597 q 844 153 828 290 l 774 147 q 763 363 763 258 q 792 689 763 551 q 643 529 700 586 l 239 125 l 190 175 l 594 579 q 753 728 658 644 q 432 699 617 699 q 211 710 326 699 l 218 781 q 482 764 356 764 q 853 794 664 764 l 858 789 z "},"→":{"ha":1042,"x_min":75,"x_max":1001,"o":"m 576 908 q 772 660 672 763 q 1001 463 871 557 l 1001 457 q 771 259 869 361 q 576 11 672 157 l 519 57 q 703 281 610 185 q 883 432 796 376 q 685 425 786 425 l 75 425 l 75 494 l 685 494 q 885 488 788 494 q 704 638 797 542 q 519 863 611 733 l 576 908 z "},"↘":{"ha":1042,"x_min":172,"x_max":842,"o":"m 826 786 q 810 525 810 651 q 842 150 810 353 l 836 144 q 465 175 647 175 q 200 158 338 175 l 194 229 q 414 240 310 240 q 735 211 599 240 q 576 360 631 306 l 172 764 l 222 814 l 626 410 q 775 249 693 343 q 746 571 746 385 q 757 792 746 676 l 826 786 z "},"↓":{"ha":1042,"x_min":74,"x_max":971,"o":"m 971 414 q 722 219 825 318 q 525 -10 619 121 l 519 -10 q 322 219 424 121 q 74 414 219 318 l 119 471 q 343 289 247 382 q 494 108 439 196 q 488 307 488 203 l 488 917 l 557 917 l 557 307 q 550 107 557 201 q 701 288 604 194 q 925 471 797 381 l 971 414 z "},"↙":{"ha":1042,"x_min":200,"x_max":869,"o":"m 307 211 q 628 240 442 240 q 847 229 732 240 l 842 158 q 576 175 704 175 q 206 144 394 175 l 200 150 q 232 525 232 353 q 215 786 232 651 l 285 792 q 296 571 296 676 q 267 249 296 385 q 415 410 349 343 l 819 814 l 869 764 l 465 360 q 307 211 411 306 z "},"←":{"ha":1042,"x_min":40,"x_max":967,"o":"m 357 425 q 158 432 256 425 q 339 281 246 376 q 522 57 432 185 l 465 11 q 271 259 369 157 q 40 457 172 361 l 40 463 q 270 660 171 557 q 465 908 369 763 l 522 863 q 338 638 431 733 q 157 488 244 542 q 357 494 254 494 l 967 494 l 967 425 l 357 425 z "},"↖":{"ha":1042,"x_min":183,"x_max":851,"o":"m 851 175 l 803 125 l 399 529 q 250 688 331 597 q 279 367 279 553 q 268 147 279 263 l 197 153 q 214 418 214 290 q 183 789 214 597 l 189 794 q 560 764 378 764 q 824 781 686 764 l 831 710 q 610 699 715 699 q 290 726 429 699 q 449 579 364 664 l 851 175 z "},"↔":{"ha":1396,"x_min":40,"x_max":1356,"o":"m 932 933 q 1127 684 1029 786 q 1356 488 1225 582 l 1356 482 q 1126 284 1225 386 q 932 36 1028 182 l 869 74 q 1236 456 1058 343 q 1069 450 1136 450 l 326 450 q 160 456 260 450 q 526 74 338 343 l 464 36 q 269 284 368 182 q 40 482 171 386 l 40 488 q 269 684 171 582 q 464 933 367 786 l 526 896 q 340 667 433 764 q 158 514 246 569 q 326 519 258 519 l 1069 519 q 1238 514 1138 519 q 1056 667 1150 569 q 869 896 963 764 l 932 933 z "},"↕":{"ha":1042,"x_min":71,"x_max":968,"o":"m 549 -81 q 701 100 604 6 q 931 288 799 194 l 968 225 q 720 31 822 129 q 522 -200 618 -68 l 517 -200 q 319 31 421 -68 q 71 225 217 129 l 108 288 q 338 100 240 194 q 490 -81 435 6 q 485 88 485 19 l 485 829 q 490 997 485 897 q 338 816 435 910 q 108 631 240 722 l 71 692 q 319 886 217 788 q 517 1117 421 985 l 522 1117 q 720 886 618 985 q 968 692 822 788 l 931 631 q 701 816 799 722 q 549 997 604 910 q 554 829 554 897 l 554 88 q 549 -81 554 19 z "},"●":{"ha":833,"x_min":85,"x_max":749,"o":"m 417 15 q 248 59 324 15 q 128 178 172 103 q 85 347 85 254 q 128 516 85 440 q 248 635 172 592 q 417 679 324 679 q 585 635 510 679 q 705 516 661 592 q 749 347 749 440 q 705 178 749 254 q 585 59 661 103 q 417 15 510 15 z "},"○":{"ha":833,"x_min":86,"x_max":747,"o":"m 417 15 q 249 59 324 15 q 130 178 174 103 q 86 347 86 254 q 130 516 86 440 q 249 635 174 592 q 417 679 324 679 q 585 635 510 679 q 703 516 660 592 q 747 347 747 440 q 703 178 747 254 q 585 59 660 103 q 417 15 510 15 m 417 81 q 550 115 490 81 q 644 211 610 150 q 678 347 678 272 q 644 483 678 422 q 550 580 610 544 q 417 615 490 615 q 283 580 343 615 q 190 483 224 544 q 156 347 156 422 q 190 211 156 272 q 283 115 224 150 q 417 81 343 81 z "},"◆":{"ha":833,"x_min":54,"x_max":779,"o":"m 54 354 l 417 718 l 779 354 l 417 -8 l 54 354 z "},"◇":{"ha":833,"x_min":54,"x_max":779,"o":"m 54 354 l 417 718 l 779 354 l 417 -8 l 54 354 m 678 354 l 417 615 l 156 354 l 417 93 l 678 354 z "},"◊":{"ha":742,"x_min":63,"x_max":681,"o":"m 681 458 l 413 0 l 328 0 l 63 458 l 328 917 l 413 917 l 681 458 m 603 458 l 371 867 l 142 458 l 371 50 l 603 458 z "},"▪":{"ha":833,"x_min":99,"x_max":735,"o":"m 735 665 l 735 29 l 99 29 l 99 665 l 735 665 z "},"▫":{"ha":833,"x_min":99,"x_max":735,"o":"m 99 665 l 735 665 l 735 29 l 99 29 l 99 665 m 665 90 l 665 604 l 168 604 l 168 90 l 665 90 z "},"❛":{"ha":976,"x_min":82,"x_max":901,"o":"m 843 860 q 760 863 785 863 q 454 816 572 863 q 274 699 336 769 q 174 533 213 628 l 185 526 q 322 624 243 593 q 514 654 400 654 q 796 568 690 654 q 901 324 901 482 q 799 74 901 161 q 506 -14 696 -14 q 184 92 286 -14 q 82 383 82 199 q 231 772 82 621 q 733 922 381 922 q 800 921 776 922 l 843 860 z "},"❜":{"ha":976,"x_min":76,"x_max":894,"o":"m 133 -124 q 217 -126 192 -126 q 522 -80 404 -126 q 702 38 640 -33 q 803 203 764 108 l 793 210 q 656 113 735 143 q 463 82 576 82 q 181 168 286 82 q 76 413 76 254 q 178 663 76 576 q 471 750 281 750 q 793 644 692 750 q 894 353 894 538 q 745 -35 894 115 q 243 -186 596 -186 q 176 -185 200 -186 l 133 -124 z "},"❝":{"ha":1719,"x_min":82,"x_max":1644,"o":"m 1257 654 q 1539 568 1433 654 q 1644 324 1644 482 q 1542 74 1644 161 q 1249 -14 1439 -14 q 871 169 965 -14 q 738 33 831 79 q 506 -14 644 -14 q 184 92 286 -14 q 82 383 82 199 q 231 772 82 621 q 733 922 381 922 q 800 921 776 922 l 843 860 q 760 863 785 863 q 454 816 572 863 q 274 699 336 769 q 174 533 213 628 l 185 526 q 322 624 243 593 q 514 654 400 654 q 706 621 622 654 q 839 524 789 588 q 1027 814 875 706 q 1476 922 1179 922 q 1543 921 1521 922 l 1586 860 q 1503 863 1528 863 q 1197 816 1315 863 q 1017 699 1079 769 q 917 533 956 628 l 928 526 q 1065 624 986 593 q 1257 654 1143 654 z "},"❞":{"ha":1719,"x_min":75,"x_max":1638,"o":"m 1215 750 q 1536 644 1435 750 q 1638 353 1638 538 q 1488 -35 1638 115 q 986 -186 1339 -186 q 919 -185 943 -186 l 876 -124 q 960 -126 935 -126 q 1265 -80 1147 -126 q 1445 38 1383 -33 q 1546 203 1507 108 l 1536 210 q 1399 113 1478 143 q 1206 82 1319 82 q 1014 115 1097 82 q 881 214 931 149 q 692 -77 844 32 q 243 -186 540 -186 q 176 -185 199 -186 l 133 -124 q 217 -126 192 -126 q 522 -80 404 -126 q 702 38 640 -33 q 803 203 764 108 l 792 210 q 655 113 733 143 q 463 82 576 82 q 181 168 286 82 q 75 413 75 254 q 178 663 75 575 q 471 750 281 750 q 849 565 754 750 q 983 703 889 656 q 1215 750 1076 750 z "},"❡":{"ha":821,"x_min":50,"x_max":701,"o":"m 701 39 q 350 -299 701 -299 q 183 -249 246 -299 q 119 -117 119 -199 q 128 -56 119 -87 l 179 -44 q 171 -100 171 -74 q 213 -206 171 -165 q 318 -246 254 -246 q 463 -68 463 -246 l 463 307 l 389 307 q 211 345 288 307 q 92 452 135 383 q 50 611 50 521 q 94 772 50 703 q 217 878 138 840 q 401 917 297 917 l 701 917 l 701 39 m 463 365 l 463 858 l 389 858 q 190 791 263 858 q 117 611 117 724 q 190 432 117 499 q 389 365 263 365 l 463 365 m 519 858 l 519 -87 q 499 -182 519 -137 q 443 -243 479 -226 l 446 -247 q 639 29 639 -194 l 639 858 l 519 858 z "},"|":{"ha":288,"x_min":114,"x_max":175,"o":"m 175 -233 l 114 -233 l 114 1014 l 175 1014 l 175 -233 z "},"¦":{"ha":306,"x_min":122,"x_max":183,"o":"m 183 508 l 122 508 l 122 1014 l 183 1014 l 183 508 m 183 -233 l 122 -233 l 122 272 l 183 272 l 183 -233 z "},"@":{"ha":1342,"x_min":83,"x_max":1251,"o":"m 683 924 q 1004 847 876 924 q 1192 640 1132 769 q 1251 351 1251 510 q 1193 87 1251 183 q 1035 -10 1135 -10 q 886 156 897 -10 q 787 36 853 79 q 629 -7 721 -7 q 490 31 551 -7 q 394 138 428 68 q 360 303 360 208 q 401 488 360 408 q 515 610 443 568 q 674 653 588 653 q 827 610 768 653 q 910 494 886 568 l 925 636 l 972 636 l 943 196 q 1046 40 936 40 q 1157 121 1118 40 q 1196 351 1196 201 q 1141 616 1196 499 q 972 802 1086 733 q 683 871 857 871 q 397 803 519 871 q 209 610 275 735 q 143 317 143 485 q 211 33 143 153 q 400 -151 279 -87 q 676 -215 521 -215 q 855 -188 776 -215 q 989 -115 933 -161 l 1021 -158 q 676 -268 876 -268 q 365 -197 500 -268 q 157 7 231 -125 q 83 317 83 139 q 158 635 83 497 q 368 848 232 772 q 683 924 504 924 m 681 600 q 492 521 563 600 q 422 306 422 442 q 483 117 422 186 q 647 47 543 47 q 816 115 749 47 q 890 296 883 183 l 894 351 q 845 531 900 461 q 681 600 790 600 z "},"&":{"ha":832,"x_min":65,"x_max":840,"o":"m 656 150 q 753 62 714 85 q 840 39 793 39 l 824 -14 q 728 11 772 -14 q 619 104 683 36 q 343 -14 513 -14 q 199 15 263 -14 q 101 94 136 43 q 65 210 65 144 q 121 367 65 300 q 297 501 176 435 q 208 634 232 586 q 183 733 183 682 q 239 872 183 815 q 389 928 294 928 q 533 883 476 928 q 589 751 589 838 q 547 612 589 672 q 388 485 506 551 q 482 363 446 408 q 617 194 565 257 q 673 332 654 254 q 689 500 692 410 l 746 494 q 726 309 749 399 q 656 150 703 219 m 388 868 q 286 831 324 868 q 249 735 249 793 q 267 654 249 692 q 351 531 286 617 q 491 637 456 586 q 526 750 526 688 q 490 838 526 807 q 388 868 453 868 m 339 43 q 475 70 414 43 q 581 147 536 97 q 436 324 510 231 l 333 454 q 176 338 222 390 q 131 214 131 286 q 191 90 131 138 q 339 43 251 43 z "},"¶":{"ha":821,"x_min":50,"x_max":701,"o":"m 701 -139 l 639 -139 l 639 858 l 453 858 l 453 -139 l 389 -139 l 389 307 q 211 345 288 307 q 92 452 135 383 q 50 611 50 521 q 94 772 50 703 q 217 879 138 842 q 401 917 296 917 l 701 917 l 701 -139 m 389 858 q 190 792 263 858 q 117 611 117 725 q 190 431 117 497 q 389 365 263 365 l 389 858 z "},"©":{"ha":1124,"x_min":86,"x_max":1036,"o":"m 561 931 q 810 872 703 931 q 977 707 918 814 q 1036 458 1036 600 q 977 210 1036 317 q 810 44 918 103 q 561 -14 703 -14 q 312 44 419 -14 q 145 210 204 103 q 86 458 86 318 q 145 706 86 599 q 312 872 204 814 q 561 931 419 931 m 561 874 q 344 822 438 874 q 201 676 251 771 q 150 458 150 582 q 201 240 150 335 q 344 94 251 146 q 561 43 438 43 q 778 94 685 43 q 922 240 871 146 q 974 458 974 335 q 922 676 974 582 q 778 822 871 771 q 561 874 685 874 m 575 713 q 708 678 654 713 q 786 578 761 643 l 735 551 q 574 660 697 660 q 433 606 483 660 q 382 456 382 551 q 433 306 382 360 q 574 251 483 251 q 682 282 638 251 q 743 368 726 313 l 793 347 q 713 238 769 278 q 575 199 656 199 q 390 267 457 199 q 322 456 322 336 q 390 644 322 575 q 575 713 457 713 z "},"®":{"ha":1124,"x_min":86,"x_max":1036,"o":"m 561 931 q 810 872 703 931 q 977 707 918 814 q 1036 458 1036 600 q 977 210 1036 317 q 810 44 918 103 q 561 -14 703 -14 q 312 44 419 -14 q 145 210 204 103 q 86 458 86 318 q 145 706 86 599 q 312 872 204 814 q 561 931 419 931 m 561 43 q 778 94 685 43 q 922 240 871 146 q 974 458 974 335 q 922 676 974 582 q 778 822 871 771 q 561 874 685 874 q 344 822 438 874 q 201 676 251 771 q 150 458 150 582 q 201 240 150 335 q 344 94 251 146 q 561 43 438 43 m 781 560 q 746 460 781 499 q 649 411 711 422 l 790 199 l 722 199 l 586 407 l 447 407 l 447 199 l 388 199 l 388 713 l 600 713 q 733 672 685 713 q 781 560 781 632 m 447 453 l 600 453 q 722 560 722 456 q 600 665 722 665 l 447 665 l 447 453 z "},"§":{"ha":790,"x_min":56,"x_max":749,"o":"m 749 374 q 708 265 749 311 q 604 193 668 219 q 655 131 639 167 q 671 49 671 96 q 638 -53 671 -7 q 544 -126 606 -99 q 399 -153 482 -153 q 126 -24 200 -153 l 179 19 q 259 -65 204 -37 q 399 -92 314 -92 q 548 -55 494 -92 q 601 43 601 -18 q 578 119 601 89 q 499 170 554 150 q 346 204 443 190 q 174 244 238 219 q 83 308 111 269 q 56 404 56 346 q 95 513 56 467 q 199 585 135 558 q 149 647 165 611 q 133 729 133 682 q 166 831 133 785 q 261 903 199 876 q 410 931 324 931 q 676 801 606 931 l 628 760 q 408 869 572 869 q 257 833 311 869 q 203 735 203 796 q 226 658 203 689 q 306 608 250 628 q 458 574 361 588 q 630 533 567 558 q 721 470 693 508 q 749 374 749 432 m 538 228 q 679 368 679 274 q 626 460 679 428 q 440 510 574 492 q 265 550 326 525 q 125 410 125 506 q 177 318 125 350 q 363 268 229 286 q 538 228 468 254 z "},"™":{"ha":1110,"x_min":60,"x_max":990,"o":"m 436 868 l 281 868 l 281 458 l 218 458 l 218 868 l 60 868 l 60 917 l 436 917 l 436 868 m 990 917 l 990 458 l 929 458 l 929 750 l 936 836 l 935 836 l 924 801 l 781 458 l 733 458 l 590 801 l 578 836 l 576 836 l 583 750 l 583 458 l 522 458 l 522 917 l 599 917 l 735 586 l 757 529 l 758 529 l 778 586 l 917 917 l 990 917 z "},"°":{"ha":581,"x_min":78,"x_max":503,"o":"m 290 511 q 137 570 196 511 q 78 721 78 629 q 137 872 78 814 q 290 931 196 931 q 444 872 385 931 q 503 721 503 814 q 443 570 503 629 q 290 511 383 511 m 290 568 q 399 611 357 568 q 440 721 440 654 q 399 831 440 788 q 290 874 357 874 q 181 831 224 874 q 139 721 139 788 q 181 611 139 654 q 290 568 224 568 z "},"℮":{"ha":1103,"x_min":86,"x_max":1031,"o":"m 558 931 q 906 800 781 931 q 1029 429 1031 669 l 251 429 l 251 171 q 394 76 310 108 q 588 43 479 43 q 813 99 711 43 q 985 263 915 154 l 985 182 q 822 35 924 83 q 586 -14 719 -14 q 318 44 431 -14 q 146 209 206 103 q 86 458 86 315 q 144 707 86 600 q 310 872 203 814 q 558 931 417 931 m 558 874 q 384 842 463 874 q 251 751 306 811 l 251 489 l 865 489 l 865 743 q 733 840 811 806 q 558 874 656 874 z "},"ℓ":{"ha":506,"x_min":60,"x_max":447,"o":"m 340 46 q 393 51 369 46 q 447 68 417 57 l 442 8 q 335 -14 401 -14 q 206 28 247 -14 q 164 160 164 69 l 164 321 q 60 269 110 288 l 60 331 q 164 383 118 353 l 164 761 q 297 931 164 931 q 397 892 364 931 q 429 768 429 853 q 376 551 429 658 q 226 365 322 443 l 226 167 q 255 78 226 110 q 340 46 283 46 m 226 433 q 332 588 294 500 q 369 771 369 676 q 352 850 369 825 q 299 875 335 875 q 244 848 261 875 q 226 764 226 821 l 226 433 z "},"^":{"ha":760,"x_min":44,"x_max":717,"o":"m 644 493 l 381 954 l 117 493 l 44 493 l 346 1014 l 414 1014 l 717 493 l 644 493 z "},"†":{"ha":710,"x_min":61,"x_max":649,"o":"m 649 567 l 390 567 l 390 -139 l 321 -139 l 321 567 l 61 567 l 61 625 l 321 625 l 321 917 l 390 917 l 390 625 l 649 625 l 649 567 z "},"‡":{"ha":710,"x_min":61,"x_max":649,"o":"m 390 567 l 390 211 l 649 211 l 649 153 l 390 153 l 390 -139 l 321 -139 l 321 153 l 61 153 l 61 211 l 321 211 l 321 567 l 61 567 l 61 625 l 321 625 l 321 917 l 390 917 l 390 625 l 649 625 l 649 567 l 390 567 z "},"":{"ha":1569,"x_min":24,"x_max":1513,"o":"m 1501 393 l 1414 351 l 1471 281 l 1375 264 l 1414 179 l 1329 174 q 1290 153 1310 161 l 1290 40 q 1250 0 1290 0 l 1186 0 q 1146 32 1146 0 q 1186 67 1146 67 l 1201 67 l 1201 121 q 1110 107 1163 111 l 1110 40 q 1069 0 1110 0 l 1006 0 q 965 32 965 0 q 1006 67 965 67 l 1021 67 l 1021 104 l 707 104 l 707 40 q 667 0 707 0 l 603 0 q 561 32 561 0 q 572 58 561 49 q 603 67 583 67 l 619 67 l 619 104 l 497 104 l 497 40 q 456 0 497 0 l 394 0 q 351 32 351 0 q 394 67 351 67 l 408 67 l 408 118 q 228 153 315 122 q 88 231 142 183 l 81 231 q 41 248 58 231 q 24 288 24 265 q 41 328 24 311 q 81 344 58 344 q 96 342 88 344 q 188 451 149 382 q 228 581 228 521 l 233 696 l 311 657 l 311 753 l 389 711 l 383 797 l 476 761 l 483 853 l 574 807 l 585 897 l 678 847 l 701 938 l 781 868 l 822 957 l 890 888 l 958 963 l 1010 881 l 1079 957 l 1115 868 l 1203 929 l 1213 833 l 1310 876 l 1294 781 l 1400 803 l 1371 714 l 1472 718 l 1417 640 l 1508 608 l 1433 556 l 1513 501 l 1431 453 l 1501 393 m 549 343 q 599 378 581 354 q 617 438 617 403 q 585 516 617 486 q 506 546 553 546 q 475 539 490 546 q 449 522 460 532 l 464 496 q 501 513 481 511 q 558 493 538 514 q 579 435 579 472 q 532 372 579 383 l 549 343 m 331 322 q 397 346 372 322 q 421 411 421 369 l 388 411 q 374 372 388 383 q 331 360 360 360 q 288 372 301 360 q 274 411 274 383 l 240 411 q 265 346 240 369 q 331 322 289 322 z "},"̦":{"ha":0,"x_min":-451,"x_max":-312,"o":"m -396 -324 l -451 -324 l -386 -100 l -312 -100 l -396 -324 z "},"ˉ":{"ha":726,"x_min":142,"x_max":586,"o":"m 586 833 l 142 833 l 142 892 l 586 892 l 586 833 z "},"´":{"ha":726,"x_min":346,"x_max":533,"o":"m 533 1029 l 403 810 l 346 810 l 457 1029 l 533 1029 z "},"˘":{"ha":726,"x_min":163,"x_max":539,"o":"m 539 992 q 488 855 539 906 q 350 804 436 804 q 214 856 265 804 q 163 992 163 907 l 221 992 q 257 895 221 933 q 350 857 293 857 q 444 895 408 857 q 481 992 481 933 l 539 992 z "},"ˇ":{"ha":726,"x_min":154,"x_max":540,"o":"m 388 810 l 307 810 l 154 1025 l 219 1025 l 347 860 l 475 1025 l 540 1025 l 388 810 z "},"¸":{"ha":726,"x_min":236,"x_max":522,"o":"m 361 24 q 483 -55 443 -8 q 522 -157 522 -101 q 483 -252 522 -214 q 379 -290 444 -290 q 298 -278 332 -290 q 236 -237 264 -265 l 264 -189 q 371 -237 304 -237 q 435 -213 410 -237 q 461 -149 461 -189 q 431 -71 461 -104 q 314 4 400 -37 l 361 24 z "},"ˆ":{"ha":726,"x_min":171,"x_max":557,"o":"m 492 804 l 364 971 l 236 804 l 171 804 l 324 1021 l 403 1021 l 557 804 l 492 804 z "},"¨":{"ha":726,"x_min":178,"x_max":554,"o":"m 235 932 q 275 916 260 932 q 290 875 290 900 q 275 835 290 850 q 235 819 260 819 q 194 835 210 819 q 178 875 178 850 q 194 916 178 900 q 235 932 210 932 m 497 932 q 538 916 522 932 q 554 875 554 900 q 538 835 554 850 q 497 819 522 819 q 456 835 472 819 q 440 875 440 850 q 456 916 440 900 q 497 932 472 932 z "},"˙":{"ha":726,"x_min":306,"x_max":422,"o":"m 364 946 q 406 930 390 946 q 422 888 422 914 q 406 845 422 861 q 364 829 390 829 q 322 845 338 829 q 306 888 306 861 q 322 930 306 914 q 364 946 338 946 z "},"`":{"ha":726,"x_min":194,"x_max":382,"o":"m 382 810 l 324 810 l 194 1029 l 269 1029 l 382 810 z "},"˝":{"ha":726,"x_min":168,"x_max":571,"o":"m 225 810 l 168 810 l 279 1029 l 356 1029 l 225 810 m 440 810 l 383 810 l 494 1029 l 571 1029 l 440 810 z "},"¯":{"ha":726,"x_min":142,"x_max":586,"o":"m 586 833 l 142 833 l 142 892 l 586 892 l 586 833 z "},"˛":{"ha":726,"x_min":228,"x_max":483,"o":"m 476 17 q 329 -69 372 -28 q 286 -158 286 -111 q 313 -218 286 -197 q 381 -239 339 -239 q 467 -217 436 -239 l 483 -264 q 374 -290 440 -290 q 269 -257 310 -290 q 228 -167 228 -224 q 274 -55 228 -101 q 428 36 321 -8 l 476 17 z "},"˚":{"ha":726,"x_min":201,"x_max":493,"o":"m 347 1078 q 452 1039 411 1078 q 493 939 493 1000 q 452 838 493 878 q 347 799 411 799 q 242 838 283 799 q 201 939 201 878 q 242 1039 201 1000 q 347 1078 283 1078 m 347 1032 q 280 1006 307 1032 q 253 939 253 979 q 280 872 253 899 q 347 844 307 844 q 416 872 389 844 q 443 939 443 899 q 416 1006 443 979 q 347 1032 389 1032 z "},"˜":{"ha":726,"x_min":113,"x_max":585,"o":"m 585 974 q 542 858 575 896 q 447 821 508 821 q 384 834 408 821 q 331 874 360 847 q 291 905 308 894 q 250 915 274 915 q 195 892 213 915 q 168 819 178 869 l 113 819 q 155 935 122 897 q 251 972 188 972 q 313 959 289 972 q 367 919 338 946 q 406 888 389 899 q 446 878 424 878 q 501 901 483 878 q 529 974 519 924 l 585 974 z "}}}
